<svg id="レイヤー_1" data-name="レイヤー 1" xmlns="http://www.w3.org/2000/svg" viewBox="0 0 500 300"><defs><style>.cls-1{fill:#55207d;}.cls-2{fill:#231815;}</style></defs><path class="cls-1" d="M121.65,122.3a.19.19,0,0,1-.07-.18A20,20,0,0,1,123,117.4c.9-1.29,1.86-1.72,2.77-1.09s.85,1.68,0,3a20.34,20.34,0,0,1-3.91,3,.18.18,0,0,1-.2,0m-10.47,0a19.73,19.73,0,0,1-3.91-3c-.9-1.29-1-2.34-.06-3s1.87-.2,2.77,1.09a20,20,0,0,1,1.46,4.72.17.17,0,0,1-.07.18.17.17,0,0,1-.19,0M121.65,106a.19.19,0,0,1-.07-.18,19.87,19.87,0,0,1,1.46-4.72c.9-1.29,1.86-1.72,2.77-1.09s.85,1.68,0,3a20.34,20.34,0,0,1-3.91,3,.18.18,0,0,1-.2,0m-10.47,0a19.73,19.73,0,0,1-3.91-3c-.9-1.29-1-2.34-.06-3s1.87-.2,2.77,1.09a19.87,19.87,0,0,1,1.46,4.72.17.17,0,0,1-.07.18.17.17,0,0,1-.19,0m38.09,11a19.8,19.8,0,0,1-4.39-2.26c-1.12-1.11-1.36-2.13-.59-2.92s1.81-.53,2.92.58a20.08,20.08,0,0,1,2.29,4.37.21.21,0,0,1,0,.2.17.17,0,0,1-.19,0m9.73.57a.19.19,0,0,1,0-.21,21.46,21.46,0,0,1,2.62-4.63c1.25-1.16,2.36-1.39,3.17-.52s.5,2-.74,3.12a20.87,20.87,0,0,1-4.81,2.28.18.18,0,0,1-.2,0m-4.9-11.4a.2.2,0,0,1-.18-.12,21.4,21.4,0,0,1-1.6-5.08c0-1.69.59-2.67,1.78-2.67s1.78,1,1.78,2.67a21.87,21.87,0,0,1-1.6,5.08.21.21,0,0,1-.18.12M83.76,117a19.94,19.94,0,0,0,4.38-2.26c1.12-1.11,1.37-2.13.59-2.92s-1.8-.53-2.92.58a19.64,19.64,0,0,0-2.28,4.37.17.17,0,0,0,.23.23m-9.73.57a.2.2,0,0,0,0-.21,21.05,21.05,0,0,0-2.62-4.63c-1.25-1.16-2.36-1.39-3.17-.52s-.5,2,.75,3.12a20.59,20.59,0,0,0,4.8,2.28.2.2,0,0,0,.21,0m4.9-11.4a.19.19,0,0,0,.17-.12,21.4,21.4,0,0,0,1.6-5.08c0-1.69-.58-2.67-1.77-2.67s-1.79,1-1.79,2.67A21.46,21.46,0,0,0,78.75,106a.19.19,0,0,0,.18.12m37.39-15a20.63,20.63,0,0,1-1.56-4.95c0-1.66.57-2.6,1.73-2.6s1.74.94,1.74,2.6a20.69,20.69,0,0,1-1.57,4.95.17.17,0,0,1-.17.12.19.19,0,0,1-.17-.12M115,107.88Zm3.13,0Zm2.9.54Zm-8.93,0Zm4,85.51c-.07-7.05-.15-17.27-.22-27.2-3.36,1.21-5.72,5.13-6,11.64a30.91,30.91,0,0,0,2.06,12.83c.2.52.64,1.38.41,1.5s-.76-.69-1-1.19a29.36,29.36,0,0,1-2.55-13.41c.15-6.06,2.33-11.75,7.11-13,0-1.86,0-3.7,0-5.51-5.25,1.25-9.66,5.48-11.41,12.45a23.31,23.31,0,0,0,.41,13.72c.19.51.48,1.43.22,1.51s-.64-.83-.86-1.33c-1.46-3.42-2-8.21-.71-14.25,1.38-6.47,5.53-12.56,12.34-13.78,0-2,0-3.86,0-5.67-7.49,1.88-13.39,6.13-16.13,15.29a22.77,22.77,0,0,0,.31,15c.2.51.44,1.45.19,1.54s-.59-.82-.81-1.33c-1.87-4.17-2.07-9.81-.67-15.5a22.4,22.4,0,0,1,17.09-16.87c0-2.11,0-4.07,0-5.84-9,2.08-15.35,6.7-19.41,15.19-2.55,5.34-3.42,10.58-2.28,15.35.14.53.4,1.46.15,1.54s-.6-.82-.77-1.35c-1.43-4.39-.6-10.26,1.87-16.11a28.23,28.23,0,0,1,20.43-16.54c0-1.57,0-2.93,0-4a4.78,4.78,0,0,1-2.73-1.46c-14,4.93-25.5,17.94-25.5,33.84,0,4.71,1.92,7.19,6.67,9.48,0,.05-.48,5.28,3.1,8.21a16,16,0,0,0,8.22,3.24h0c1,4.8,6.4,7,11,7s9.94-2.23,11-7h0a16,16,0,0,0,8.22-3.24c3.58-2.93,3.11-8.16,3.11-8.21,4.74-2.29,6.67-4.77,6.67-9.48,0-15.9-11.51-28.91-25.51-33.84a4.75,4.75,0,0,1-2.73,1.46c0,1.09,0,2.45,0,4a28.23,28.23,0,0,1,20.42,16.54c2.47,5.85,3.31,11.72,1.88,16.11-.17.53-.52,1.43-.78,1.35s0-1,.15-1.54c1.14-4.77.27-10-2.28-15.35-4.06-8.49-10.36-13.11-19.41-15.19,0,1.77,0,3.73,0,5.84a22.4,22.4,0,0,1,17.09,16.87c1.4,5.69,1.2,11.33-.66,15.5-.23.51-.57,1.42-.82,1.33s0-1,.19-1.54a22.7,22.7,0,0,0,.31-15c-2.73-9.16-8.63-13.41-16.12-15.29,0,1.81,0,3.71,0,5.67,6.81,1.22,11,7.31,12.35,13.78,1.28,6,.75,10.83-.72,14.25-.22.5-.61,1.41-.86,1.33s0-1,.22-1.51a23.31,23.31,0,0,0,.42-13.72c-1.76-7-6.17-11.2-11.42-12.45,0,1.81,0,3.65,0,5.51,4.78,1.24,7,6.93,7.11,13a29.23,29.23,0,0,1-2.55,13.41c-.23.5-.76,1.31-1,1.19s.22-1,.42-1.5a30.91,30.91,0,0,0,2.05-12.83c-.33-6.51-2.69-10.43-6-11.64-.07,9.93-.16,20.15-.23,27.2,0,2.24-.16,2.59-.39,2.59s-.36-.35-.39-2.59m9.43-59.58a31.2,31.2,0,0,0-4.27-.36,5,5,0,0,1-.42,1.86,40.86,40.86,0,0,1,5.53,2.49,15.91,15.91,0,0,1-.84-4m8.22,9.1A14,14,0,0,1,133,139a8.23,8.23,0,0,1,.44-2.79,35.3,35.3,0,0,0-6.23-1.55,11.91,11.91,0,0,0,.85,4.68,41.28,41.28,0,0,1,5.7,4.15m-27.14-5.11a41,41,0,0,1,5.54-2.49,4.81,4.81,0,0,1-.43-1.86,31.45,31.45,0,0,0-4.27.36,15.47,15.47,0,0,1-.84,4m28.74,6.57a36.51,36.51,0,0,1,11.53,26.28l.7.15a15.36,15.36,0,0,0,3.1.45,12.27,12.27,0,0,0,4.58-1.4h0c2.37.82,7.9,2.75,13.23-1.58s3.91-10.69,3.89-10.75V158h0c4.27-.5,6.38-4.54,6.38-8.86s-.76-6.11-4.47-8.69a8.1,8.1,0,0,0,.7-6.22c-1.8-7.72-15.38-14.62-32.53-13.88A36.4,36.4,0,0,0,126.22,125a26.4,26.4,0,0,0-6.72,5.17,4.78,4.78,0,0,1,1.58,2.45,31.31,31.31,0,0,1,4.79.38,20.81,20.81,0,0,1,4.81-3.49,31.65,31.65,0,0,1,26.52-2.18,38.62,38.62,0,0,1,7.29,3.52,26.91,26.91,0,0,1,6.12,5.08l0,0c.07.08.38.48.66.89.57.81.48.89.43.93a.06.06,0,0,1-.07,0c-.31,0-1.46-1.16-1.53-1.23a34.13,34.13,0,0,0-22.72-9.75c-11.21-.21-17.39,4.41-19.59,6.47a39.26,39.26,0,0,1,6.3,1.68,25.63,25.63,0,0,1,5.65-2.48,26.11,26.11,0,0,1,5.53-1.08,20.62,20.62,0,0,1,6.68.42,33.18,33.18,0,0,1,8.6,3.3,40.16,40.16,0,0,1,6.53,4.63,30.82,30.82,0,0,1,5.34,6l0,0c.07.1.38.62.64,1.1.55,1,.45,1.07.4,1.11a.09.09,0,0,1-.08,0c-.31-.05-.79-.61-.8-.63-.38-.56-7.23-11.06-20.38-14.26a21.36,21.36,0,0,0-10.53.24,25.25,25.25,0,0,0-6,2.34,37.28,37.28,0,0,1,6,2.8,11,11,0,0,1,2.88-1.1,15.09,15.09,0,0,1,5.85-.22,22.49,22.49,0,0,1,5.68,1.62,23.09,23.09,0,0,1,5,3A33.78,33.78,0,0,1,169.52,152a9.89,9.89,0,0,1,.39,1.15c.31,1,.2,1.1.16,1.13a.08.08,0,0,1-.07,0c-.17,0-.58-.65-1.22-1.8l0-.05c-4.68-8.36-10.44-12.8-18.14-14a12.86,12.86,0,0,0-7.47.89,38.53,38.53,0,0,1,5.62,4.07,9.2,9.2,0,0,1,4.16.13,16.61,16.61,0,0,1,7.34,4.48,25.08,25.08,0,0,1,6.13,9.53,19.37,19.37,0,0,1,1.13,4.88s0,1.61-.26,1.63a.12.12,0,0,1-.09,0c-.18-.16-.24-1-.25-1.21a21.7,21.7,0,0,0-6.73-13.36c-4.77-4.64-8.49-5-10-4.85l.29.28c.1.11.21.23.31.32,5.27,4.86,9.48,11.13,13.23,19.74,0,.09.37.91.66,1.72.59,1.61.49,1.66.43,1.68s-.16.08-.92-1.4c-.36-.7-.71-1.46-.78-1.61-3.84-8.32-8.51-14.84-14.28-19.92a31.09,31.09,0,0,0,1.8,9,24.22,24.22,0,0,0,9,12c.09.06.53.39,1,.74.81.69.75.78.71.83l-.06,0a7.57,7.57,0,0,1-2-1,26.52,26.52,0,0,1-7-7.15,28.93,28.93,0,0,1-3.52-7.22,19.69,19.69,0,0,1-1.16-8.28v-.07a34.88,34.88,0,0,0-5.45-3.73c-2.33,8.94,4.95,19.74,10.57,25.52,0,0,1.17,1.29,1,1.5a.14.14,0,0,1-.09,0c-.3,0-1.28-.87-1.41-1A40.45,40.45,0,0,1,143,152.47c-2.11-5.31-2.68-9.4-1.8-12.85a37,37,0,0,0-6.18-2.89,12.13,12.13,0,0,0,.35,8.18M98,136.73a36.59,36.59,0,0,0-6.18,2.89c.88,3.45.3,7.54-1.81,12.85a40.57,40.57,0,0,1-9.54,14.06c-.13.11-1.12,1-1.42,1a.11.11,0,0,1-.08,0c-.21-.21.94-1.49,1-1.5,5.63-5.78,12.9-16.58,10.57-25.52A35.36,35.36,0,0,0,85,144.19v.07a19.79,19.79,0,0,1-1.15,8.28,29.29,29.29,0,0,1-3.52,7.22,26.67,26.67,0,0,1-7,7.15,7.64,7.64,0,0,1-2,1l-.06,0c0-.05-.1-.14.72-.83.41-.35.86-.68.94-.74a24.16,24.16,0,0,0,9-12,31.09,31.09,0,0,0,1.8-9C78,150.45,73.36,157,69.53,165.29c-.07.15-.43.91-.79,1.61-.75,1.48-.85,1.44-.91,1.4s-.17-.07.42-1.68c.29-.81.62-1.63.66-1.72,3.76-8.61,8-14.88,13.23-19.74l.32-.32a3.76,3.76,0,0,1,.29-.28c-1.48-.11-5.2.21-10,4.85a21.7,21.7,0,0,0-6.73,13.36c0,.24-.07,1-.25,1.21a.12.12,0,0,1-.09,0c-.3,0-.26-1.62-.26-1.63a19.72,19.72,0,0,1,1.14-4.88A24.94,24.94,0,0,1,72.71,148a16.61,16.61,0,0,1,7.34-4.48,9.2,9.2,0,0,1,4.16-.13,38.6,38.6,0,0,1,5.63-4.07,12.9,12.9,0,0,0-7.48-.89c-7.69,1.17-13.46,5.61-18.14,14l0,.05c-.64,1.15-1.05,1.76-1.22,1.8a.08.08,0,0,1-.07,0s-.15-.09.16-1.13a9.3,9.3,0,0,1,.4-1.15,33.64,33.64,0,0,1,8.32-10.16,22.79,22.79,0,0,1,5-3,22.49,22.49,0,0,1,5.68-1.62,15.14,15.14,0,0,1,5.86.22,10.71,10.71,0,0,1,2.87,1.1,38.09,38.09,0,0,1,6-2.8,25.25,25.25,0,0,0-6-2.34,21.32,21.32,0,0,0-10.52-.24c-13.15,3.2-20,13.7-20.38,14.26,0,0-.49.58-.81.63a.07.07,0,0,1-.07,0c-.06,0-.15-.11.39-1.11.27-.48.58-1,.64-1.1s0,0,0,0a31,31,0,0,1,5.33-6,40.23,40.23,0,0,1,6.54-4.63,33,33,0,0,1,8.6-3.3,20.54,20.54,0,0,1,6.67-.42,26.19,26.19,0,0,1,5.54,1.08A25.42,25.42,0,0,1,98.87,135a39.82,39.82,0,0,1,6.3-1.68c-2.19-2.06-8.38-6.68-19.59-6.47a34.16,34.16,0,0,0-22.72,9.75c-.07.07-1.22,1.22-1.53,1.23a.06.06,0,0,1-.07,0s-.14-.12.43-.93c.28-.41.59-.81.66-.89s0,0,0,0a27.17,27.17,0,0,1,6.12-5.08,38.93,38.93,0,0,1,7.29-3.52,31.68,31.68,0,0,1,26.53,2.18,20.9,20.9,0,0,1,4.8,3.49,31.31,31.31,0,0,1,4.79-.38,4.84,4.84,0,0,1,1.58-2.45,26.4,26.4,0,0,0-6.72-5.17,36.37,36.37,0,0,0-16.31-4.63c-17.14-.74-30.73,6.16-32.53,13.88a8.1,8.1,0,0,0,.7,6.22c-3.71,2.58-4.47,4.43-4.47,8.69s2.11,8.36,6.39,8.86h0v.05c0,.06-1.32,6.52,3.89,10.75s10.86,2.4,13.23,1.58h0a12.34,12.34,0,0,0,4.58,1.4,15.26,15.26,0,0,0,3.1-.45l.71-.15a36.51,36.51,0,0,1,11.53-26.28,12.26,12.26,0,0,0,.35-8.18m18.5.67a3.54,3.54,0,1,0-3.53-3.53,3.54,3.54,0,0,0,3.53,3.53m34-18.11a38.56,38.56,0,0,1,7,1.12c2-1.06,2.73-1.18,5.8-1.15,2.69,0,5.47.06,7.86-2.1a4.14,4.14,0,0,0,1.71-3.36,4.32,4.32,0,0,0-1.94-2.83l-.06,0,0,0a4.46,4.46,0,0,0,1.5-2.78,2.91,2.91,0,0,0-.95-2.18h0c-3-2.64-6,.33-6,.35l0,0,0,0a4.11,4.11,0,0,0-2.78-1.61,4.83,4.83,0,0,0-3.73,1.85c-2.46,2.61-2.44,5.57-2.43,8a6.26,6.26,0,0,1-.42,3.11c-.36.58-.79,1.46-.8,1.47l-.08,0c0-.09.15-8.63.47-10.06a9.39,9.39,0,0,1,2.93-4.46c1.6-1.65,3.26-3.35,3.45-6.47a4.53,4.53,0,0,0-1.2-3.84,4.37,4.37,0,0,0-3.3-.85h-.06v-.06a5,5,0,0,0-.87-3.52,3.14,3.14,0,0,0-2.46-1h0a3.14,3.14,0,0,0-2.46,1,5.1,5.1,0,0,0-.88,3.52v.06h-.06a4.39,4.39,0,0,0-3.31.85,4.53,4.53,0,0,0-1.19,3.84c.18,3.12,1.84,4.82,3.45,6.47,1.28,1.32,2.5,2.57,2.92,4.46.33,1.43.44,9.4.44,9.49h-.08A4.54,4.54,0,0,0,152,117c-.5-.63-.49-1.72-.48-3.1,0-2.23.06-5-2.05-7.38a4.26,4.26,0,0,0-3.29-1.74,4.12,4.12,0,0,0-2.8,1.58l0,0,0,0a4.64,4.64,0,0,0-2.86-1.73,3,3,0,0,0-2.32.94h0a2.83,2.83,0,0,0-1,2.23,4.58,4.58,0,0,0,1.69,2.85l0,0-.06,0a4.06,4.06,0,0,0-1.68,2.7,4.15,4.15,0,0,0,1.7,3.26c2.16,1.92,4.45,1.78,6.66,1.65,3-.18,4.05,0,5,1m-19-5.22-.05,0,0,0a4.84,4.84,0,0,0,1.14-3.28,2.9,2.9,0,0,0-1.39-2h0a3,3,0,0,0-2.44-.52,4.78,4.78,0,0,0-2.52,2.22l0,0-.05,0a3.57,3.57,0,0,0-6,1.25c-1.46,2.51-1.34,5.85-1.25,8.54a14.77,14.77,0,0,1-.08,3.11c0,.2-.69.77-.76.84a.74.74,0,0,0-.25.5h-.08V115c0-.09,0-.18,0-.28a8.43,8.43,0,0,1,.36-2.88c.52-2,2.84-3.42,2.89-3.45,1.4-1.18,3.19-1.53,5.07-1.9,2.28-.44,4.63-.91,6.28-3a3.94,3.94,0,0,0,1-3.24,4.2,4.2,0,0,0-1.95-2.53l-.05,0,0,0a4.9,4.9,0,0,0,1.14-3.28,2.9,2.9,0,0,0-1.39-2h0a3,3,0,0,0-2.44-.52,4.78,4.78,0,0,0-2.52,2.21l0,.06,0-.05a4.41,4.41,0,0,0-3.2-1.09,4.07,4.07,0,0,0-2.77,2.34c-1.45,2.62-1.35,6.55-1.29,9.15a11.72,11.72,0,0,1-.09,2.74c-.06.19-.64.56-.71.61a.68.68,0,0,0-.25.49h-.08l0-9.66a34.67,34.67,0,0,1,.44-4.42c.42-1.88,1.64-3.13,2.93-4.45,1.6-1.65,3.26-3.36,3.45-6.47a4.55,4.55,0,0,0-1.2-3.85,4.34,4.34,0,0,0-3.3-.84H120v-.06a4.73,4.73,0,0,0-.84-3.35,3.13,3.13,0,0,0-2.5-1h-.22a3.15,3.15,0,0,0-2.5,1,4.84,4.84,0,0,0-.84,3.35v.06H113a4.36,4.36,0,0,0-3.31.84,4.52,4.52,0,0,0-1.19,3.85c.18,3.11,1.84,4.82,3.44,6.47,1.29,1.32,2.51,2.57,2.93,4.45a34.67,34.67,0,0,1,.44,4.42l0,9.66h-.09a.72.72,0,0,0-.24-.49c-.08,0-.66-.42-.72-.61a12.31,12.31,0,0,1-.09-2.74c.06-2.6.16-6.53-1.29-9.15A4.07,4.07,0,0,0,110.08,93a4.35,4.35,0,0,0-3.19,1.09l0,.05,0-.06a4.78,4.78,0,0,0-2.52-2.21,3,3,0,0,0-2.44.52h0a2.9,2.9,0,0,0-1.39,2,4.88,4.88,0,0,0,1.15,3.28l0,0,0,0a4.2,4.2,0,0,0-2,2.53,3.92,3.92,0,0,0,1.06,3.24c1.64,2,4,2.52,6.27,3a10.75,10.75,0,0,1,5.08,1.9s2.37,1.49,2.88,3.45a8.16,8.16,0,0,1,.36,2.88,2.72,2.72,0,0,0,0,.28v9.63h-.09a.74.74,0,0,0-.24-.5c-.08-.07-.72-.64-.77-.84a14.77,14.77,0,0,1-.08-3.11c.1-2.69.21-6-1.24-8.54a3.58,3.58,0,0,0-6-1.25l0,0,0,0a4.78,4.78,0,0,0-2.52-2.22,3,3,0,0,0-2.44.52h0a2.9,2.9,0,0,0-1.39,2,4.83,4.83,0,0,0,1.15,3.28l0,0,0,0a4.24,4.24,0,0,0-2,2.53,3.92,3.92,0,0,0,1.06,3.24c1.64,2.06,4,2.52,6.27,3,1.89.38,3.67.72,5.08,1.91,0,0,2.37,1.48,2.88,3.44,0,0,.15.59.24,1.1a4.76,4.76,0,0,1,1.33-.21,4.57,4.57,0,0,1,1.35.22c.09-.51.24-1.1.24-1.11.52-2,2.84-3.41,2.89-3.44,1.4-1.19,3.19-1.53,5.07-1.91,2.28-.44,4.63-.9,6.28-3a3.94,3.94,0,0,0,1-3.24,4.24,4.24,0,0,0-1.95-2.53M121,124.71Zm-8.93,0Zm-7.12,14.59a11.91,11.91,0,0,0,.85-4.68,35,35,0,0,0-6.22,1.55A8.32,8.32,0,0,1,100,139a14,14,0,0,1-.76,4.49,41.89,41.89,0,0,1,5.7-4.15m-22.38-20a38.67,38.67,0,0,0-7,1.12c-2-1.06-2.73-1.18-5.8-1.15-2.69,0-5.47.06-7.86-2.1a4.13,4.13,0,0,1-1.7-3.36A4.28,4.28,0,0,1,62.09,111l.06,0,0,0a4.51,4.51,0,0,1-1.5-2.78,2.88,2.88,0,0,1,1-2.18h0c3-2.64,6,.33,6,.35l0,0,0,0a4.11,4.11,0,0,1,2.77-1.61,4.82,4.82,0,0,1,3.73,1.85c2.46,2.61,2.45,5.57,2.43,8a6.26,6.26,0,0,0,.42,3.11,16.15,16.15,0,0,1,.8,1.47l.09,0c0-.09-.16-8.63-.48-10.06-.42-1.89-1.64-3.14-2.93-4.46-1.6-1.65-3.26-3.35-3.44-6.47a4.5,4.5,0,0,1,1.19-3.84,4.39,4.39,0,0,1,3.31-.85h.06v-.06a5,5,0,0,1,.88-3.52,3.14,3.14,0,0,1,2.46-1h0a3.13,3.13,0,0,1,2.45,1,5,5,0,0,1,.88,3.52v.06h.06a4.38,4.38,0,0,1,3.3.85,4.56,4.56,0,0,1,1.2,3.84c-.18,3.12-1.85,4.82-3.45,6.47A9.39,9.39,0,0,0,80.44,109c-.32,1.43-.44,9.4-.44,9.49h.09A4.09,4.09,0,0,1,81,117c.51-.63.49-1.72.48-3.1,0-2.23-.06-5,2-7.38a4.27,4.27,0,0,1,3.29-1.74,4.12,4.12,0,0,1,2.8,1.58l0,0,0,0a4.64,4.64,0,0,1,2.85-1.73,3,3,0,0,1,2.32.94h0a2.87,2.87,0,0,1,1,2.23,4.62,4.62,0,0,1-1.7,2.85l0,0,0,0a4.06,4.06,0,0,1,1.68,2.7,4.15,4.15,0,0,1-1.7,3.26c-2.15,1.92-4.44,1.78-6.66,1.65-3-.17-4,0-5,1"/><path class="cls-2" d="M208.53,178.28c-1.4.19-1.75.56-2.71,3.57L203.58,189a16.33,16.33,0,0,0-.71,3.64c0,2.61,1.21,4.35,4.38,4.35,4,0,5.94-3.64,7.09-7.43l1.49-4.66c.62-2.08,1.15-4.29,1.28-5,.18-1.06-.1-1.46-1.43-1.65l-.81-.12a.62.62,0,0,1,.12-.88c1.27.07,2.4.1,3.73.1s2.21,0,3.45-.1a.61.61,0,0,1,0,.88l-.81.15a2.52,2.52,0,0,0-2.14,1.4,44.13,44.13,0,0,0-1.81,5.19l-1.52,4.85c-.74,2.33-1.68,4.85-3.57,6.49a9.33,9.33,0,0,1-6.06,2.15c-4.23,0-7-1.65-6.9-5.47a12.73,12.73,0,0,1,.62-3.3l2.42-7.77c.84-2.7.9-3.38-.74-3.6l-.78-.09a.6.6,0,0,1,.19-.88c1.52.07,2.8.1,4.28.1s2.74,0,4.11-.1c.22.19.22.75-.07.88Z"/><path class="cls-2" d="M232.14,187a8.36,8.36,0,0,1-.56,2.46c-.56,1.52-2.05,4.91-2.55,6.15-.15.37-.18.62.07.62a7.29,7.29,0,0,0,2.86-2.11c.37-.06.55.18.55.56-1,1.74-3.54,3.7-6,3.7a1.13,1.13,0,0,1-1.06-1,4.94,4.94,0,0,1,.56-1.83c.81-1.87,1.87-4.45,2.61-6.28a5.94,5.94,0,0,0,.5-1.87c0-.28-.06-.52-.44-.52s-1.86,1-3.29,2.76a47.1,47.1,0,0,0-4.73,8.24,1,1,0,0,1-1,.5c-.56,0-1.65-.19-1.37-1.06.12-.4,3-8.11,3.3-9,.18-.5.25-.94-.13-.94a5.75,5.75,0,0,0-2.67,1.62.49.49,0,0,1-.5-.49,7.1,7.1,0,0,1,5.35-3.27c1.11,0,1.21.93.93,1.62l-1.9,4.81h.12c2-2.76,4.82-6.43,7.5-6.43a1.66,1.66,0,0,1,1.86,1.74"/><path class="cls-2" d="M239.73,180a2.18,2.18,0,0,1,2.11-2.27,1.37,1.37,0,0,1,1.49,1.52,2.19,2.19,0,0,1-2.12,2.27,1.42,1.42,0,0,1-1.48-1.52M238,195.56c-.12.31-.15.59.1.59a8.44,8.44,0,0,0,3.11-2.14.52.52,0,0,1,.52.62c-.87,1.3-3.85,3.69-6.21,3.69a1.22,1.22,0,0,1-1-1,3.15,3.15,0,0,1,.28-1.21l3.45-8.17c.12-.32.12-.5-.06-.5a7.8,7.8,0,0,0-2.67,1.68.5.5,0,0,1-.44-.62c1.68-2,4.32-3.33,5.72-3.33a1.22,1.22,0,0,1,1,.87,2.27,2.27,0,0,1-.35,1.33Z"/><path class="cls-2" d="M244.25,196.37a8,8,0,0,1,.62-2.74l2.09-5.28c.22-.53.19-1-.13-1-.56,0-1.92,1.09-2.76,2.05a.59.59,0,0,1-.56-.55c.9-1.5,3.29-3.64,5.53-3.64a1.44,1.44,0,0,1,1.31,1.8,11,11,0,0,1-.56,1.71l-1.93,5a7,7,0,0,0-.5,1.81.84.84,0,0,0,.87.9c.62,0,1.9-.75,3.11-2.27a10,10,0,0,0,2-5,6.08,6.08,0,0,0-.34-2.33,1.64,1.64,0,0,1,1.62-1.61c1.33.13,1.58,1.31,1.55,2.14,0,2.3-2.45,6.47-5.28,8.74-2.49,2-4,2.24-5,2.24s-1.68-1.25-1.68-2"/><path class="cls-2" d="M262.28,187.57a10.57,10.57,0,0,0-2.24,4,8.17,8.17,0,0,0,3.54-2.11,3.93,3.93,0,0,0,1.15-2.33c0-.41-.18-.78-.59-.78s-1.08.37-1.86,1.24m-6.06,7.37a11.05,11.05,0,0,1,4.41-8.05,7.25,7.25,0,0,1,4.35-1.68,2.36,2.36,0,0,1,2.49,2.14c0,2.8-4.23,4.33-7.68,5.26a6.23,6.23,0,0,0-.28,2c0,1.15.5,1.77,1.37,1.77,1.12,0,2.24-.65,3.67-2a.53.53,0,0,1,.5.62,7.2,7.2,0,0,1-5.91,3.27c-2.05,0-2.92-1.68-2.92-3.39"/><path class="cls-2" d="M273.53,188.44l-1.09,3.2h.18a35.34,35.34,0,0,1,2.77-4.44c1-1.24,1.83-2,2.76-2s1.43.87,1.43,1.74-.71,2.49-1.67,2.49c-.38,0-.5-.35-.62-.9s-.32-.93-.62-.93-1.09.68-2.12,2.38a72,72,0,0,0-3.73,7.84c-.15.37-.56.49-1.05.49s-1.72-.18-1.43-1c.68-2,2.24-6.34,3.1-9.17.16-.49.13-.81-.18-.81-.68,0-1.68.87-2.43,1.75a.5.5,0,0,1-.49-.63c.8-1.4,2.36-3.2,4.28-3.2,1.68,0,1.4,1.8.91,3.23"/><path class="cls-2" d="M278.15,196.31c0-.69.5-1.5,1.18-1.5a1,1,0,0,1,.69.44,3.33,3.33,0,0,0,2.36,1.4,1.19,1.19,0,0,0,1.24-1.12c0-1-1-2.12-1.55-2.86a5.29,5.29,0,0,1-1.31-2.95,4.4,4.4,0,0,1,1.8-3.33,4.73,4.73,0,0,1,2.8-1.18,2.36,2.36,0,0,1,2.49,2.15,1.29,1.29,0,0,1-1,1.3.8.8,0,0,1-.68-.37c-.87-1-1.37-1.34-2.18-1.34a1,1,0,0,0-1.05,1c0,1,1,1.92,1.58,2.67a4.87,4.87,0,0,1,1.34,3.29,4.25,4.25,0,0,1-1.74,3.2,5.46,5.46,0,0,1-3.48,1.24,2.35,2.35,0,0,1-2.49-2"/><path class="cls-2" d="M293.94,180a2.18,2.18,0,0,1,2.11-2.27,1.37,1.37,0,0,1,1.49,1.52,2.19,2.19,0,0,1-2.12,2.27,1.42,1.42,0,0,1-1.48-1.52m-1.75,15.57c-.12.31-.15.59.1.59a8.34,8.34,0,0,0,3.1-2.14.52.52,0,0,1,.53.62c-.87,1.3-3.85,3.69-6.22,3.69a1.22,1.22,0,0,1-1-1,3,3,0,0,1,.28-1.21l3.45-8.17c.12-.32.12-.5-.06-.5a7.91,7.91,0,0,0-2.68,1.68.5.5,0,0,1-.43-.62c1.68-2,4.32-3.33,5.72-3.33a1.22,1.22,0,0,1,1,.87,2.27,2.27,0,0,1-.35,1.33Z"/><path class="cls-2" d="M303.69,187.2l-2.8,8.05c-.19.5-.13.75.19.75.49,0,2.29-1.37,3.41-2.62a.53.53,0,0,1,.5.69c-1.37,2.05-4.41,4.26-6.4,4.26a1.15,1.15,0,0,1-1.12-1.06,5.23,5.23,0,0,1,.37-1.71l2.86-8.36h-2.36a.82.82,0,0,1,.31-1l2.61-.49,2-3a1.4,1.4,0,0,1,.75-.15,1.14,1.14,0,0,1,1,.4l-.87,2.89h2.3a1,1,0,0,1-.24,1.37Z"/><path class="cls-2" d="M312.82,190.68a38.44,38.44,0,0,1-.4,6.47h.12a29.36,29.36,0,0,0,2.74-7,24.67,24.67,0,0,0,.68-3.79c.06-.93.47-1.12.9-1.12a2.42,2.42,0,0,1,1.15.32.86.86,0,0,1,.41.8c0,.68-.94,4.54-3.67,9.26a45.47,45.47,0,0,1-5.28,7.62c-2.21,2.42-4,3-5.23,3a1.88,1.88,0,0,1-2-1.65,1.61,1.61,0,0,1,1.55-1.74c.5,0,.74.25,1.06.66s.65.83,1.08.83a2.59,2.59,0,0,0,1.74-.77,8.35,8.35,0,0,0,1.9-3.73,23.89,23.89,0,0,0,.53-6.84c-.06-3.57-.47-5.34-1.15-5.34s-1.34,1.21-1.9,2.39a.56.56,0,0,1-.81-.31c.59-1.9,2-4.54,4.14-4.54,1.64,0,2.39,2.27,2.45,5.47"/><path class="cls-2" d="M330.5,195.37a17.27,17.27,0,0,0,2.61-7.36c0-.84-.12-1.68-1-1.68-.56,0-1.21.34-2,1.37-1.46,1.89-3.08,5.59-3.08,7.89,0,.93.41,1.62,1.12,1.62s1.43-.5,2.36-1.84m-3.07-8.08a6.51,6.51,0,0,1,4.72-2.08c2.76,0,3.89,1.9,3.82,4.23a10,10,0,0,1-3,6.74,6.75,6.75,0,0,1-4.92,2.14,3.64,3.64,0,0,1-3.85-4.06,10.63,10.63,0,0,1,3.27-7"/><path class="cls-2" d="M344.08,187c-1.06,3.11-2.49,8.77-3.45,11.81a18.94,18.94,0,0,1-2.39,5.29,5.86,5.86,0,0,1-4.23,2.14,2.4,2.4,0,0,1-2.61-2.08,1.34,1.34,0,0,1,1.18-1.46,1.07,1.07,0,0,1,1,.62c.59.93,1.28,1.55,1.81,1.55s.9-.5,1.52-2.64c1.05-3.73,2.55-9.76,4.1-15.23H338.2a1,1,0,0,1,.38-1.36h2.77a21.86,21.86,0,0,1,2.66-6.38c1.56-2.27,3.52-3.6,5.94-3.6,1.93,0,3.11,1.12,3.11,2.39a2,2,0,0,1-1.68,2.12c-.43,0-.62-.19-.68-.62-.25-2.12-1.15-2.77-1.78-2.77s-1.43.77-2.08,2.08a41.31,41.31,0,0,0-2.39,6.78h3.7a1,1,0,0,1-.37,1.36Z"/><path class="cls-2" d="M371.89,177.38c1.4,0,1.83-.19,2.39-.75a.72.72,0,0,1,.78.13,26.46,26.46,0,0,0-1.83,4.84.67.67,0,0,1-1,0c.13-1.27.13-2.26-.46-2.61a4.66,4.66,0,0,0-2.24-.4h-1.71c-.94,0-1,.06-1.31,1.12l-4.25,13.7c-.87,2.71-.94,3.39.71,3.55l1.3.12a.74.74,0,0,1-.18.9c-2-.06-3.33-.09-4.82-.09s-2.73,0-4.44.09c-.25-.18-.25-.77.06-.9l1.24-.15c1.4-.13,1.71-.5,2.67-3.52l4.29-13.7c.35-1.06.32-1.12-.74-1.12h-1.59a5.27,5.27,0,0,0-2.67.53,7.39,7.39,0,0,0-2.39,2.48.7.7,0,0,1-.94-.31,49.36,49.36,0,0,0,2.34-4.66c.12-.18.49-.18.74-.06-.06.62.31.81,2.33.81Z"/><path class="cls-2" d="M366.11,196.31c0-.69.5-1.5,1.18-1.5a1,1,0,0,1,.68.44,3.33,3.33,0,0,0,2.36,1.4,1.19,1.19,0,0,0,1.25-1.12c0-1-1-2.12-1.56-2.86a5.26,5.26,0,0,1-1.3-2.95,4.37,4.37,0,0,1,1.8-3.33,4.7,4.7,0,0,1,2.8-1.18,2.35,2.35,0,0,1,2.48,2.15,1.28,1.28,0,0,1-1,1.3.8.8,0,0,1-.68-.37c-.87-1-1.37-1.34-2.18-1.34a1,1,0,0,0-1.06,1c0,1,1,1.92,1.59,2.67a4.81,4.81,0,0,1,1.33,3.29,4.23,4.23,0,0,1-1.73,3.2,5.48,5.48,0,0,1-3.49,1.24,2.35,2.35,0,0,1-2.48-2"/><path class="cls-2" d="M380.18,188.26c.19-.5.15-.81-.09-.81-.62,0-2,1.21-2.86,2.08-.31-.06-.56-.25-.5-.62,1-1.43,3.64-3.7,5.91-3.7a1.21,1.21,0,0,1,1.18,1.12,3.46,3.46,0,0,1-.19.84l-3.2,8c-.22.55-.1.87.22.87s1.18-.66,2.26-1.68c2.59-2.49,4.64-6.5,5.85-9a2.8,2.8,0,0,1,.93-.12,2,2,0,0,1,1.55.62c-.77,2-2.39,6.09-3.66,9.48-.16.5-.16.84.15.84.56,0,2.18-1.37,3-2.27a.5.5,0,0,1,.57.56c-.87,1.52-3.86,3.88-6,3.88a1,1,0,0,1-.93-1.36l1.92-5h-.06c-2,2.61-5.6,6.37-7.65,6.37a1.5,1.5,0,0,1-1.49-1.48,4.49,4.49,0,0,1,.38-1.53Z"/><path class="cls-2" d="M400.94,190.49c1.24-.83,2.11-1.83,2.11-2.64a.85.85,0,0,0-.93-.84c-1,0-2.33.9-3.79,2.4a8,8,0,0,0-1.62,2.26c0,.19,0,.44.31.44a8.57,8.57,0,0,0,3.92-1.62m5.4-3.26c0,.75-.37,1.83-1.89,3.08a9.83,9.83,0,0,1-4.07,1.86c-.19.07-.19.31-.13.56a16.44,16.44,0,0,0,.9,2.61c.28.59.53.9.9.9s1.25-.68,2.05-1.55a.47.47,0,0,1,.56.44c-.93,1.89-2.67,3.2-4.1,3.2-.74,0-1.33-.5-1.8-1.43a19.43,19.43,0,0,1-1.12-3.23c-.12-.41-.37-.63-.74-.57-.62.07-.81.22-1.19,1.15l-1.43,3.58a1.07,1.07,0,0,1-1,.5c-.56,0-1.68-.19-1.43-1.06l5.84-17.22c.56-1.68.56-2,0-2.27l-.74-.37a.46.46,0,0,1,.06-.62,22.72,22.72,0,0,1,4.78-1.12.32.32,0,0,1,.28.25c-.37,1.12-.8,2.14-1.52,4.26l-3.11,9h.07c1.67-1.74,3.66-4,6.39-4,1.81,0,2.49,1.12,2.49,2"/><path class="cls-2" d="M410.25,188.26c.19-.5.16-.81-.09-.81-.62,0-2,1.21-2.86,2.08-.31-.06-.56-.25-.5-.62,1-1.43,3.64-3.7,5.91-3.7a1.21,1.21,0,0,1,1.18,1.12,3,3,0,0,1-.19.84l-3.2,8c-.22.55-.09.87.22.87s1.18-.66,2.27-1.68c2.58-2.49,4.63-6.5,5.84-9a2.8,2.8,0,0,1,.93-.12,2,2,0,0,1,1.56.62c-.78,2-2.4,6.09-3.67,9.48-.16.5-.16.84.16.84.56,0,2.17-1.37,3-2.27a.5.5,0,0,1,.56.56c-.87,1.52-3.86,3.88-6,3.88a1,1,0,0,1-.93-1.36l1.92-5h-.06c-2,2.61-5.59,6.37-7.64,6.37a1.51,1.51,0,0,1-1.5-1.48,4.49,4.49,0,0,1,.38-1.53Z"/><path class="cls-2" d="M428.49,190.06a10.23,10.23,0,0,0-2.45,5.69c0,1,.43,1.46.87,1.46a5.26,5.26,0,0,0,2.73-2c2.11-2.45,3.92-6,3.92-7.46,0-.78-.44-1.09-.94-1.09-.81,0-2.36,1.09-4.13,3.36m4.82,4.75a10.24,10.24,0,0,1-7.09,3.52,2.76,2.76,0,0,1-3-3,17,17,0,0,1,1.36-5.4l3.83-10.17c.55-1.46.58-1.89.09-2.2l-.74-.5a.46.46,0,0,1,.12-.56,21.27,21.27,0,0,1,4.78-.87.36.36,0,0,1,.22.31c-.59,1.49-1.06,2.61-1.68,4.2L427.37,190h.06c1.87-2.67,4-4.82,6.19-4.82a2.73,2.73,0,0,1,2.92,2.95,10.29,10.29,0,0,1-3.23,6.65"/><path class="cls-2" d="M443.37,188.29a14.4,14.4,0,0,0-3.42,7.45c0,.35.13.63.38.63.5,0,1.8-1.12,3.17-2.49a18.07,18.07,0,0,0,3.42-5.84,1.4,1.4,0,0,0-1.37-1.09c-.69,0-1.18.28-2.18,1.34m5.16-3.58a1.58,1.58,0,0,1,.62-.12,2,2,0,0,1,1.74.74c-.87,2-2.86,7.15-4,10.38-.15.41,0,.56.16.56a7.1,7.1,0,0,0,3.11-2c.25,0,.49.18.49.58-1.36,1.75-3.79,3.48-5.78,3.48a1,1,0,0,1-1-1,3.92,3.92,0,0,1,.31-1.27l1.12-2.95h-.1c-2.17,2.95-5.28,5.21-7.08,5.21a1.75,1.75,0,0,1-1.68-1.86c0-1.21,1.24-4.35,3.64-7.05a14.31,14.31,0,0,1,3.88-3.08,5,5,0,0,1,2.43-.69,2,2,0,0,1,.71.22,2.84,2.84,0,0,1,.65.59Z"/><path class="cls-2" d="M199.55,157.08l2-.39,5-1,3.85-.77V137.43h-2.57c-2.31,0-4.69.13-7,.19l-1.48-2.18c2.83.13,5.72.26,8.61.26h10.59l3.54-4.18,4.75,4c1,.9.83,1.93-.58,1.93H216.11v16.31l2.76-.58c2.89-.64,5.78-1.35,8.61-2,.25-1.86.51-3.79.64-5.72a68.78,68.78,0,0,0,.25-8.22l-.19-4.23-.13-2.25,5.91,2.63h9.25l1.41-2.44c-1.73.71-3.79.64-4.49-1.41-.65-1.74-.65-3.66-1.35-5.4a17.41,17.41,0,0,0-1.74-3h-2.5a45.16,45.16,0,0,1-5,5.53,28.84,28.84,0,0,1-5.14,4c-.64.32-1.15-.14-.7-.78.9-1.22,1.86-2.44,2.76-3.72,1.09-1.67,2.12-3.34,3.15-5.08H215.53c2.51,1.93,5.85,3.92,5.53,7.52s-4.63,4.43-5.59,1.86c-.51-1.54-.45-3.14-.83-4.69a18,18,0,0,0-1.93-4.69h-1.29a40.7,40.7,0,0,1-9.62,10.22c-.14.12-1.87,1.28-1.67.25.06-.57,1.28-1.92,1.6-2.37a53.56,53.56,0,0,0,4.3-7.32,60.56,60.56,0,0,0,3.47-9.31c.39-1.35.64-2.76,1-4.18l6.36,2.76c1.54.65,2.12,2.12.32,2.83l-1.73.64c-.58,1.16-1.23,2.31-1.87,3.47l-.83,1.28h8.47l4-4.75,5.33,4.75a70.91,70.91,0,0,0,3.85-10.85l6.1,3.28c1.6.83,1.6,2.31-.2,2.82l-1.66.52c-.64,1-1.29,2-1.93,3.14l-.77,1.09h13l4.31-4.94,5.58,4.94c.9.78.71,1.73-.57,1.73H240.38c3.6,2.13,6.87,4.37,5.2,8.93l4.43,4.43c1.1,1.16,1.29,2.64-.38,3.21l-.9.26V159c0,.77.13,1.41,1,1.53s2.44.2,3.15-.57a9.59,9.59,0,0,0,1.41-2.89c.44-1.29,1-2.57,1.41-3.85l.9-2.64c.13-.38.32-1.28.83-1.34s.45.44.45.76v.71l-.19,2.89-.19,2.64c-.07.89-.38,2.82.25,3.59,1,1.16,3,2,2.06,3.85-.77,1.48-2.95,1.67-4.43,1.8a52,52,0,0,1-7.71.26c-3.27-.07-4.75-.71-4.75-4.24V135h-9.18c.07,3.15.13,6.23-.06,9.31,4.24,1.22,9.56,3.53,8.47,8.93a2.81,2.81,0,0,1-2.31,2.5c-1.92.26-2.83-1.41-3.21-3l-.84-2.88a8.25,8.25,0,0,0-2.24-3.92,28.57,28.57,0,0,1-2.44,11.3c-2.77,5.91-8.54,9.57-14.58,11.56-.38.13-1.86.71-1.86-.2,0-.51,1.15-1,1.48-1.15,6.29-3.6,9.5-7.9,11-15l-2.31,1.16L220,155.86l-5.26,2.5c-2.31,1-4.69,2-7,3l-.71,1.6c-.32.71-.64,1.48-1.54,1.61s-1.41-.52-1.86-1.16Z"/><path class="cls-2" d="M313.59,140.19a54.11,54.11,0,0,1-7.45,12.4A27.69,27.69,0,0,1,301.2,146a26.74,26.74,0,0,1-2.44-5.78Zm-16.76,0A53,53,0,0,0,299.2,148a38.43,38.43,0,0,0,4.31,7.52,46.38,46.38,0,0,1-5.2,4.75,47.28,47.28,0,0,1-9.63,5.71c-1.48.71-3.09,1.22-4.5,2-.32.2-.7.58-.38,1,.45.58,4.88-.77,5.26-.9a50.32,50.32,0,0,0,17.4-8.86,40.32,40.32,0,0,0,13.87,10.08,15.5,15.5,0,0,1,5.72-6.17,75.61,75.61,0,0,1-9.38-3.21,37,37,0,0,1-6.68-4c1.22-1.48,2.45-2.89,3.6-4.43a64.39,64.39,0,0,0,4.11-6.23l1-1.8,1.34-.19c2.38-.32,2.38-1.67.9-3.34l-4.55-5.14-2.89,3.79h-5.78V124.27h8.73l-.77,1.79c-1,2.25-2.12,4.43-3.21,6.62a2.48,2.48,0,0,0-.45,1.35c.13,1,2.7-1.22,2.7-1.22l2-1.61,2.45-1.86,1.54-1.22,2.37.06c.78,0,1.87,0,2.31-.77s-.19-1.93-.7-2.5l-5.33-6.17-3.08,3.86h-8.54v-8.41l1-.58a2,2,0,0,0,1.21-1.48c.07-.9-.77-1.41-1.54-1.48l-6.87-.64V122.6h-8.15l-7.07-3.47a193.23,193.23,0,0,1,.26,23.82c-.45,7.51-1.73,15.22-6,21.51l-1.8,2.7c-.25.45-.51,1.15.39,1s2.31-1.67,2.82-2.12a28.88,28.88,0,0,0,8.22-12.46,58.81,58.81,0,0,0,2.06-13.42Zm-25.68-27.35c0,.38.57.7.83.9a10.48,10.48,0,0,1,2.83,3.59c1,1.8.77,3.92,1.67,5.65,1,1.93,3.91,1.29,5-.12,2.06-2.51,0-6.17-2.18-7.84a14.91,14.91,0,0,0-7.38-2.63c-.26,0-.77.06-.77.45m2.63,23.82c2.89-1.8,1.67-6.29-.51-8.16a12.68,12.68,0,0,0-7.32-2.63c-.45,0-1.16.26-.58.71a9.8,9.8,0,0,1,3.59,5.26l.9,3.28a2.48,2.48,0,0,0,3.92,1.54m-7.25,13.23c-.71,0-1.42.77-.71,1.35s2.24.51,3.4,1.54,1.6,4,1.41,5.52l-.51,3.91c-.13,1.23-.13,3,.84,4a3.84,3.84,0,0,0,3.72.7c4-1.22,1.54-7.38,1-10a10.54,10.54,0,0,1,.13-6.29l10-27.73c.26-.84-.77-1.42-1.22-.58l-14,27.93a20.24,20.24,0,0,0-4-.32m25.94-25.62h9.11v14.25h-9.11Z"/><path class="cls-2" d="M381.15,123.05l6,4.75c1.22,1,.83,2-.77,2H360.21a62.36,62.36,0,0,0,3.54,9.44,39.12,39.12,0,0,0,7.83,10.59c5.14,5,11.68,8.23,18.3,10.73a16.56,16.56,0,0,0-7.9,5.59,51.88,51.88,0,0,1-9.69-7.52,47.14,47.14,0,0,1-10.79-18,58.31,58.31,0,0,1-2.19-9.18c-.7,5.78-1.73,11.5-4.3,16.83-3.85,7.89-10.53,13.48-18.36,17.14-.58.25-5.72,2.7-6.49,2.06-.51-.46.32-1,.65-1.16a76.63,76.63,0,0,0,9.11-5.91c9.25-7.38,12.65-19.26,13.49-30.63H342.75c-3.73,0-7.39.2-11.11.32l-1.48-2.37L337,128l5.72.13H353.6a149.1,149.1,0,0,0-.39-17.79l7.07.45c1,.07,2,.13,2.31,1.22s-.39,1.54-1.16,1.93l-1.47.77c0,4.5-.07,9-.39,13.42h17.21Z"/><path class="cls-2" d="M421,123.69c-2.83.26-3.41-3.92-4-5.84a14,14,0,0,0-3.6-5.59c-.19-.19-2.12-1.86-.45-1.67a12.82,12.82,0,0,1,3.72,1.28c3,1.23,6,3.22,7.07,6.42.64,2.06-.26,5.21-2.76,5.4m-16.18-1-.71-3a20.16,20.16,0,0,0-1.22-3.21,24.6,24.6,0,0,0-1.29-2.24l-1.09-1.55c-.38-.51-.77-1.35.26-1.09a20.59,20.59,0,0,1,6.35,3.28,8.35,8.35,0,0,1,3.41,6c.13,4.37-4.88,5.46-5.71,1.8m-3.92,5.78c-.07,2.63-.13,5.27-1.61,7.58-1.28,1.86-3.4,3.4-5.71,2.24a3.28,3.28,0,0,1-.65-5.13l2.13-2a10.77,10.77,0,0,0,3.34-7.39c0-.38,0-1.67.7-1s1.28,3.15,1.48,4h27.61c3-5.2,4.81-11,6.29-16.76l6.17,3.53c1.67,1,1.41,1.93-.26,2.64l-1.22.44-1.54,1.81c-1.87,2.18-3.73,4.36-5.65,6.54l-1.55,1.8H441.7l2.76-3.79,4.82,5.91c1.6,1.86,1.6,3.21-1.22,3.27l-2.12.07-1.16.83-2.31,1.61c-.06.06-3.34,2.57-4,2.63-.38,0-.06-.64,0-.83.64-1.42,1.29-2.76,1.93-4.11s1-2.57,1.47-3.92ZM391.1,148l6.75.19,5.84.13h13.87v-7.83l5.91,1.28c1.6-1.41,3.08-2.82,4.55-4.36H409.6l-4.05.12-3.34.07L401,135.44c2.89.06,5.78.26,8.61.26h19.65l3.34-3.41,4.55,4.5c1.54,1.54.71,2.76-1.28,2.69l-1.86-.06-2.57,1.22c-2.7,1.28-5.4,2.51-8.16,3.72v3.92h16.57l4.24-4.88,5.78,4.43c.9.77,1.28,2.25-.26,2.25H423.27v14.45c0,2.11-3.08,3.21-4.62,3.78-1.93.78-3.4.71-3.4-1.6,0-.84-.19-1.09-1-1.41-2.25-.77-4.5-1.48-6.75-2.25-.32-.13-.9-.32-.7-.77s.77-.26,1.09-.26h1.73l2.57.07,2.5.06a4.28,4.28,0,0,0,2.38-.19c.45-.26.45-1,.45-1.42V150.08H403.69c-3.73,0-7.45.19-11.17.32Z"/></svg>