<?xml version="1.0" encoding="utf-8"?>
<!-- Generator: Adobe Illustrator 24.2.1, SVG Export Plug-In . SVG Version: 6.00 Build 0)  -->
<svg version="1.1" xmlns="http://www.w3.org/2000/svg" xmlns:xlink="http://www.w3.org/1999/xlink" x="0px" y="0px"
	 viewBox="0 0 1275 300" style="enable-background:new 0 0 1275 300;" xml:space="preserve">
<style type="text/css">
	.st0{display:none;}
	.st1{display:inline;fill:#663366;}
	.st2{fill:#FFFFFF;}
</style>
<g id="レイヤー_2" class="st0">
	<rect x="-62.5" y="-49.7" class="st1" width="1567.5" height="493.5"/>
</g>
<g id="レイヤー_1">
	<g>
		<path class="st2" d="M94.5,122.1c0,0-0.1-0.1-0.1-0.1c0.2-1.3,0.6-2.6,1.1-3.8c0.7-1,1.5-1.4,2.2-0.9c0.7,0.5,0.7,1.4,0,2.4
			c-0.9,0.9-2,1.7-3.1,2.4C94.6,122.1,94.5,122.1,94.5,122.1 M86.1,122.1c-1.1-0.7-2.2-1.5-3.1-2.4c-0.7-1-0.8-1.9,0-2.4
			c0.8-0.5,1.5-0.2,2.2,0.9c0.5,1.2,0.9,2.5,1.2,3.8c0,0.1,0,0.1-0.1,0.1C86.2,122.1,86.1,122.1,86.1,122.1 M94.5,108.9
			c0,0-0.1-0.1-0.1-0.1c0.2-1.3,0.6-2.6,1.2-3.8c0.7-1,1.5-1.4,2.2-0.9c0.7,0.5,0.7,1.4,0,2.4c-0.9,0.9-2,1.7-3.1,2.4
			C94.6,109,94.6,109,94.5,108.9 M86.1,108.9c-1.1-0.7-2.2-1.5-3.1-2.4c-0.7-1-0.8-1.9,0-2.4s1.5-0.2,2.2,0.9
			c0.5,1.2,0.9,2.5,1.2,3.8c0,0.1,0,0.1-0.1,0.1C86.2,109,86.1,109,86.1,108.9 M116.7,117.8c-1.2-0.5-2.4-1.1-3.5-1.8
			c-0.9-0.9-1.1-1.7-0.5-2.3c0.6-0.6,1.5-0.4,2.3,0.5c0.8,1.1,1.4,2.3,1.8,3.5c0,0.1,0,0.1,0,0.2
			C116.9,117.8,116.8,117.8,116.7,117.8 M124.6,118.2c0-0.1,0-0.1,0-0.2c0.5-1.3,1.3-2.6,2.1-3.7c1-0.9,1.9-1.1,2.6-0.4
			c0.7,0.7,0.4,1.6-0.6,2.5c-1.2,0.8-2.5,1.4-3.9,1.8C124.7,118.3,124.7,118.3,124.6,118.2 M120.7,109.1c-0.1,0-0.1,0-0.1-0.1
			c-0.6-1.3-1-2.7-1.3-4.1c0-1.4,0.5-2.1,1.4-2.1c1,0,1.4,0.8,1.4,2.1c-0.3,1.4-0.7,2.8-1.3,4.1C120.8,109,120.8,109.1,120.7,109.1
			 M64,117.8c1.2-0.5,2.4-1.1,3.5-1.8c0.9-0.9,1.1-1.7,0.5-2.3c-0.6-0.6-1.4-0.4-2.3,0.5c-0.8,1.1-1.4,2.3-1.8,3.5
			c0,0.1,0,0.1,0.1,0.2C63.9,117.8,64,117.8,64,117.8 M56.2,118.2c0-0.1,0-0.1,0-0.2c-0.5-1.3-1.3-2.6-2.1-3.7
			c-1-0.9-1.9-1.1-2.6-0.4s-0.4,1.6,0.6,2.5c1.2,0.8,2.5,1.4,3.9,1.8C56,118.3,56.1,118.3,56.2,118.2 M60.1,109.1
			c0.1,0,0.1,0,0.1-0.1c0.6-1.3,1-2.7,1.3-4.1c0-1.4-0.5-2.1-1.4-2.1s-1.4,0.8-1.4,2.1c0.3,1.4,0.7,2.7,1.3,4
			C60,109,60.1,109,60.1,109.1 M90.2,97c-0.6-1.3-1-2.6-1.3-4c0-1.3,0.5-2.1,1.4-2.1s1.4,0.8,1.4,2.1c-0.3,1.4-0.7,2.7-1.3,4
			c0,0.1-0.1,0.1-0.1,0.1C90.3,97.1,90.2,97,90.2,97z M90,179.7c-0.1-5.7-0.1-13.9-0.2-21.9c-2.7,1-4.6,4.1-4.8,9.4
			c-0.2,3.5,0.4,7,1.7,10.3c0.2,0.4,0.5,1.1,0.3,1.2s-0.6-0.6-0.8-1c-1.5-3.4-2.2-7.1-2.1-10.8c0.1-4.9,1.9-9.5,5.7-10.5
			c0-1.5,0-3,0-4.4c-4.2,1-7.8,4.4-9.2,10c-1,3.6-0.9,7.5,0.3,11c0.2,0.4,0.4,1.2,0.2,1.2c-0.2,0.1-0.5-0.7-0.7-1.1
			c-1.2-2.8-1.6-6.6-0.6-11.5c1.1-5.2,4.4-10.1,9.9-11.1c0-1.6,0-3.1,0-4.6c-6,1.5-10.8,4.9-13,12.3c-1.3,3.9-1.2,8.2,0.2,12.1
			c0.2,0.4,0.4,1.2,0.2,1.2c-0.2,0.1-0.5-0.7-0.7-1.1c-1.5-3.4-1.7-7.9-0.5-12.5c1.6-6.8,6.9-12.1,13.7-13.6c0-1.7,0-3.3,0-4.7
			c-7.2,1.7-12.3,5.4-15.6,12.2c-2.1,4.3-2.8,8.5-1.8,12.3c0.1,0.4,0.3,1.2,0.1,1.2c-0.2,0.1-0.5-0.7-0.6-1.1
			c-1.2-3.5-0.5-8.3,1.5-13c3-6.9,9.1-11.8,16.4-13.3c0-1.3,0-2.4,0-3.2c-0.8-0.1-1.6-0.6-2.2-1.2c-11.3,4-20.5,14.4-20.5,27.2
			c0,3.8,1.5,5.8,5.4,7.6c0,0-0.4,4.2,2.5,6.6c1.9,1.5,4.2,2.4,6.6,2.6l0,0c0.8,3.9,5.1,5.6,8.8,5.6c3.7,0,8-1.8,8.8-5.6l0,0
			c2.4-0.2,4.7-1.1,6.6-2.6c2.9-2.4,2.5-6.6,2.5-6.6c3.8-1.8,5.4-3.8,5.4-7.6c0-12.8-9.3-23.3-20.5-27.2c-0.6,0.6-1.4,1-2.2,1.2
			c0,0.9,0,2,0,3.2c7.3,1.5,13.5,6.4,16.4,13.3c2,4.7,2.7,9.4,1.5,13c-0.1,0.4-0.4,1.2-0.6,1.1c-0.2-0.1,0-0.8,0.1-1.2
			c0.9-3.8,0.2-8-1.8-12.3c-3.3-6.8-8.3-10.5-15.6-12.2c0,1.4,0,3,0,4.7c6.8,1.5,12.2,6.8,13.7,13.6c1.1,4.6,1,9.1-0.5,12.5
			c-0.2,0.4-0.5,1.1-0.7,1.1c-0.2-0.1,0-0.8,0.2-1.2c1.4-3.9,1.5-8.1,0.2-12.1c-2.2-7.4-6.9-10.8-13-12.3c0,1.5,0,3,0,4.6
			c5.5,1,8.8,5.9,9.9,11.1c1,4.8,0.6,8.7-0.6,11.5c-0.2,0.4-0.5,1.1-0.7,1.1c-0.2-0.1,0-0.8,0.2-1.2c1.2-3.6,1.3-7.4,0.3-11
			c-1.4-5.6-5-9-9.2-10c0,1.5,0,2.9,0,4.4c3.8,1,5.6,5.6,5.7,10.5c0.2,3.7-0.5,7.4-2.1,10.8c-0.2,0.4-0.6,1.1-0.8,1
			c-0.2-0.1,0.2-0.8,0.3-1.2c1.3-3.3,1.8-6.8,1.6-10.3c-0.3-5.2-2.2-8.4-4.8-9.4c-0.1,8-0.1,16.2-0.2,21.9c0,1.8-0.1,2.1-0.3,2.1
			c-0.2,0-0.3-0.3-0.3-2.1 M97.8,131.7c-1.1-0.2-2.3-0.3-3.4-0.3c0,0.5-0.1,1-0.3,1.5c1.5,0.6,3,1.2,4.4,2
			C98.1,133.9,97.9,132.8,97.8,131.7 M104.4,139.1c-0.5-1.1-0.7-2.3-0.8-3.6c0-0.8,0.1-1.5,0.4-2.2c-1.6-0.6-3.3-1-5-1.2
			c0,1.3,0.2,2.6,0.7,3.8c1.6,1,3.2,2.1,4.6,3.3 M82.4,135c1.4-0.8,2.9-1.4,4.5-2c-0.2-0.5-0.3-1-0.3-1.5c-1.2,0-2.3,0.1-3.4,0.3
			C83,132.9,82.8,134,82.4,135 M105.5,140.3c5.8,5.5,9.2,13.1,9.3,21.1l0.6,0.1c0.8,0.2,1.7,0.3,2.5,0.4c1.3-0.1,2.5-0.5,3.7-1.1
			l0,0c1.9,0.7,6.4,2.2,10.6-1.3c4.3-3.5,3.1-8.6,3.1-8.6v-0.1l0,0c3.4-0.4,5.1-3.7,5.1-7.1s-0.6-4.9-3.6-7c0.9-1.5,1.1-3.3,0.6-5
			c-1.4-6.2-12.4-11.8-26.2-11.2c-4.6,0.2-9.1,1.5-13.1,3.7c-2,1.1-3.8,2.5-5.4,4.2c0.6,0.5,1.1,1.2,1.3,2c1.3,0,2.6,0.1,3.9,0.3
			c1.1-1.1,2.5-2.1,3.9-2.8c6.5-3.7,14.3-4.3,21.3-1.8c2,0.7,4,1.7,5.9,2.8c1.8,1.1,3.5,2.5,4.9,4.1l0,0c0.1,0.1,0.3,0.4,0.5,0.7
			c0.5,0.7,0.4,0.7,0.3,0.7c0,0,0,0-0.1,0c-0.2,0-1.2-0.9-1.2-1c-4.9-4.8-11.4-7.6-18.3-7.8c-9-0.2-14,3.5-15.8,5.2
			c1.7,0.3,3.4,0.8,5.1,1.4c1.4-0.8,3-1.5,4.5-2c1.4-0.4,2.9-0.7,4.4-0.9c1.8-0.2,3.6-0.1,5.4,0.3c2.4,0.6,4.7,1.5,6.9,2.7
			c1.9,1.1,3.6,2.3,5.3,3.7c1.6,1.4,3.1,3,4.3,4.8l0,0c0.1,0.1,0.3,0.5,0.5,0.9c0.4,0.8,0.4,0.9,0.3,0.9c0,0,0,0-0.1,0
			c-0.2,0-0.6-0.5-0.6-0.5c-0.3-0.5-5.8-8.9-16.4-11.5c-2.8-0.6-5.7-0.6-8.5,0.2c-1.7,0.4-3.3,1.1-4.8,1.9c1.7,0.6,3.3,1.4,4.8,2.3
			c0.7-0.4,1.5-0.7,2.3-0.9c1.5-0.4,3.1-0.4,4.7-0.2c1.6,0.2,3.1,0.7,4.6,1.3c1.4,0.6,2.8,1.4,4,2.4c2.8,2.3,5.1,5.1,6.8,8.3
			c0.1,0.3,0.2,0.6,0.3,0.9c0.2,0.8,0.2,0.9,0.1,0.9c0,0,0,0-0.1,0c-0.1,0-0.5-0.5-1-1.4v0c-3.8-6.7-8.4-10.3-14.6-11.3
			c-2-0.4-4.1-0.1-6,0.7c1.6,1,3.1,2,4.5,3.3c1.1-0.2,2.3-0.2,3.3,0.1c2.3,0.7,4.3,1.9,5.9,3.6c2.2,2.1,3.9,4.8,4.9,7.7
			c0.5,1.3,0.8,2.6,0.9,3.9c0,0,0,1.3-0.2,1.3c0,0,0,0-0.1,0c-0.1-0.1-0.2-0.8-0.2-1c-0.5-4.1-2.4-7.9-5.4-10.7
			c-3.8-3.7-6.8-4-8-3.9l0.2,0.2c0.1,0.1,0.2,0.2,0.2,0.3c4.2,3.9,7.6,9,10.6,15.9c0,0.1,0.3,0.7,0.5,1.4c0.5,1.3,0.4,1.3,0.3,1.4
			c0,0-0.1,0.1-0.7-1.1c-0.3-0.6-0.6-1.2-0.6-1.3c-3.1-6.7-6.8-11.9-11.5-16c0.1,2.5,0.6,4.9,1.4,7.2c1.3,3.9,3.9,7.3,7.2,9.7
			c0.1,0,0.4,0.3,0.8,0.6c0.7,0.6,0.6,0.6,0.6,0.7h0c-0.6-0.2-1.1-0.5-1.6-0.8c-2.2-1.5-4.1-3.5-5.6-5.8c-1.2-1.8-2.2-3.7-2.8-5.8
			c-0.8-2.1-1.1-4.4-0.9-6.7v-0.1c-1.4-1.1-2.8-2.1-4.4-3c-1.9,7.2,4,15.9,8.5,20.5c0,0,0.9,1,0.8,1.2c0,0,0,0-0.1,0
			c-0.2,0-1-0.7-1.1-0.8c-3.3-3.2-6-7.1-7.7-11.3c-1.7-4.3-2.2-7.6-1.4-10.3c-1.6-0.9-3.2-1.7-5-2.3
			C104.6,135.8,104.7,138.1,105.5,140.3 M75.5,133.7c-1.7,0.6-3.4,1.4-5,2.3c0.7,2.8,0.2,6.1-1.5,10.3c-1.7,4.3-4.3,8.1-7.7,11.3
			c-0.1,0.1-0.9,0.8-1.1,0.8c0,0,0,0-0.1,0c-0.2-0.2,0.8-1.2,0.8-1.2c4.5-4.6,10.4-13.3,8.5-20.5c-1.6,0.8-3.1,1.8-4.5,3v0.1
			c0.2,2.3-0.1,4.5-0.9,6.7c-0.7,2.1-1.6,4-2.8,5.8c-1.5,2.3-3.4,4.2-5.6,5.8c-0.5,0.3-1,0.6-1.6,0.8h0c0,0-0.1-0.1,0.6-0.7
			c0.3-0.3,0.7-0.5,0.8-0.6c3.4-2.4,5.9-5.7,7.2-9.7c0.8-2.3,1.3-4.8,1.4-7.2c-4.6,4.1-8.3,9.4-11.4,16c-0.1,0.1-0.3,0.7-0.6,1.3
			c-0.6,1.2-0.7,1.2-0.7,1.1s-0.1-0.1,0.3-1.4c0.2-0.7,0.5-1.3,0.5-1.4c3-6.9,6.4-12,10.6-15.9l0.3-0.3c0.1-0.1,0.2-0.2,0.2-0.2
			c-1.2-0.1-4.2,0.2-8,3.9c-3,2.8-4.9,6.6-5.4,10.7c0,0.2-0.1,0.8-0.2,1c0,0,0,0-0.1,0c-0.2,0-0.2-1.3-0.2-1.3
			c0.1-1.3,0.4-2.7,0.9-3.9c1-2.9,2.7-5.5,4.9-7.6c1.6-1.7,3.7-2.9,5.9-3.6c1.1-0.3,2.2-0.3,3.3-0.1c1.4-1.2,2.9-2.3,4.5-3.3
			c-1.9-0.8-4-1.1-6-0.7c-6.2,0.9-10.8,4.5-14.6,11.3v0c-0.5,0.9-0.8,1.4-1,1.4c0,0,0,0-0.1,0c0,0-0.1-0.1,0.1-0.9
			c0.1-0.3,0.2-0.6,0.3-0.9c1.7-3.1,3.9-5.9,6.7-8.2c1.2-1,2.6-1.8,4-2.4c1.5-0.6,3-1.1,4.6-1.3c1.6-0.2,3.2-0.2,4.7,0.2
			c0.8,0.2,1.6,0.5,2.3,0.9c1.5-0.9,3.2-1.6,4.8-2.3c-1.5-0.8-3.1-1.5-4.8-1.9c-2.8-0.8-5.7-0.8-8.5-0.2
			c-10.6,2.6-16.1,11-16.4,11.5c0,0-0.4,0.5-0.7,0.5c0,0,0,0-0.1,0c0,0-0.1-0.1,0.3-0.9c0.2-0.4,0.5-0.8,0.5-0.9c0-0.1,0,0,0,0
			c1.2-1.8,2.7-3.4,4.3-4.8c1.6-1.4,3.4-2.7,5.3-3.7c2.2-1.2,4.5-2.1,6.9-2.7c1.8-0.4,3.6-0.5,5.4-0.3c1.5,0.1,3,0.4,4.5,0.9
			c1.6,0.5,3.2,1.1,4.6,2c1.6-0.6,3.3-1,5.1-1.4c-1.8-1.7-6.7-5.4-15.8-5.2c-6.9,0.2-13.4,3-18.3,7.8c-0.1,0.1-1,1-1.2,1
			c0,0,0,0-0.1,0c0,0-0.1-0.1,0.3-0.7c0.2-0.3,0.5-0.7,0.5-0.7c0.1-0.1,0,0,0,0c1.4-1.6,3.1-3,4.9-4.1c1.9-1.1,3.8-2.1,5.9-2.8
			c7-2.6,14.8-1.9,21.3,1.8c1.4,0.7,2.7,1.7,3.9,2.8c1.3-0.2,2.6-0.3,3.9-0.3c0.2-0.8,0.7-1.5,1.3-2c-1.6-1.7-3.4-3.1-5.4-4.2
			c-4-2.3-8.5-3.5-13.1-3.7c-13.8-0.6-24.7,5-26.2,11.2c-0.5,1.7-0.3,3.5,0.6,5c-3,2.1-3.6,3.6-3.6,7c0,3.4,1.7,6.7,5.1,7.1l0,0v0
			c0,0-1.1,5.2,3.1,8.6c4.2,3.4,8.7,1.9,10.6,1.3l0,0c1.1,0.6,2.4,1,3.7,1.1c0.8,0,1.7-0.2,2.5-0.4l0.6-0.1c0.1-8,3.4-15.7,9.3-21.1
			C75.9,138.2,76,135.9,75.5,133.7 M90.3,134.3c1.6,0,2.9-1.3,2.9-2.8c0-1.6-1.3-2.9-2.8-2.9c-1.6,0-2.9,1.3-2.9,2.8c0,0,0,0,0,0
			C87.4,133,88.7,134.3,90.3,134.3 M117.6,119.7c1.9,0.1,3.8,0.4,5.6,0.9c1.6-0.9,2.2-0.9,4.7-0.9c2.2,0,4.4,0,6.3-1.7
			c0.9-0.6,1.4-1.6,1.4-2.7c-0.2-0.9-0.7-1.8-1.6-2.3h0l0,0c0.7-0.6,1.1-1.4,1.2-2.2c0-0.7-0.3-1.3-0.8-1.8l0,0
			c-2.4-2.1-4.8,0.3-4.8,0.3l0,0l0,0c-0.5-0.7-1.3-1.2-2.2-1.3c-1.2,0-2.3,0.6-3,1.5c-2,2.1-2,4.5-2,6.4c0.1,0.8,0,1.7-0.3,2.5
			c-0.3,0.5-0.6,1.2-0.6,1.2h-0.1c0-0.1,0.1-6.9,0.4-8.1c0.4-1.4,1.2-2.6,2.4-3.6c1.3-1.3,2.6-2.7,2.8-5.2c0.2-1.1-0.2-2.3-1-3.1
			c-0.8-0.6-1.7-0.8-2.7-0.7h0v0c0.1-1-0.1-2-0.7-2.8c-0.5-0.5-1.2-0.8-2-0.8l0,0c-0.7,0-1.5,0.3-2,0.8c-0.6,0.8-0.8,1.8-0.7,2.8v0
			h0c-0.9-0.1-1.9,0.1-2.7,0.7c-0.8,0.8-1.1,2-1,3.1c0.1,2.5,1.5,3.9,2.8,5.2c1,1.1,2,2.1,2.3,3.6c0.3,1.2,0.4,7.6,0.4,7.6h-0.1
			c-0.1-0.5-0.4-1-0.7-1.4c-0.4-0.5-0.4-1.4-0.4-2.5c0-1.8,0-4-1.6-5.9c-0.6-0.8-1.6-1.4-2.6-1.4c-0.9,0.1-1.7,0.6-2.3,1.3l0,0l0,0
			c-0.6-0.7-1.4-1.2-2.3-1.4c-0.7,0-1.4,0.2-1.9,0.8l0,0c-0.5,0.4-0.8,1.1-0.8,1.8c0.2,0.9,0.6,1.7,1.4,2.3l0,0h0
			c-0.7,0.5-1.2,1.3-1.4,2.2c0,1,0.5,2,1.4,2.6c1.7,1.5,3.6,1.4,5.4,1.3C116.1,118.7,116.9,118.8,117.6,119.7 M102.4,115.4
			L102.4,115.4L102.4,115.4c0.6-0.7,0.9-1.7,0.9-2.6c-0.1-0.7-0.5-1.3-1.1-1.6l0,0c-0.6-0.4-1.3-0.6-2-0.4c-0.9,0.3-1.6,1-2,1.8l0,0
			h0c-1.1-1.2-2.9-1.2-4.1-0.2c-0.3,0.3-0.6,0.7-0.8,1.2c-1.2,2-1.1,4.7-1,6.9c0.1,0.8,0,1.7-0.1,2.5c0,0.2-0.6,0.6-0.6,0.7
			c-0.1,0.1-0.2,0.2-0.2,0.4h-0.1v-7.8c0-0.1,0-0.1,0-0.2c0-0.8,0.1-1.6,0.3-2.3c0.4-1.6,2.3-2.8,2.3-2.8c1.1-0.9,2.6-1.2,4.1-1.5
			c1.8-0.4,3.7-0.7,5.1-2.4c0.6-0.7,0.9-1.7,0.8-2.6c-0.2-0.9-0.8-1.6-1.6-2h0l0,0c0.6-0.7,0.9-1.7,0.9-2.6
			c-0.1-0.7-0.5-1.3-1.1-1.6l0,0c-0.6-0.4-1.3-0.6-2-0.4c-0.9,0.3-1.6,1-2,1.8v0v0c-0.7-0.6-1.6-0.9-2.6-0.9c-1,0.2-1.8,0.9-2.2,1.9
			c-1.2,2.1-1.1,5.3-1,7.4c0.1,0.7,0,1.5-0.1,2.2c0,0.2-0.5,0.5-0.6,0.5c-0.1,0.1-0.2,0.2-0.2,0.4h-0.1v-7.8c0-1.2,0.2-2.4,0.4-3.6
			c0.3-1.5,1.3-2.5,2.4-3.6c1.3-1.3,2.6-2.7,2.8-5.2c0.2-1.1-0.2-2.3-1-3.1c-0.8-0.6-1.7-0.8-2.7-0.7h-0.1v0c0.1-1-0.1-1.9-0.7-2.7
			c-0.5-0.6-1.3-0.9-2-0.8h-0.2c-0.8,0-1.5,0.2-2,0.8c-0.5,0.8-0.8,1.7-0.7,2.7v0h-0.1c-0.9-0.1-1.9,0.1-2.7,0.7
			c-0.8,0.8-1.1,2-1,3.1c0.1,2.5,1.5,3.9,2.8,5.2c1,1.1,2,2.1,2.4,3.6c0.2,1.2,0.3,2.4,0.4,3.6v7.8h-0.1c0-0.2-0.1-0.3-0.2-0.4
			c-0.1,0-0.5-0.3-0.6-0.5c-0.1-0.7-0.1-1.5-0.1-2.2c0-2.1,0.1-5.3-1-7.4c-0.4-1-1.2-1.7-2.3-1.9c-0.9-0.1-1.9,0.3-2.6,0.9v0v0
			c-0.4-0.8-1.2-1.4-2-1.8c-0.7-0.2-1.4,0-2,0.4l0,0c-0.6,0.3-1,0.9-1.1,1.6c0,1,0.3,1.9,0.9,2.6l0,0l0,0c-0.8,0.4-1.4,1.2-1.6,2
			c-0.1,1,0.2,1.9,0.9,2.6c1.3,1.6,3.2,2,5,2.4c1.5,0.2,2.9,0.7,4.1,1.5c0,0,1.9,1.2,2.3,2.8c0.2,0.7,0.3,1.5,0.3,2.3
			c0,0.1,0,0.2,0,0.2v7.7h-0.1c0-0.2-0.1-0.3-0.2-0.4c-0.1-0.1-0.6-0.5-0.6-0.7c-0.1-0.8-0.1-1.7-0.1-2.5c0.1-2.2,0.2-4.8-1-6.9
			c-0.5-1.5-2.2-2.3-3.7-1.8c-0.4,0.2-0.8,0.4-1.2,0.8l0,0l0,0c-0.4-0.8-1.2-1.5-2-1.8c-0.7-0.2-1.4,0-2,0.4l0,0
			c-0.6,0.3-1,0.9-1.1,1.6c0,1,0.3,1.9,0.9,2.6l0,0l0,0c-0.8,0.4-1.4,1.2-1.6,2c-0.1,1,0.2,1.9,0.9,2.6c1.3,1.7,3.2,2,5,2.4
			c1.5,0.3,3,0.6,4.1,1.5c0,0,1.9,1.2,2.3,2.8c0,0,0.1,0.5,0.2,0.9c0.3-0.1,0.7-0.2,1.1-0.2c0.4,0,0.7,0.1,1.1,0.2
			c0.1-0.4,0.2-0.9,0.2-0.9c0.4-1.6,2.3-2.7,2.3-2.8c1.1-1,2.6-1.2,4.1-1.5c1.8-0.4,3.7-0.7,5.1-2.4c0.6-0.7,0.9-1.7,0.8-2.6
			C103.7,116.5,103.1,115.8,102.4,115.4L102.4,115.4z M81,135.7c0.5-1.2,0.7-2.5,0.7-3.8c-1.7,0.3-3.4,0.7-5,1.2
			c0.2,0.7,0.4,1.5,0.3,2.3c0,1.2-0.2,2.4-0.6,3.6C77.9,137.9,79.4,136.7,81,135.7 M63,119.7c-1.9,0.1-3.8,0.4-5.6,0.9
			c-1.6-0.9-2.2-0.9-4.7-0.9c-2.2,0-4.4,0-6.3-1.7c-0.9-0.6-1.4-1.6-1.4-2.7c0.2-0.9,0.7-1.8,1.5-2.3h0l0,0
			c-0.7-0.6-1.1-1.4-1.2-2.2c0-0.7,0.3-1.3,0.8-1.8l0,0c2.4-2.1,4.8,0.3,4.8,0.3l0,0l0,0c0.5-0.7,1.3-1.2,2.2-1.3
			c1.2,0,2.3,0.6,3,1.5c2,2.1,2,4.5,2,6.4c-0.1,0.8,0,1.7,0.3,2.5c0.2,0.4,0.4,0.8,0.6,1.2h0.1c0-0.1-0.1-6.9-0.4-8.1
			c-0.3-1.5-1.3-2.5-2.4-3.6c-1.3-1.3-2.6-2.7-2.8-5.2c-0.2-1.1,0.2-2.3,1-3.1c0.8-0.6,1.7-0.8,2.7-0.7h0v0c-0.1-1,0.1-2,0.7-2.8
			c0.5-0.5,1.2-0.8,2-0.8l0,0c0.7,0,1.5,0.3,2,0.8c0.6,0.8,0.8,1.8,0.7,2.8v0h0c0.9-0.1,1.9,0.1,2.7,0.7c0.8,0.8,1.1,2,1,3.1
			c-0.1,2.5-1.5,3.9-2.8,5.2c-1.1,0.9-1.9,2.1-2.4,3.5c-0.3,1.2-0.4,7.6-0.4,7.6H61c0.2-0.4,0.4-0.9,0.7-1.2
			c0.4-0.5,0.4-1.4,0.4-2.5c0-1.8,0-4,1.6-5.9c0.6-0.8,1.6-1.4,2.6-1.4c0.9,0.1,1.7,0.6,2.3,1.3l0,0l0,0c0.6-0.7,1.4-1.2,2.3-1.4
			c0.7,0,1.4,0.2,1.9,0.8l0,0c0.5,0.4,0.8,1.1,0.8,1.8c-0.2,0.9-0.6,1.7-1.4,2.3l0,0l0,0c0.7,0.5,1.2,1.3,1.4,2.2c0,1-0.5,2-1.4,2.6
			c-1.7,1.5-3.6,1.4-5.4,1.3c-2.4-0.1-3.2,0-4,0.8"/>
		<path class="st2" d="M164.4,167.1c-1.1,0.2-1.4,0.5-2.2,2.9l-1.8,5.8c-0.3,1-0.5,1.9-0.6,2.9c0,2.1,1,3.5,3.5,3.5
			c3.2,0,4.8-2.9,5.7-6l1.2-3.7c0.5-1.7,0.9-3.5,1-4c0.1-0.9-0.1-1.2-1.2-1.3l-0.7-0.1c-0.2-0.2-0.1-0.5,0.1-0.7c0,0,0,0,0,0
			c1,0.1,1.9,0.1,3,0.1c1.1,0,1.8,0,2.8-0.1c0.2,0.2,0.2,0.5,0,0.7c0,0,0,0,0,0l-0.7,0.1c-0.7,0-1.4,0.5-1.7,1.1
			c-0.6,1.4-1.1,2.8-1.5,4.2l-1.2,3.9c-0.6,1.9-1.4,3.9-2.9,5.2c-1.4,1.1-3.1,1.7-4.9,1.7c-3.4,0-5.6-1.3-5.6-4.4
			c0-0.9,0.2-1.8,0.5-2.7l1.9-6.3c0.7-2.2,0.7-2.7-0.6-2.9l-0.6-0.1c-0.2-0.2-0.1-0.5,0.1-0.7c0,0,0,0,0.1,0
			c1.2,0.1,2.3,0.1,3.4,0.1c1.2,0,2.2,0,3.3-0.1c0.2,0.2,0.2,0.6-0.1,0.7L164.4,167.1z"/>
		<path class="st2" d="M183.4,174.1c0,0.7-0.2,1.3-0.5,2c-0.5,1.2-1.6,3.9-2.1,4.9c-0.1,0.3-0.1,0.5,0.1,0.5c0.9-0.4,1.7-1,2.3-1.7
			c0.3,0,0.4,0.1,0.4,0.5c-0.8,1.4-2.8,3-4.8,3c-0.4,0-0.8-0.4-0.9-0.8c0.1-0.5,0.2-1,0.5-1.5c0.7-1.5,1.5-3.6,2.1-5.1
			c0.2-0.5,0.4-1,0.4-1.5c0-0.2,0-0.4-0.4-0.4c-0.3,0-1.5,0.8-2.6,2.2c-1.5,2.1-2.8,4.3-3.8,6.6c-0.2,0.3-0.5,0.4-0.8,0.4
			c-0.5,0-1.3-0.2-1.1-0.9c0.1-0.3,2.4-6.5,2.7-7.2c0.1-0.4,0.2-0.8-0.1-0.8c-0.8,0.2-1.6,0.7-2.1,1.3c-0.2,0-0.4-0.2-0.4-0.4
			c0,0,0,0,0,0c0.9-1.5,2.5-2.5,4.3-2.6c0.9,0,1,0.7,0.7,1.3l-1.5,3.9h0.1c1.6-2.2,3.9-5.2,6-5.2c0.7-0.1,1.4,0.4,1.5,1.2
			C183.4,173.9,183.4,174,183.4,174.1"/>
		<path class="st2" d="M189.5,168.5c0-1,0.7-1.8,1.7-1.8c0,0,0,0,0,0c0.6-0.1,1.1,0.4,1.2,1c0,0.1,0,0.2,0,0.2c0,1-0.7,1.8-1.7,1.8
			c0,0,0,0,0,0c-0.6,0-1.2-0.5-1.2-1.1C189.5,168.6,189.5,168.5,189.5,168.5 M188.1,181c-0.1,0.2-0.1,0.5,0.1,0.5
			c1-0.4,1.8-1,2.5-1.7c0.2,0,0.4,0.2,0.4,0.4c0,0,0,0.1,0,0.1c-0.7,1-3.1,3-5,3c-0.4-0.1-0.7-0.4-0.8-0.8c0-0.3,0.1-0.7,0.2-1
			l2.8-6.6c0.1-0.3,0.1-0.4,0-0.4c-0.8,0.3-1.5,0.8-2.1,1.4c-0.2,0-0.4-0.2-0.4-0.4c0,0,0,0,0-0.1c1.4-1.6,3.5-2.7,4.6-2.7
			c0.4,0.1,0.7,0.3,0.8,0.7c0,0.4-0.1,0.8-0.3,1.1L188.1,181z"/>
		<path class="st2" d="M193.1,181.6c0-0.8,0.2-1.5,0.5-2.2l1.7-4.2c0.2-0.4,0.2-0.8-0.1-0.8c-0.5,0-1.5,0.9-2.2,1.6
			c-0.2,0-0.4-0.2-0.5-0.4c0.7-1.2,2.6-2.9,4.4-2.9c0.6,0,1.1,0.6,1.1,1.2c0,0.1,0,0.2,0,0.2c-0.1,0.5-0.3,0.9-0.5,1.4l-1.6,4
			c-0.2,0.5-0.3,1-0.4,1.5c0,0.4,0.3,0.7,0.6,0.7c0,0,0,0,0.1,0c0.5,0,1.5-0.6,2.5-1.8c0.9-1.2,1.5-2.6,1.6-4c0-0.6-0.1-1.3-0.3-1.9
			c0-0.7,0.6-1.3,1.3-1.3c1.1,0.1,1.3,1.1,1.2,1.7c0,1.9-2,5.2-4.2,7c-2,1.6-3.2,1.8-4,1.8C193.6,183.2,193.1,182.2,193.1,181.6"/>
		<path class="st2" d="M207.6,174.6c-0.8,0.9-1.4,2-1.8,3.2c1.1-0.3,2.1-0.9,2.8-1.7c0.5-0.5,0.8-1.2,0.9-1.9c0-0.3-0.1-0.6-0.5-0.6
			S208.2,173.9,207.6,174.6 M202.7,180.5c0.2-2.6,1.5-4.9,3.5-6.5c1-0.8,2.2-1.3,3.5-1.4c1-0.1,1.9,0.7,2,1.7c0,2.3-3.4,3.5-6.2,4.2
			c-0.2,0.5-0.2,1.1-0.2,1.6c0,0.9,0.4,1.4,1.1,1.4c0.9,0,1.8-0.5,3-1.6c0.2,0,0.4,0.2,0.4,0.4c0,0,0,0,0,0.1
			c-1,1.6-2.8,2.6-4.8,2.6C203.4,183.2,202.7,181.8,202.7,180.5"/>
		<path class="st2" d="M216.7,175.3l-0.9,2.6h0.1c0.7-1.2,1.4-2.4,2.2-3.6c0.8-1,1.5-1.6,2.2-1.6c0.7,0,1.2,0.7,1.2,1.4
			c0,0.7-0.6,2-1.3,2c-0.3,0-0.4-0.3-0.5-0.7s-0.3-0.7-0.5-0.7s-0.9,0.5-1.7,1.9c-1.1,2-2.1,4.1-3,6.3c-0.1,0.3-0.5,0.4-0.8,0.4
			s-1.4-0.1-1.2-0.8c0.5-1.6,1.8-5.1,2.5-7.4c0.1-0.4,0.1-0.7-0.1-0.7c-0.5,0-1.4,0.7-2,1.4c-0.2,0-0.4-0.2-0.4-0.4c0,0,0-0.1,0-0.1
			c0.6-1.1,1.9-2.6,3.4-2.6C217.3,172.7,217.1,174.1,216.7,175.3"/>
		<path class="st2" d="M220.4,181.6c0-0.6,0.4-1.2,0.9-1.2c0.2,0,0.4,0.2,0.6,0.4c0.4,0.6,1.1,1,1.9,1.1c0.5,0,1-0.4,1-0.9
			c0-0.8-0.8-1.7-1.2-2.3c-0.6-0.7-1-1.5-1.1-2.4c0.1-1.1,0.6-2,1.4-2.7c0.6-0.6,1.4-0.9,2.3-0.9c1-0.1,1.9,0.7,2,1.7
			c0,0.5-0.3,0.9-0.8,1c-0.2,0-0.4-0.1-0.5-0.3c-0.7-0.8-1.1-1.1-1.8-1.1c-0.4,0-0.8,0.3-0.8,0.8c0,0,0,0,0,0c0,0.8,0.8,1.5,1.3,2.1
			c0.7,0.7,1.1,1.7,1.1,2.6c-0.1,1-0.6,2-1.4,2.6c-0.8,0.6-1.8,1-2.8,1C221.4,183.3,220.5,182.6,220.4,181.6"/>
		<path class="st2" d="M233.1,168.5c0-1,0.7-1.8,1.7-1.8c0,0,0,0,0,0c0.6-0.1,1.1,0.4,1.2,1c0,0.1,0,0.2,0,0.2c0,1-0.7,1.8-1.7,1.8
			c0,0,0,0,0,0c-0.6,0-1.2-0.5-1.2-1.1C233.1,168.6,233.1,168.5,233.1,168.5 M231.7,181c-0.1,0.2-0.1,0.5,0.1,0.5
			c1-0.4,1.8-1,2.5-1.7c0.2,0,0.4,0.2,0.4,0.4c0,0,0,0.1,0,0.1c-0.7,1-3.1,3-5,3c-0.4-0.1-0.7-0.4-0.8-0.8c0-0.3,0.1-0.7,0.2-1
			l2.8-6.6c0.1-0.3,0.1-0.4,0-0.4c-0.8,0.3-1.5,0.8-2.2,1.4c-0.2,0-0.4-0.2-0.4-0.4c0,0,0,0,0-0.1c1.4-1.6,3.5-2.7,4.6-2.7
			c0.4,0.1,0.7,0.3,0.8,0.7c0,0.4-0.1,0.8-0.3,1.1L231.7,181z"/>
		<path class="st2" d="M240.9,174.3l-2.3,6.5c-0.2,0.4-0.1,0.6,0.2,0.6c0.4,0,1.8-1.1,2.7-2.1c0.2,0,0.4,0.2,0.4,0.4
			c0,0,0,0.1,0,0.1c-1.1,1.6-3.5,3.4-5.1,3.4c-0.5,0-0.9-0.4-0.9-0.9c0-0.5,0.1-0.9,0.3-1.4l2.3-6.7h-1.9c-0.1-0.3,0-0.6,0.2-0.8
			l2.1-0.4l1.6-2.4c0.2-0.1,0.4-0.1,0.6-0.1c0.3,0,0.6,0.1,0.8,0.3l-0.7,2.3h1.9c0.2,0.4,0.2,0.8-0.2,1.1L240.9,174.3z"/>
		<path class="st2" d="M248.3,177.1c0,1.7-0.1,3.5-0.3,5.2h0.1c1-1.8,1.7-3.7,2.2-5.6c0.3-1,0.4-2,0.5-3c0-0.7,0.4-0.9,0.7-0.9
			c0.3,0,0.6,0.1,0.9,0.3c0.2,0.1,0.3,0.4,0.3,0.6c0,0.5-0.8,3.7-3,7.4c-1.2,2.2-2.6,4.2-4.2,6.1c-1.8,1.9-3.2,2.4-4.2,2.4
			c-0.8,0.1-1.5-0.5-1.6-1.3c-0.1-0.7,0.5-1.3,1.2-1.4c0,0,0,0,0.1,0c0.4,0,0.6,0.2,0.9,0.5c0.3,0.3,0.5,0.7,0.9,0.7
			c0.5,0,1-0.2,1.4-0.6c0.8-0.9,1.3-1.9,1.5-3c0.4-1.8,0.5-3.7,0.4-5.5c0-2.9-0.4-4.3-0.9-4.3c-0.5,0-1.1,1-1.5,1.9
			c-0.2,0.1-0.5,0-0.6-0.2c0,0,0-0.1,0-0.1c0.5-1.5,1.6-3.7,3.3-3.7C247.6,172.7,248.2,174.5,248.3,177.1"/>
		<path class="st2" d="M262.5,180.8c1.1-1.8,1.9-3.8,2.1-5.9c0-0.7-0.1-1.4-0.8-1.4c-0.5,0-1,0.3-1.6,1.1c-1.2,1.5-2.5,4.5-2.5,6.3
			c0,0.7,0.3,1.3,0.9,1.3S261.7,181.9,262.5,180.8 M260,174.3c1-1.1,2.4-1.7,3.8-1.7c2.2,0,3.1,1.5,3.1,3.4c-0.1,2-0.9,4-2.4,5.4
			c-1,1.1-2.5,1.7-4,1.7c-1.6,0.1-3-1.1-3.1-2.7c0-0.2,0-0.4,0-0.5C257.6,177.8,258.5,175.8,260,174.3"/>
		<path class="st2" d="M273.4,174.1c-0.9,2.5-2,7.1-2.8,9.5c-0.4,1.5-1.1,2.9-1.9,4.3c-0.8,1-2.1,1.7-3.4,1.7c-1,0.1-2-0.6-2.1-1.7
			c-0.1-0.6,0.4-1.1,0.9-1.2c0.3,0,0.7,0.2,0.8,0.5c0.5,0.7,1,1.2,1.5,1.2s0.7-0.4,1.2-2.1c0.8-3,2.1-7.9,3.3-12.3h-2.3
			c-0.2-0.4-0.1-0.9,0.3-1.1h2.2c0.4-1.8,1.2-3.5,2.1-5.1c1.3-1.8,2.8-2.9,4.8-2.9c1.6,0,2.5,0.9,2.5,1.9c0.1,0.8-0.5,1.6-1.4,1.7
			c-0.3,0-0.5-0.2-0.5-0.5c-0.2-1.7-0.9-2.2-1.4-2.2s-1.2,0.6-1.7,1.7c-0.8,1.8-1.4,3.6-1.9,5.5h3c0.2,0.4,0.1,0.9-0.3,1.1
			L273.4,174.1z"/>
		<path class="st2" d="M295.8,166.4c1.1,0,1.5-0.2,1.9-0.6c0.2-0.1,0.5-0.1,0.6,0.1c-0.6,1.2-1.1,2.6-1.5,3.9
			c-0.2,0.2-0.5,0.2-0.8,0c0,0,0,0,0,0c0.1-1,0.1-1.8-0.4-2.1c-0.6-0.3-1.2-0.4-1.8-0.3h-1.4c-0.8,0-0.8,0-1.1,0.9l-3.4,11
			c-0.7,2.2-0.8,2.7,0.6,2.9l1,0.1c0.1,0.2,0.1,0.5-0.1,0.7c-1.6,0-2.7-0.1-3.9-0.1c-1.2,0-2.2,0-3.6,0.1c-0.2-0.1-0.2-0.6,0-0.7
			l1-0.1c1.1-0.1,1.4-0.4,2.1-2.8l3.5-11c0.3-0.9,0.3-0.9-0.6-0.9h-1.3c-0.7,0-1.5,0.1-2.1,0.4c-0.8,0.5-1.4,1.2-1.9,2
			c-0.3,0.1-0.6,0-0.8-0.2c0.7-1.2,1.3-2.5,1.9-3.7c0.1-0.1,0.4-0.1,0.6,0c0,0.5,0.2,0.7,1.9,0.7H295.8z"/>
		<path class="st2" d="M291.1,181.6c0-0.6,0.4-1.2,0.9-1.2c0.2,0,0.4,0.2,0.5,0.4c0.4,0.6,1.1,1,1.9,1.1c0.5,0,1-0.4,1-0.9
			c0-0.8-0.8-1.7-1.3-2.3c-0.6-0.7-1-1.5-1-2.4c0.1-1.1,0.6-2.1,1.4-2.7c0.6-0.6,1.4-0.9,2.3-0.9c1-0.1,1.9,0.7,2,1.7
			c0,0.5-0.3,0.9-0.8,1c-0.2,0-0.4-0.1-0.5-0.3c-0.7-0.8-1.1-1.1-1.8-1.1c-0.4,0-0.8,0.3-0.9,0.8c0,0,0,0,0,0c0,0.8,0.8,1.5,1.3,2.1
			c0.7,0.7,1.1,1.7,1.1,2.6c-0.1,1-0.6,2-1.4,2.6c-0.8,0.6-1.8,1-2.8,1C292.1,183.3,291.3,182.6,291.1,181.6"/>
		<path class="st2" d="M302.5,175.1c0.2-0.4,0.1-0.7-0.1-0.7c-0.5,0-1.6,1-2.3,1.7c-0.2,0-0.5-0.2-0.4-0.5c0.8-1.2,2.9-3,4.8-3
			c0.5,0,0.9,0.4,0.9,0.9c0,0.2-0.1,0.5-0.2,0.7l-2.6,6.4c-0.2,0.4-0.1,0.7,0.2,0.7c0.3,0,0.9-0.5,1.8-1.4c2.1-2,3.7-5.2,4.7-7.2
			c0.2-0.1,0.5-0.1,0.7-0.1c0.5,0,0.9,0.2,1.2,0.5c-0.6,1.6-1.9,4.9-2.9,7.6c-0.1,0.4-0.1,0.7,0.1,0.7c0.5,0,1.8-1.1,2.4-1.8
			c0.2,0,0.4,0.1,0.5,0.3c0,0,0,0.1,0,0.1c-0.7,1.2-3.1,3.1-4.8,3.1c-0.4,0-0.8-0.4-0.8-0.8c0-0.1,0-0.2,0.1-0.3l1.5-4h0
			c-1.6,2.1-4.5,5.1-6.2,5.1c-0.7,0-1.2-0.5-1.2-1.2c0-0.4,0.1-0.8,0.3-1.2L302.5,175.1z"/>
		<path class="st2" d="M319.2,176.9c1-0.7,1.7-1.5,1.7-2.1c0-0.4-0.3-0.7-0.7-0.7c0,0,0,0-0.1,0c-0.8,0-1.9,0.7-3,1.9
			c-0.5,0.5-1,1.1-1.3,1.8c0,0.2,0,0.4,0.2,0.4C317.1,178,318.2,177.6,319.2,176.9 M323.5,174.3c0,0.6-0.3,1.5-1.5,2.5
			c-1,0.7-2.1,1.3-3.3,1.5c-0.2,0.1-0.2,0.2-0.1,0.5c0.2,0.7,0.4,1.4,0.7,2.1c0.2,0.5,0.4,0.7,0.7,0.7s1-0.5,1.6-1.2
			c0.2,0,0.4,0.1,0.4,0.3c0,0,0,0,0,0.1c-0.7,1.5-2.1,2.6-3.3,2.6c-0.6,0-1.1-0.4-1.4-1.2c-0.4-0.8-0.7-1.7-0.9-2.6
			c-0.1-0.3-0.3-0.5-0.6-0.5c-0.5,0.1-0.7,0.2-1,0.9l-1.2,2.9c-0.2,0.3-0.5,0.4-0.8,0.4c-0.5,0-1.4-0.2-1.2-0.9l4.7-13.9
			c0.5-1.4,0.5-1.6,0-1.8l-0.6-0.3c-0.1-0.2-0.1-0.4,0-0.5c1.2-0.4,2.5-0.7,3.8-0.9c0.1,0,0.2,0.1,0.2,0.2c-0.3,0.9-0.6,1.7-1.2,3.4
			l-2.5,7.2h0.1c1.3-1.4,2.9-3.2,5.1-3.2C323,172.6,323.5,173.5,323.5,174.3"/>
		<path class="st2" d="M326.6,175.1c0.2-0.4,0.1-0.7-0.1-0.7c-0.5,0-1.6,1-2.3,1.7c-0.2,0-0.5-0.2-0.4-0.5c0.8-1.2,2.9-3,4.8-3
			c0.5,0,0.9,0.4,0.9,0.9c0,0.2-0.1,0.5-0.2,0.7l-2.6,6.4c-0.2,0.4-0.1,0.7,0.2,0.7c0.2,0,0.9-0.5,1.8-1.4c2.1-2,3.7-5.2,4.7-7.2
			c0.2-0.1,0.5-0.1,0.7-0.1c0.5,0,0.9,0.2,1.3,0.5c-0.6,1.6-1.9,4.9-3,7.6c-0.1,0.4-0.1,0.7,0.1,0.7c0.5,0,1.7-1.1,2.4-1.8
			c0.2,0,0.4,0.1,0.5,0.3c0,0,0,0.1,0,0.1c-0.7,1.2-3.1,3.1-4.8,3.1c-0.4,0-0.8-0.4-0.8-0.8c0-0.1,0-0.2,0.1-0.3l1.5-4h0
			c-1.6,2.1-4.5,5.1-6.1,5.1c-0.7,0-1.2-0.5-1.2-1.2c0-0.4,0.1-0.8,0.3-1.2L326.6,175.1z"/>
		<path class="st2" d="M341.3,176.6c-1.1,1.3-1.8,2.9-2,4.6c0,0.8,0.3,1.2,0.7,1.2c0.9-0.3,1.7-0.8,2.2-1.6c1.7-2,3.2-4.8,3.2-6
			c0-0.6-0.4-0.9-0.8-0.9C344,173.8,342.7,174.7,341.3,176.6 M345.2,180.4c-1.4,1.7-3.5,2.7-5.7,2.8c-1.2,0.1-2.3-0.8-2.4-2
			c0-0.1,0-0.3,0-0.4c0.1-1.5,0.5-3,1.1-4.3l3.1-8.2c0.4-1.2,0.5-1.5,0.1-1.8l-0.6-0.4c-0.1-0.2,0-0.3,0.1-0.5
			c1.3-0.4,2.5-0.6,3.8-0.7c0.1,0,0.2,0.1,0.2,0.2c-0.5,1.2-0.9,2.1-1.4,3.4l-3.1,8h0c1.5-2.1,3.2-3.9,5-3.9c1.2-0.1,2.3,0.8,2.4,2
			c0,0.1,0,0.2,0,0.3C347.6,177.1,346.7,179,345.2,180.4"/>
		<path class="st2" d="M353.3,175.1c-1.5,1.7-2.4,3.8-2.8,6c0,0.3,0.1,0.5,0.3,0.5c0.4,0,1.4-0.9,2.6-2c1.2-1.4,2.1-3,2.8-4.7
			c-0.1-0.5-0.6-0.9-1.1-0.9C354.5,174.1,354.1,174.3,353.3,175.1 M357.4,172.3c0.2-0.1,0.3-0.1,0.5-0.1c0.5,0,1.1,0.2,1.4,0.6
			c-0.7,1.6-2.3,5.8-3.2,8.4c-0.1,0.3,0,0.5,0.1,0.5c1-0.3,1.8-0.9,2.5-1.6c0.2,0,0.4,0.1,0.4,0.5c-1.1,1.4-3,2.8-4.6,2.8
			c-0.4,0-0.8-0.4-0.8-0.8c0-0.4,0.1-0.7,0.2-1l0.9-2.4h-0.1c-1.7,2.4-4.2,4.2-5.7,4.2c-0.8,0-1.4-0.7-1.4-1.5c0,0,0,0,0,0
			c0-1,1-3.5,2.9-5.7c0.9-1,1.9-1.8,3.1-2.5c0.6-0.3,1.3-0.5,2-0.6c0.2,0,0.4,0.1,0.6,0.2c0.2,0.1,0.4,0.3,0.5,0.5L357.4,172.3z"/>
		<path class="st2" d="M157.1,150l1.6-0.3l4-0.8l3.1-0.6v-14.1h-2.1c-1.9,0-3.8,0.1-5.6,0.2l-1.2-1.8c2.3,0.1,4.6,0.2,6.9,0.2h8.5
			l2.8-3.4l3.8,3.2c0.8,0.7,0.7,1.6-0.5,1.6h-8.2v13.1l2.2-0.5c2.3-0.5,4.6-1.1,6.9-1.6c0.2-1.5,0.4-3,0.5-4.6
			c0.2-2.2,0.3-4.4,0.2-6.6l-0.2-3.4l-0.1-1.8l4.8,2.1h7.4l1.1-2c-1.4,0.6-3,0.5-3.6-1.1c-0.5-1.4-0.5-2.9-1.1-4.3
			c-0.4-0.8-0.9-1.7-1.4-2.4h-2c-1.2,1.6-2.6,3.1-4,4.4c-1.3,1.2-2.6,2.3-4.1,3.2c-0.5,0.3-0.9-0.1-0.6-0.6c0.7-1,1.5-2,2.2-3
			c0.9-1.3,1.7-2.7,2.5-4.1H170c2,1.6,4.7,3.2,4.4,6c-0.3,2.9-3.7,3.6-4.5,1.5c-0.4-1.2-0.4-2.5-0.7-3.8c-0.3-1.3-0.9-2.6-1.6-3.8
			h-1c-2.1,3.2-4.7,5.9-7.7,8.2c-0.1,0.1-1.5,1-1.3,0.2c0-0.5,1-1.5,1.3-1.9c1.3-1.9,2.5-3.8,3.5-5.9c1.1-2.4,2.1-4.9,2.8-7.5
			c0.3-1.1,0.5-2.2,0.8-3.4l5.1,2.2c1.2,0.5,1.7,1.7,0.3,2.3l-1.4,0.5c-0.5,0.9-1,1.9-1.5,2.8l-0.7,1h6.8l3.2-3.8l4.3,3.8
			c1.3-2.8,2.3-5.7,3.1-8.7l4.9,2.6c1.3,0.7,1.3,1.9-0.2,2.3l-1.3,0.4c-0.5,0.8-1,1.6-1.6,2.5l-0.6,0.9h10.5l3.5-4l4.5,4
			c0.7,0.6,0.6,1.4-0.5,1.4H190c2.9,1.7,5.5,3.5,4.2,7.2l3.6,3.6c0.9,0.9,1,2.1-0.3,2.6l-0.7,0.2v17c0,0.6,0.1,1.1,0.8,1.2
			c0.7,0.1,2,0.2,2.5-0.5c0.5-0.7,0.9-1.5,1.1-2.3c0.4-1,0.8-2.1,1.1-3.1l0.7-2.1c0.1-0.3,0.3-1,0.7-1.1s0.4,0.4,0.4,0.6v0.6
			l-0.2,2.3l-0.2,2.1c-0.1,0.7-0.3,2.3,0.2,2.9c0.8,0.9,2.4,1.6,1.7,3.1c-0.6,1.2-2.4,1.3-3.6,1.4c-2.1,0.2-4.1,0.3-6.2,0.2
			c-2.6-0.1-3.8-0.6-3.8-3.4v-21.3h-7.4c0.1,2.5,0.1,5,0,7.5c3.4,1,7.7,2.8,6.8,7.2c-0.1,1-0.9,1.8-1.9,2c-1.5,0.2-2.3-1.1-2.6-2.4
			l-0.7-2.3c-0.3-1.2-0.9-2.3-1.8-3.2c0,3.1-0.7,6.2-2,9.1c-2.2,4.8-6.9,7.7-11.7,9.3c-0.3,0.1-1.5,0.6-1.5-0.2
			c0-0.4,0.9-0.8,1.2-0.9c5.1-2.9,7.6-6.4,8.8-12.1l-1.9,0.9l-3.9,1.8l-4.2,2c-1.9,0.8-3.8,1.6-5.6,2.4l-0.6,1.3
			c-0.3,0.6-0.5,1.2-1.2,1.3s-1.1-0.4-1.5-0.9L157.1,150z"/>
		<path class="st2" d="M248.9,136.4c-1.5,3.6-3.6,6.9-6,10c-1.6-1.6-2.9-3.3-4-5.3c-0.8-1.5-1.5-3-2-4.6L248.9,136.4z M235.4,136.4
			c0.5,2.1,1.1,4.2,1.9,6.3c0.9,2.1,2.1,4.2,3.5,6c-1.3,1.4-2.7,2.7-4.2,3.8c-2.4,1.8-5,3.4-7.7,4.6c-1.2,0.6-2.5,1-3.6,1.6
			c-0.3,0.2-0.6,0.5-0.3,0.8c0.4,0.5,3.9-0.6,4.2-0.7c5.1-1.4,9.8-3.9,14-7.1c3.1,3.5,6.9,6.2,11.2,8.1c1-2,2.6-3.8,4.6-5
			c-2.6-0.7-5.1-1.6-7.5-2.6c-1.9-0.9-3.7-2-5.4-3.2c1-1.2,2-2.3,2.9-3.6c1.2-1.6,2.3-3.3,3.3-5l0.8-1.4l1.1-0.2
			c1.9-0.3,1.9-1.3,0.7-2.7l-3.7-4.1l-2.3,3h-4.6v-11.5h7l-0.6,1.4c-0.8,1.8-1.7,3.6-2.6,5.3c-0.2,0.3-0.4,0.7-0.4,1.1
			c0.1,0.8,2.2-1,2.2-1l1.6-1.3l2-1.5l1.2-1l1.9,0c0.6,0,1.5,0,1.9-0.6c0.4-0.6-0.2-1.6-0.6-2l-4.3-5l-2.5,3.1h-6.9v-6.8l0.8-0.5
			c0.5-0.2,0.9-0.7,1-1.2c0.1-0.7-0.6-1.1-1.2-1.2l-5.5-0.5v10.1h-6.6l-5.7-2.8c0.5,6.4,0.5,12.8,0.2,19.2c-0.4,6-1.4,12.2-4.8,17.3
			l-1.4,2.2c-0.2,0.4-0.4,0.9,0.3,0.8c0.7-0.1,1.9-1.3,2.3-1.7c3-2.7,5.3-6.2,6.6-10c1-3.5,1.5-7.1,1.7-10.8L235.4,136.4z
			 M214.7,114.4c0,0.3,0.5,0.6,0.7,0.7c1,0.8,1.7,1.8,2.3,2.9c0.8,1.4,0.6,3.2,1.3,4.5c0.8,1.6,3.1,1,4-0.1c1.7-2,0-5-1.8-6.3
			c-1.8-1.2-3.8-2-5.9-2.1C215.2,114.1,214.7,114.1,214.7,114.4 M216.9,133.6c2.3-1.4,1.3-5.1-0.4-6.6c-1.7-1.3-3.8-2-5.9-2.1
			c-0.4,0-0.9,0.2-0.5,0.6c1.4,1,2.4,2.5,2.9,4.2l0.7,2.6c0.2,1.1,1.2,1.8,2.3,1.6C216.3,133.9,216.6,133.8,216.9,133.6 M211,144.2
			c-0.6,0-1.1,0.6-0.6,1.1c0.6,0.5,1.8,0.4,2.7,1.2c0.9,0.8,1.3,3.2,1.1,4.4l-0.4,3.1c-0.1,1-0.1,2.4,0.7,3.2c0.8,0.7,2,0.9,3,0.6
			c3.2-1,1.2-5.9,0.8-8c-0.5-1.7-0.4-3.4,0.1-5.1l8-22.3c0.2-0.7-0.6-1.1-1-0.5l-11.3,22.5C213.2,144.3,212.2,144.3,211,144.2
			 M231.9,123.7h7.3v11.5h-7.3V123.7z"/>
		<path class="st2" d="M303.2,122.7l4.8,3.8c1,0.8,0.7,1.6-0.6,1.6h-21.1c0.7,2.6,1.7,5.1,2.8,7.6c1.6,3.2,3.7,6.1,6.3,8.5
			c4.1,4,9.4,6.6,14.7,8.6c-2.5,0.8-4.7,2.4-6.4,4.5c-2.8-1.7-5.4-3.7-7.8-6c-3.9-4.1-6.9-9.1-8.7-14.5c-0.8-2.4-1.4-4.9-1.8-7.4
			c-0.6,4.6-1.4,9.3-3.5,13.5c-3.1,6.3-8.5,10.8-14.8,13.8c-0.5,0.2-4.6,2.2-5.2,1.7c-0.4-0.4,0.3-0.8,0.5-0.9c2.6-1.4,5-3,7.3-4.8
			c7.4-5.9,10.2-15.5,10.9-24.6h-8.6c-3,0-5.9,0.2-8.9,0.3l-1.2-1.9l5.5,0.2l4.6,0.1h8.8c0.2-4.8,0.1-9.6-0.3-14.3l5.7,0.4
			c0.8,0.1,1.6,0.1,1.9,1c0.2,0.9-0.3,1.2-0.9,1.6l-1.2,0.6c0,3.6-0.1,7.2-0.3,10.8h13.8L303.2,122.7z"/>
		<path class="st2" d="M335.3,123.2c-2.3,0.2-2.7-3.2-3.2-4.7c-0.6-1.7-1.6-3.3-2.9-4.5c-0.2-0.2-1.7-1.5-0.4-1.3c1,0.2,2.1,0.5,3,1
			c2.4,1,4.8,2.6,5.7,5.2C338,120.5,337.3,123,335.3,123.2 M322.3,122.4l-0.6-2.4c-0.3-0.9-0.6-1.8-1-2.6c-0.3-0.6-0.7-1.2-1-1.8
			l-0.9-1.2c-0.3-0.4-0.6-1.1,0.2-0.9c1.8,0.6,3.6,1.5,5.1,2.6c1.6,1.1,2.6,2.9,2.7,4.8C327,124.4,322.9,125.3,322.3,122.4
			 M319.1,127c-0.1,2.1-0.1,4.2-1.3,6.1c-1,1.5-2.7,2.7-4.6,1.8c-1.3-0.7-1.7-2.4-0.9-3.6c0.1-0.2,0.2-0.4,0.4-0.5l1.7-1.6
			c1.6-1.6,2.6-3.7,2.7-5.9c0-0.3,0-1.3,0.6-0.8s1,2.5,1.2,3.2h22.2c2.4-4.2,3.9-8.8,5.1-13.5l5,2.8c1.3,0.8,1.1,1.6-0.2,2.1l-1,0.4
			l-1.2,1.5c-1.5,1.8-3,3.5-4.5,5.3l-1.2,1.4h9.1l2.2-3l3.9,4.8c1.3,1.5,1.3,2.6-1,2.6l-1.7,0.1l-0.9,0.7l-1.9,1.3
			c0,0-2.7,2.1-3.2,2.1c-0.3,0,0-0.5,0-0.7c0.5-1.1,1-2.2,1.6-3.3c0.5-1.1,0.8-2.1,1.2-3.2L319.1,127z M311.2,142.7l5.4,0.2l4.7,0.1
			h11.2v-6.3l4.8,1c1.3-1.1,2.5-2.3,3.7-3.5h-14.8l-3.3,0.1l-2.7,0.1l-1-1.7c2.3,0,4.6,0.2,6.9,0.2h15.8l2.7-2.7l3.7,3.6
			c1.2,1.2,0.6,2.2-1,2.2l-1.5,0l-2.1,1c-2.2,1-4.3,2-6.6,3v3.2h13.3l3.4-3.9l4.6,3.6c0.7,0.6,1,1.8-0.2,1.8h-21.2V156
			c0,1.7-2.5,2.6-3.7,3c-1.6,0.6-2.7,0.6-2.7-1.3c0-0.7-0.2-0.9-0.8-1.1c-1.8-0.6-3.6-1.2-5.4-1.8c-0.3-0.1-0.7-0.3-0.6-0.6
			c0.2-0.4,0.6-0.2,0.9-0.2h1.4l2.1,0.1l2,0c0.6,0.1,1.3,0.1,1.9-0.2c0.4-0.2,0.4-0.8,0.4-1.1v-8.4h-11.1c-3,0-6,0.2-9,0.3
			L311.2,142.7z"/>
	</g>
	<g>
		<path class="st2" d="M403.9,131.8c1.3-3.3,1.8-8.1,1.7-9.6l1.9,0.3c-0.1,2.4-0.4,6.2-1.9,10.1L403.9,131.8z M411.6,114.6v34.8
			h-2.1v-34.8H411.6z M414.5,126.7c-0.4-1.6-1.2-3.6-1.8-4.8l1.8-0.6c1.5,3.4,1.7,4.1,1.8,4.6L414.5,126.7z M428.6,114.6v2.7h9.6
			v1.7h-9.6v3.1h8.9v1.7h-8.9v3.2h10.6v1.7h-23.3V127h10.7v-3.2h-8.9v-1.7h8.9v-3.1h-9.7v-1.7h9.7v-2.7H428.6z M437.2,146.6
			c0,1.9-0.7,2.7-2.8,2.7h-4l-0.4-2.1l4.1,0c1,0,1.1-0.7,1.1-1.1v-4.1h-15v7.3h-2v-18h19V146.6z M435.2,133h-15v2.8h15V133z
			 M435.2,137.5h-15v2.9h15V137.5z"/>
		<path class="st2" d="M452.2,114.5v3.8h7v1.9h-7v4.7h7.8v1.9h-2.6c-0.4,2-1.1,4.3-1.6,5.7h3.9v1.9h-7.5v5.3h7v1.9h-7v7.8h-2.1v-7.8
			h-6.9v-1.9h6.9v-5.3h-7.5v-1.9h4.3c-0.4-1.7-1.3-4.4-1.8-5.7h-2.8V125h7.9v-4.7h-6.9v-1.9h6.9v-3.8H452.2z M453.9,132.6
			c0.4-0.8,1.3-4.2,1.4-5.7h-8.3c0.3,0.7,1.6,4.9,1.8,5.7H453.9z M475.7,149.3c-2.5-2.1-3.8-3.4-5.1-4.9c-2,2.8-3.6,4-4.7,4.7
			l-1.4-1.7c1-0.6,2.7-1.8,4.8-4.6c-2.2-2.8-3.6-6.1-4.7-9.5l1.8-0.5c1.7,5.2,3.2,7.2,4.1,8.4c2.2-3.9,3-7.3,3.6-10.3h-10.6v18.7h-2
			v-33.7h14.1c0,3.8-0.6,8.2-1.2,9.3c-0.6,1.1-1.4,1.3-3.4,1.3h-3.3l-0.3-2.1l3.4,0.1c1.6,0,2.7-0.5,2.8-6.7h-10v11.2h12.8
			c-0.5,4.8-1.9,9.6-4.4,13.8c1.6,1.8,3.6,3.4,5.5,5L475.7,149.3z"/>
		<path class="st2" d="M508.9,128.8c-3.2,2.7-5.6,4.2-9.7,6.3v1.4h16v1.9h-16v8.4c0,2.6-1.5,2.6-3.1,2.6h-6.3l-0.5-2.3l6.3,0.1
			c1.3,0,1.5,0,1.5-1.1v-7.6h-16.6v-1.9h16.6v-3.3h1.7c2-0.9,4.7-2.5,6.8-4.3h-19.2V127h22.5V128.8z M514.2,121.1v7.9H512v-6.1
			h-28.5v6.1h-2.2v-7.9h24.1c1.1-1.5,2.6-4.4,3.3-6.3l2.1,0.8c-0.5,1.1-1.9,3.7-3,5.4H514.2z M487.5,120.6c-0.8-1.6-1.8-3.4-2.9-4.8
			l1.7-0.8c1.5,1.9,2.7,4.2,3,4.9L487.5,120.6z M497.5,120c-0.7-1.4-2-3.6-2.9-4.9l1.9-0.8c0.9,1.2,1.5,2.2,2.9,4.9L497.5,120z"/>
		<path class="st2" d="M533.9,135v13.6h-11.7v-9.6c-0.9,1.3-1.6,1.9-2.8,3.1l-1.6-1.7c1.4-1.1,4.6-3.6,6-9.5h-4.6v-1.7h4.9
			c0.2-1.4,0.4-2.5,0.5-4.9h-6.4v-1.8h6.5v-4.7h-5.5v-1.8h14.6v6.5h1.8v1.8h-1.8v6.7h-8.1c-0.5,2.2-0.7,2.8-1.3,4.1H533.9z
			 M532,136.8h-7.8v10h7.8V136.8z M526.7,124.3c0,2-0.2,3-0.5,4.9h5.7v-4.9H526.7z M526.8,122.5h5.2v-4.7h-5.2V122.5z M540.5,121.5
			c-0.9-2.5-1.7-4.6-2.5-6.4l1.8-0.6c1.3,3,1.9,5,2.6,7h3.9c1.7-4.1,2.2-5.9,2.6-7l1.9,0.6c-1,3-2,5.1-2.7,6.5h4.5v2h-7.1v6h6.3v2
			h-6.3v6.5h7.5v1.9h-7.5v9.5h-2.1v-9.5h-7.8V138h7.8v-6.5h-6.2v-2h6.2v-6h-6.8v-2H540.5z"/>
		<path class="st2" d="M623,105.1v3h-9.8V122h11v3.1H613c-0.1,1.7-0.2,2.5-0.4,4c1.5,3.9,6,10.8,12.3,15.6l-2.2,2.6
			c-4.4-3.7-8.6-8.8-11-13.7c-3.6,11.2-11.1,15.6-14.8,17.6l-2-2.8c9.6-5,13.8-12.4,14.9-23.3h-14.5V122H610v-13.9h-6.1
			c-2.8,5.3-4.2,7.2-6.3,9.7l-2.4-2.3c4.2-4.9,7-10.1,9.8-18.9l3.2,0.9c-1,3.2-1.8,5.1-2.9,7.6H623z M647.9,150H626v-49.9h21.9V150z
			 M644.6,103h-15.4v44h15.4V103z"/>
		<path class="st2" d="M681.5,107.2v2.8h-17.1v-2.8H681.5z M680.3,98.9v2.8h-14.6v-2.8H680.3z M679.9,115.2v2.8h-14.2v-2.8H679.9z
			 M680.3,123.5v2.9h-14.6v-2.9H680.3z M680.3,131.7v18.4h-14.4v-18.4H680.3z M677.4,134.4h-8.5v12.9h8.5V134.4z M706.9,96.9
			c0,10.6,0,12,0.2,18.8h11.4v2.7h-11.3c0.2,6.3,0.6,9.8,1.7,15.4c2.5-5.4,3.5-9.9,4.1-12.6l3.2,1.1c-1.6,6.1-3.2,10-6.3,15.8
			c0.2,0.6,2.5,8.5,4.4,8.5c1.1,0,1.4-4.2,1.6-7.3l2.9,0.6c-0.6,10-2.2,10.6-3.8,10.6c-0.9,0-4.1-0.3-7.2-9c-2.7,3.8-4.9,6.1-9,9.5
			l-2.5-2.1c2.1-1.5,2.9-2.3,4.2-3.5h-16.3v-21.5h16.4v21.4c1.8-1.7,4-4,6.2-7.4c-0.8-3-2.2-9.3-2.7-19.5h-22v-2.7h4.1
			c-0.1-1.9-0.2-4.3-1.2-10.3h-3v-2.7h8.9v-5.8h3.1v5.8h7.9v2.7h-2.2c-0.5,3.7-0.9,6.8-1.6,10.3h6c-0.2-7.8-0.2-9-0.2-18.8H706.9z
			 M697.5,126.4h-10.3v6.5h10.3V126.4z M697.5,135.4h-10.3v7.4h10.3V135.4z M694.9,115.7c0.5-2.7,0.9-5,1.5-10.3h-8.3
			c0.5,3.5,0.8,5.7,1.2,10.3H694.9z M714.5,111.9c-1.8-5-3.5-7.8-5.1-10.1l2.8-1.5c2.5,4,3.9,6.8,5.2,10.1L714.5,111.9z"/>
		<path class="st2" d="M733,123.7c2-5.1,2.8-12.6,2.7-14.9l2.9,0.5c-0.2,3.8-0.6,9.7-2.9,15.7L733,123.7z M744.9,97v54h-3.2V97
			H744.9z M749.3,115.7c-0.6-2.5-1.9-5.7-2.8-7.4l2.8-0.9c2.3,5.3,2.7,6.4,2.8,7.2L749.3,115.7z M771.3,97v4.2h14.9v2.7h-14.9v4.8
			H785v2.7h-13.7v4.9h16.5v2.7h-36.2v-2.7h16.6v-4.9h-13.9v-2.7h13.9v-4.8h-15.1v-2.7h15.1V97H771.3z M784.7,146.7
			c0,3-1.1,4.2-4.4,4.2h-6.2l-0.6-3.3l6.3,0.1c1.5,0,1.7-1.1,1.7-1.7v-6.4h-23.2V151h-3.1v-28h29.6V146.7z M781.5,125.6h-23.2v4.4
			h23.2V125.6z M781.5,132.6h-23.2v4.5h23.2V132.6z"/>
		<path class="st2" d="M818.2,96.9v5.8H829v3h-10.9v7.4h12.2v2.9h-4c-0.6,3.1-1.7,6.7-2.5,8.9h6v2.9h-11.7v8.3H829v2.9h-10.9v12H815
			v-12h-10.7v-2.9H815v-8.3h-11.6v-2.9h6.6c-0.6-2.6-2-6.8-2.8-8.9h-4.4v-2.9H815v-7.4h-10.7v-3H815v-5.8H818.2z M820.8,124.9
			c0.6-1.2,2-6.5,2.2-8.9h-12.9c0.4,1.1,2.5,7.7,2.8,8.9H820.8z M854.7,150.8c-3.9-3.2-6-5.3-8-7.7c-3.1,4.3-5.7,6.2-7.3,7.3
			l-2.2-2.7c1.5-1,4.2-2.8,7.5-7.1c-3.4-4.4-5.6-9.5-7.3-14.8l2.8-0.8c2.7,8,4.9,11.2,6.3,13c3.5-6,4.7-11.3,5.5-16h-16.5v29h-3.1
			V98.7h22c0.1,6-0.9,12.7-1.8,14.5c-0.9,1.7-2.2,2-5.3,2H842l-0.5-3.2l5.3,0.2c2.5,0.1,4.2-0.7,4.4-10.4h-15.6v17.4h19.8
			c-0.8,7.5-2.9,14.9-6.8,21.4c2.5,2.8,5.5,5.3,8.6,7.7L854.7,150.8z"/>
		<path class="st2" d="M885.9,124c0,2.6-2.1,4.9-4.9,4.9c-2.7,0-4.9-2.2-4.9-4.9c0-2.8,2.4-4.9,4.9-4.9
			C883.6,119.1,885.9,121.3,885.9,124z"/>
		<path class="st2" d="M955.8,98.5v51.6h-47.4V98.5H955.8z M952.5,101.5h-40.8V147h40.8V101.5z M949.4,107
			c-1.5,4.5-5.1,14.8-13,23.2c4.6,3.1,8.3,6,12.4,10.4l-2.3,2.7c-2.2-2.5-5.7-6.4-12.3-10.9c-3.2,3-8,7.3-18.4,11.2l-1.8-2.8
			c9.6-3.6,15-8.1,17.3-10.2c-4-2.4-8.7-5.1-16-7.8l1.4-2.8c7.1,2.7,11.3,5,16.9,8.4c2.6-2.7,8.5-9,12.9-22.6L949.4,107z
			 M922.1,119.4c-1.6-6.2-3.1-9.6-4.4-12l2.9-0.9c1.9,3.6,3.2,7.3,4.5,12.1L922.1,119.4z M933.1,117.4c-0.9-4.1-2-7.5-3.9-11.9
			l3-0.8c1.9,4.5,3,8,4,12L933.1,117.4z"/>
		<path class="st2" d="M999.3,100.3v-3.4h3.1v3.4h20.5v6.5h5.5v2.5h-5.5v6.4h-20.5v4h22.4v2.5h-22.4v4h26v2.5h-54v-2.5h24.9v-4H978
			v-2.5h21.3v-4h-20.4v-2.6h20.4v-3.8h-24.9v-2.5h24.9v-3.8h-20.4v-2.7H999.3z M1022.4,132.8v17.3h-42.1v-17.3H1022.4z M983.6,135.3
			v4.8h35.6v-4.8H983.6z M983.6,142.5v5h35.6v-5H983.6z M1019.8,102.9h-17.4v3.8h17.4V102.9z M1019.8,109.3h-17.4v3.8h17.4V109.3z"
			/>
		<path class="st2" d="M1042.8,110.2c5.7-3.8,9.3-8.6,12.2-13.4h2.8c2,3.3,4.2,6.1,7.9,9.1l-1.7,2.7c-1.7-1.4-4.1-3.2-7.6-8.6
			c-3.9,6.1-7.8,10-12.2,13.3L1042.8,110.2z M1059.8,135.1c3.8,5.7,5.7,10.3,6.7,12.9l-2.8,1.2c-1.2-3.2-1.7-4.2-2.5-6
			c-6.1,2.5-14.7,4.9-17.1,5.6l-0.8-3.1c2-0.5,2.3-0.5,3.6-0.9v-31.7h7.3v-5h3.1v5h7.5v19.1h-14.9v11.9c4.5-1.4,6.4-1.9,10-3.2
			c-1-1.9-1.5-2.7-2.5-4.3L1059.8,135.1z M1061.6,115.9h-11.7v5.5h11.7V115.9z M1061.6,123.9h-11.7v5.5h11.7V123.9z M1082.8,97.1
			v5.5h13.8v11.3h-3.1v-8.5h-24v8.5h-3v-11.3h13v-5.5H1082.8z M1094.9,150.1h-23.6v-39.5h20.2v15.6h-17.2v7.4h20.5V150.1z
			 M1088.5,113.3h-14.1v10h14.1V113.3z M1091.7,136.4h-17.3v10.9h17.3V136.4z"/>
		<path class="st2" d="M1157,119c-4.9,4.2-8.7,6.5-15,9.8v2.1h24.8v3H1142v13c0,4-2.4,4-4.8,4h-9.9l-0.8-3.5l9.9,0.1
			c1.9,0,2.4-0.1,2.4-1.8V134h-25.8v-3h25.8v-5.1h2.6c3.1-1.4,7.3-3.9,10.6-6.7h-29.9v-2.9h34.9V119z M1165.4,107.1v12.3h-3.4v-9.5
			h-44.3v9.5h-3.4v-12.3h37.5c1.7-2.4,4-6.9,5.2-9.7l3.2,1.3c-0.8,1.7-2.9,5.8-4.7,8.4H1165.4z M1123.9,106.3
			c-1.2-2.5-2.8-5.3-4.5-7.5l2.7-1.2c2.4,3,4.2,6.5,4.7,7.6L1123.9,106.3z M1139.4,105.4c-1.1-2.2-3.1-5.6-4.5-7.7l3-1.2
			c1.4,1.8,2.4,3.5,4.5,7.6L1139.4,105.4z"/>
		<path class="st2" d="M1182,109.8v-2.6h11.4V96.9h3v10.3h11.4v2.6h-10c4.2,5.1,8.6,7.8,10,8.7l-2.1,2.5c-2.5-1.8-6.3-4.8-9.3-9.3
			v10.7h-3v-10c-3.7,5.3-7.3,8.1-10.1,10l-1.7-2.8c3-1.8,7.1-4.7,10.9-9.8H1182z M1204.5,147.2c-5.3-4.8-7.6-8.7-8.9-11.8
			c-0.6,3.4-2.1,11.5-12,15.9l-1.8-2.8c8.4-3.5,10.5-10.1,11.3-16.2H1182v-2.9h11.3c0.2-2.7,0.2-4,0.1-5.3h3c0,1,0.1,1.7-0.1,5.3
			h11.6v2.9H1197c1.4,3.8,5,9.6,9.7,12.6L1204.5,147.2z M1187.2,106.2c-0.6-1.4-1.7-3.7-4-7.3l2.4-1.3c2,2.7,3.1,4.6,4.2,6.9
			L1187.2,106.2z M1200.2,104.5c1.7-2.6,2.8-4.5,3.8-6.9l2.9,1.4c-1.5,3.2-3,5.4-4.2,7.1L1200.2,104.5z M1205.1,148.7
			c3.4-1.2,6.9-3.1,11.2-7.4l2.4,1.8c-7,6.1-10.2,7.5-11.6,8.1L1205.1,148.7z M1236,101.9h-12.5c-0.9,2.8-1.7,5.3-2.1,6.4h12.2v31.1
			h-22.7v-31.1h7.5c0.4-1,1.5-4.8,1.9-6.4h-11.2V99h26.9V101.9z M1230.5,111.1H1214v6.4h16.5V111.1z M1230.5,120.2H1214v6.5h16.5
			V120.2z M1230.5,129.5H1214v7.1h16.5V129.5z M1227.3,141.2c3.5,3.8,6.3,5.8,9.6,7.7l-2.1,2.4c-4.2-2.8-6.8-4.8-9.7-8.1
			L1227.3,141.2z"/>
	</g>
	<g>
		<path class="st2" d="M420.9,169.6v3.8c-1.8-1.5-3.7-2.3-5.7-2.3c-2.2,0-4,0.8-5.5,2.3c-1.5,1.5-2.2,3.4-2.2,5.7
			c0,2.2,0.7,4.1,2.2,5.6c1.5,1.5,3.3,2.3,5.5,2.3c1.1,0,2.1-0.2,2.9-0.5c0.4-0.2,0.9-0.4,1.4-0.7c0.5-0.3,1-0.7,1.5-1.1v3.8
			c-1.8,1-3.7,1.5-5.7,1.5c-3,0-5.6-1.1-7.7-3.2c-2.1-2.1-3.2-4.7-3.2-7.7c0-2.7,0.9-5.1,2.7-7.2c2.2-2.6,5-3.9,8.5-3.9
			C417.3,168.1,419.1,168.6,420.9,169.6z"/>
		<path class="st2" d="M423.5,182.8c0-1.9,0.7-3.6,2.1-4.9c1.4-1.3,3-2,5-2c2,0,3.7,0.7,5,2c1.4,1.4,2,3,2,5c0,2-0.7,3.7-2.1,5
			c-1.4,1.3-3.1,2-5.1,2c-2,0-3.7-0.7-5-2C424.2,186.6,423.5,184.9,423.5,182.8z M426.7,182.9c0,1.3,0.4,2.4,1.1,3.2
			c0.7,0.8,1.7,1.2,2.9,1.2c1.2,0,2.2-0.4,2.9-1.2s1.1-1.8,1.1-3.1s-0.4-2.3-1.1-3.1c-0.7-0.8-1.7-1.2-2.9-1.2
			c-1.2,0-2.1,0.4-2.9,1.2S426.7,181.7,426.7,182.9z"/>
		<path class="st2" d="M443.9,166.5v23.1h-3.1v-23.1H443.9z"/>
		<path class="st2" d="M450.7,166.5v23.1h-3.1v-23.1H450.7z"/>
		<path class="st2" d="M466.6,183.7H457c0.1,1.1,0.4,2,1.1,2.6c0.6,0.6,1.4,1,2.4,1c0.8,0,1.4-0.2,1.9-0.5c0.5-0.4,1.1-1,1.7-2
			l2.6,1.4c-0.4,0.7-0.8,1.3-1.3,1.8c-0.4,0.5-0.9,0.9-1.4,1.2c-0.5,0.3-1.1,0.5-1.7,0.7s-1.2,0.2-1.9,0.2c-2,0-3.6-0.6-4.8-1.9
			c-1.2-1.3-1.8-3-1.8-5.1c0-2.1,0.6-3.8,1.7-5.1c1.2-1.3,2.7-1.9,4.7-1.9c2,0,3.5,0.6,4.6,1.9c1.1,1.2,1.7,3,1.7,5.1L466.6,183.7z
			 M463.4,181.1c-0.4-1.6-1.5-2.5-3.1-2.5c-0.4,0-0.7,0.1-1.1,0.2c-0.3,0.1-0.6,0.3-0.9,0.5c-0.3,0.2-0.5,0.5-0.7,0.8
			c-0.2,0.3-0.3,0.6-0.4,1H463.4z"/>
		<path class="st2" d="M482.6,189.3c0,0.6,0,1.2-0.1,1.7s-0.1,0.9-0.2,1.3c-0.2,1-0.6,1.9-1.3,2.6c-1.2,1.4-2.9,2.1-5,2.1
			c-1.8,0-3.2-0.5-4.4-1.4c-1.2-1-1.9-2.3-2-4.1h3.1c0.1,0.7,0.3,1.2,0.6,1.5c0.6,0.8,1.6,1.2,2.8,1.2c2.2,0,3.4-1.4,3.4-4.1v-1.9
			c-1.2,1.2-2.6,1.9-4.2,1.9c-1.8,0-3.3-0.7-4.5-2c-1.2-1.3-1.7-3-1.7-5c0-1.9,0.5-3.6,1.6-4.9c1.2-1.4,2.7-2.2,4.6-2.2
			c1.7,0,3.1,0.6,4.2,1.9v-1.5h3.1V189.3z M479.7,183c0-1.3-0.3-2.3-1-3.1c-0.7-0.8-1.6-1.2-2.7-1.2c-1.2,0-2.1,0.4-2.8,1.3
			c-0.6,0.8-0.9,1.8-0.9,3c0,1.2,0.3,2.2,0.9,3c0.7,0.8,1.6,1.3,2.8,1.3s2.1-0.4,2.8-1.3C479.4,185.2,479.7,184.2,479.7,183z"/>
		<path class="st2" d="M498.5,183.7H489c0.1,1.1,0.4,2,1.1,2.6c0.6,0.6,1.4,1,2.4,1c0.8,0,1.4-0.2,1.9-0.5c0.5-0.4,1.1-1,1.7-2
			l2.6,1.4c-0.4,0.7-0.8,1.3-1.3,1.8c-0.4,0.5-0.9,0.9-1.4,1.2c-0.5,0.3-1.1,0.5-1.7,0.7s-1.2,0.2-1.9,0.2c-2,0-3.6-0.6-4.8-1.9
			c-1.2-1.3-1.8-3-1.8-5.1c0-2.1,0.6-3.8,1.7-5.1c1.2-1.3,2.7-1.9,4.7-1.9c2,0,3.5,0.6,4.6,1.9c1.1,1.2,1.7,3,1.7,5.1L498.5,183.7z
			 M495.3,181.1c-0.4-1.6-1.5-2.5-3.1-2.5c-0.4,0-0.7,0.1-1.1,0.2c-0.3,0.1-0.6,0.3-0.9,0.5c-0.3,0.2-0.5,0.5-0.7,0.8
			c-0.2,0.3-0.3,0.6-0.4,1H495.3z"/>
		<path class="st2" d="M509.6,182.8c0-1.9,0.7-3.6,2.1-4.9c1.4-1.3,3-2,5-2c2,0,3.7,0.7,5,2c1.4,1.4,2,3,2,5c0,2-0.7,3.7-2.1,5
			c-1.4,1.3-3.1,2-5.1,2c-2,0-3.7-0.7-5-2C510.2,186.6,509.6,184.9,509.6,182.8z M512.7,182.9c0,1.3,0.4,2.4,1.1,3.2
			c0.7,0.8,1.7,1.2,2.9,1.2c1.2,0,2.2-0.4,2.9-1.2s1.1-1.8,1.1-3.1s-0.4-2.3-1.1-3.1c-0.7-0.8-1.7-1.2-2.9-1.2
			c-1.2,0-2.1,0.4-2.9,1.2S512.7,181.7,512.7,182.9z"/>
		<path class="st2" d="M530,179.2v10.4H527v-10.4h-1.1v-2.9h1.1v-5.1c0-1.7,0.3-2.9,0.9-3.5c0.8-1,2-1.4,3.5-1.4
			c0.5,0,1.2,0.2,2.1,0.5v3.1l-0.3-0.2c-0.7-0.3-1.2-0.5-1.6-0.5c-0.5,0-0.9,0.2-1.1,0.6c-0.2,0.4-0.3,1.1-0.3,2.2v4.4h3.3v2.9H530z
			"/>
		<path class="st2" d="M549.3,177.2l6.7-8.7h6.8l-8.4,10l9.1,11.1h-7.1l-7.1-9.1v9.1h-5.5v-21.1h5.5V177.2z"/>
		<path class="st2" d="M565.5,176.3h3.1v1.2c1.1-1.1,2.3-1.6,3.6-1.6c1.5,0,2.8,0.5,3.6,1.5c0.7,0.8,1.1,2.2,1.1,4.1v8.1h-3.1v-7.4
			c0-1.3-0.2-2.2-0.5-2.7c-0.4-0.5-1-0.8-1.9-0.8c-1,0-1.7,0.3-2.2,1c-0.4,0.7-0.6,1.8-0.6,3.5v6.4h-3.1V176.3z"/>
		<path class="st2" d="M580.1,182.8c0-1.9,0.7-3.6,2.1-4.9c1.4-1.3,3-2,5-2c2,0,3.7,0.7,5,2c1.4,1.4,2,3,2,5c0,2-0.7,3.7-2.1,5
			c-1.4,1.3-3.1,2-5.1,2c-2,0-3.7-0.7-5-2C580.7,186.6,580.1,184.9,580.1,182.8z M583.2,182.9c0,1.3,0.4,2.4,1.1,3.2
			c0.7,0.8,1.7,1.2,2.9,1.2c1.2,0,2.2-0.4,2.9-1.2s1.1-1.8,1.1-3.1s-0.4-2.3-1.1-3.1c-0.7-0.8-1.7-1.2-2.9-1.2
			c-1.2,0-2.1,0.4-2.9,1.2S583.2,181.7,583.2,182.9z"/>
		<path class="st2" d="M598.5,176.3l3.5,7.6l3.8-8.8l3.8,8.8l3.4-7.6h3.4l-7,14.3l-3.7-8.6l-3.7,8.6l-6.9-14.3H598.5z"/>
		<path class="st2" d="M621.6,166.5v23.1h-3.1v-23.1H621.6z"/>
		<path class="st2" d="M637.5,183.7H628c0.1,1.1,0.4,2,1.1,2.6c0.6,0.6,1.4,1,2.4,1c0.8,0,1.4-0.2,1.9-0.5c0.5-0.4,1.1-1,1.7-2
			l2.6,1.4c-0.4,0.7-0.8,1.3-1.3,1.8c-0.4,0.5-0.9,0.9-1.4,1.2c-0.5,0.3-1.1,0.5-1.7,0.7s-1.2,0.2-1.9,0.2c-2,0-3.6-0.6-4.8-1.9
			c-1.2-1.3-1.8-3-1.8-5.1c0-2.1,0.6-3.8,1.7-5.1c1.2-1.3,2.7-1.9,4.7-1.9c2,0,3.5,0.6,4.6,1.9c1.1,1.2,1.7,3,1.7,5.1L637.5,183.7z
			 M634.3,181.1c-0.4-1.6-1.5-2.5-3.1-2.5c-0.4,0-0.7,0.1-1.1,0.2c-0.3,0.1-0.6,0.3-0.9,0.5c-0.3,0.2-0.5,0.5-0.7,0.8
			c-0.2,0.3-0.3,0.6-0.4,1H634.3z"/>
		<path class="st2" d="M650.5,166.5h3.1v23.1h-3.1v-1.4c-1.2,1.2-2.6,1.8-4.1,1.8c-1.8,0-3.3-0.7-4.5-2c-1.2-1.4-1.8-3-1.8-5.1
			c0-2,0.6-3.6,1.8-5c1.2-1.3,2.7-2,4.5-2c1.6,0,2.9,0.6,4.2,1.9V166.5z M643.2,182.9c0,1.3,0.3,2.3,1,3.1c0.7,0.8,1.6,1.2,2.6,1.2
			c1.1,0,2.1-0.4,2.8-1.2c0.7-0.8,1.1-1.8,1.1-3.1s-0.4-2.3-1.1-3.1c-0.7-0.8-1.6-1.2-2.7-1.2c-1.1,0-1.9,0.4-2.6,1.2
			C643.6,180.7,643.2,181.7,643.2,182.9z"/>
		<path class="st2" d="M670.2,189.3c0,0.6,0,1.2-0.1,1.7s-0.1,0.9-0.2,1.3c-0.2,1-0.6,1.9-1.3,2.6c-1.2,1.4-2.9,2.1-5,2.1
			c-1.8,0-3.2-0.5-4.4-1.4c-1.2-1-1.9-2.3-2-4.1h3.1c0.1,0.7,0.3,1.2,0.6,1.5c0.6,0.8,1.6,1.2,2.8,1.2c2.2,0,3.4-1.4,3.4-4.1v-1.9
			c-1.2,1.2-2.6,1.9-4.2,1.9c-1.8,0-3.3-0.7-4.5-2c-1.2-1.3-1.7-3-1.7-5c0-1.9,0.5-3.6,1.6-4.9c1.2-1.4,2.7-2.2,4.6-2.2
			c1.7,0,3.1,0.6,4.2,1.9v-1.5h3.1V189.3z M667.3,183c0-1.3-0.3-2.3-1-3.1c-0.7-0.8-1.6-1.2-2.7-1.2c-1.2,0-2.1,0.4-2.8,1.3
			c-0.6,0.8-0.9,1.8-0.9,3c0,1.2,0.3,2.2,0.9,3c0.7,0.8,1.6,1.3,2.8,1.3s2.1-0.4,2.8-1.3C666.9,185.2,667.3,184.2,667.3,183z"/>
		<path class="st2" d="M686,183.7h-9.5c0.1,1.1,0.4,2,1.1,2.6c0.6,0.6,1.4,1,2.4,1c0.8,0,1.4-0.2,1.9-0.5c0.5-0.4,1.1-1,1.7-2
			l2.6,1.4c-0.4,0.7-0.8,1.3-1.3,1.8c-0.4,0.5-0.9,0.9-1.4,1.2c-0.5,0.3-1.1,0.5-1.7,0.7s-1.2,0.2-1.9,0.2c-2,0-3.6-0.6-4.8-1.9
			c-1.2-1.3-1.8-3-1.8-5.1c0-2.1,0.6-3.8,1.7-5.1c1.2-1.3,2.7-1.9,4.7-1.9c2,0,3.5,0.6,4.6,1.9c1.1,1.2,1.7,3,1.7,5.1L686,183.7z
			 M682.9,181.1c-0.4-1.6-1.5-2.5-3.1-2.5c-0.4,0-0.7,0.1-1.1,0.2c-0.3,0.1-0.6,0.3-0.9,0.5c-0.3,0.2-0.5,0.5-0.7,0.8
			c-0.2,0.3-0.3,0.6-0.4,1H682.9z"/>
		<path class="st2" d="M707.6,176.3h3.1v13.3h-3.1v-1.4c-1.3,1.2-2.6,1.8-4.1,1.8c-1.8,0-3.4-0.7-4.6-2c-1.2-1.4-1.8-3-1.8-5.1
			c0-2,0.6-3.7,1.8-5c1.2-1.3,2.7-2,4.5-2c1.5,0,2.9,0.6,4.2,1.9V176.3z M700.3,182.9c0,1.3,0.3,2.3,1,3.1c0.7,0.8,1.6,1.2,2.6,1.2
			c1.1,0,2.1-0.4,2.8-1.2c0.7-0.8,1.1-1.8,1.1-3.1s-0.4-2.3-1.1-3.1c-0.7-0.8-1.6-1.2-2.7-1.2c-1.1,0-1.9,0.4-2.6,1.2
			C700.6,180.7,700.3,181.7,700.3,182.9z"/>
		<path class="st2" d="M714.4,176.3h3.1v1.2c1.1-1.1,2.3-1.6,3.6-1.6c1.5,0,2.8,0.5,3.6,1.5c0.7,0.8,1.1,2.2,1.1,4.1v8.1h-3.1v-7.4
			c0-1.3-0.2-2.2-0.5-2.7c-0.4-0.5-1-0.8-1.9-0.8c-1,0-1.7,0.3-2.2,1c-0.4,0.7-0.6,1.8-0.6,3.5v6.4h-3.1V176.3z"/>
		<path class="st2" d="M739.4,166.5h3.1v23.1h-3.1v-1.4c-1.2,1.2-2.6,1.8-4.1,1.8c-1.8,0-3.3-0.7-4.5-2c-1.2-1.4-1.8-3-1.8-5.1
			c0-2,0.6-3.6,1.8-5c1.2-1.3,2.7-2,4.5-2c1.6,0,2.9,0.6,4.2,1.9V166.5z M732.1,182.9c0,1.3,0.3,2.3,1,3.1c0.7,0.8,1.6,1.2,2.6,1.2
			c1.1,0,2.1-0.4,2.8-1.2c0.7-0.8,1.1-1.8,1.1-3.1s-0.4-2.3-1.1-3.1c-0.7-0.8-1.6-1.2-2.7-1.2c-1.1,0-1.9,0.4-2.6,1.2
			C732.4,180.7,732.1,181.7,732.1,182.9z"/>
		<path class="st2" d="M760.4,168.5v16.4h6.6v4.6h-12v-21.1H760.4z"/>
		<path class="st2" d="M768.9,169.7c0-0.4,0.1-0.8,0.2-1.1c0.1-0.3,0.4-0.6,0.6-0.9s0.6-0.5,0.9-0.6c0.3-0.1,0.7-0.2,1.1-0.2
			c0.4,0,0.8,0.1,1.1,0.2s0.6,0.4,0.9,0.6c0.3,0.3,0.5,0.6,0.6,0.9c0.1,0.3,0.2,0.7,0.2,1.1s-0.1,0.8-0.2,1.1s-0.4,0.6-0.6,0.9
			c-0.3,0.3-0.6,0.5-0.9,0.6s-0.7,0.2-1.1,0.2c-0.4,0-0.8-0.1-1.1-0.2c-0.3-0.1-0.6-0.4-0.9-0.6c-0.3-0.3-0.5-0.6-0.6-0.9
			S768.9,170.1,768.9,169.7z M774.3,175.2v14.3h-5.1v-14.3H774.3z"/>
		<path class="st2" d="M780.9,166.5v11.3c1.2-1.3,2.6-1.9,4.2-1.9c1.8,0,3.3,0.7,4.5,2c1.2,1.3,1.8,3,1.8,5c0,2-0.6,3.7-1.8,5.1
			c-1.2,1.3-2.7,2-4.5,2c-1.5,0-2.9-0.6-4.1-1.8v1.4h-3.1v-23.1H780.9z M788.2,183c0-1.3-0.3-2.3-1-3.1c-0.7-0.8-1.6-1.2-2.6-1.2
			c-1.1,0-2,0.4-2.8,1.2c-0.7,0.8-1.1,1.8-1.1,3.1c0,1.3,0.3,2.3,1,3.1c0.7,0.8,1.6,1.2,2.7,1.2c1.1,0,1.9-0.4,2.6-1.2
			C787.8,185.2,788.2,184.2,788.2,183z"/>
		<path class="st2" d="M794.4,176.3h3.1v1.2c0.6-0.6,1.1-1,1.5-1.2c0.4-0.2,1-0.3,1.6-0.3c0.8,0,1.7,0.3,2.5,0.8l-1.4,2.8
			c-0.6-0.4-1.2-0.6-1.7-0.6c-1.7,0-2.5,1.3-2.5,3.8v6.9h-3.1V176.3z"/>
		<path class="st2" d="M814.3,176.3h3.1v13.3h-3.1v-1.4c-1.3,1.2-2.6,1.8-4.1,1.8c-1.8,0-3.4-0.7-4.6-2c-1.2-1.4-1.8-3-1.8-5.1
			c0-2,0.6-3.7,1.8-5c1.2-1.3,2.7-2,4.5-2c1.5,0,2.9,0.6,4.2,1.9V176.3z M807.1,182.9c0,1.3,0.3,2.3,1,3.1c0.7,0.8,1.6,1.2,2.6,1.2
			c1.1,0,2.1-0.4,2.8-1.2c0.7-0.8,1.1-1.8,1.1-3.1s-0.4-2.3-1.1-3.1c-0.7-0.8-1.6-1.2-2.7-1.2c-1.1,0-1.9,0.4-2.6,1.2
			C807.4,180.7,807.1,181.7,807.1,182.9z"/>
		<path class="st2" d="M821.2,176.3h3.1v1.2c0.6-0.6,1.1-1,1.5-1.2c0.4-0.2,1-0.3,1.6-0.3c0.8,0,1.7,0.3,2.5,0.8l-1.4,2.8
			c-0.6-0.4-1.2-0.6-1.7-0.6c-1.7,0-2.5,1.3-2.5,3.8v6.9h-3.1V176.3z"/>
		<path class="st2" d="M836.9,187.1l-6-10.8h3.6l4.1,7.6l3.8-7.6h3.5l-10.6,20.5h-3.5L836.9,187.1z"/>
		<path class="st2" d="M868.8,171.6l-2.6,1.5c-0.5-0.8-0.9-1.4-1.4-1.6c-0.5-0.3-1-0.4-1.8-0.4c-0.9,0-1.6,0.2-2.2,0.8
			c-0.6,0.5-0.9,1.1-0.9,1.9c0,1,0.8,1.9,2.3,2.5l2.1,0.9c1.7,0.7,3,1.5,3.8,2.5c0.8,1,1.2,2.2,1.2,3.7c0,1.9-0.6,3.5-1.9,4.8
			c-1.3,1.3-2.9,1.9-4.8,1.9c-1.8,0-3.3-0.5-4.5-1.6c-1.2-1.1-1.9-2.6-2.2-4.6l3.2-0.7c0.1,1.2,0.4,2.1,0.8,2.6
			c0.7,0.9,1.6,1.4,2.9,1.4c1,0,1.8-0.3,2.5-1s1-1.5,1-2.5c0-0.4-0.1-0.8-0.2-1.1c-0.1-0.3-0.3-0.7-0.5-0.9
			c-0.2-0.3-0.6-0.6-0.9-0.8c-0.4-0.3-0.8-0.5-1.4-0.7l-2-0.8c-2.9-1.2-4.3-3-4.3-5.4c0-1.6,0.6-2.9,1.8-4c1.2-1.1,2.7-1.6,4.5-1.6
			C865.5,168.1,867.4,169.3,868.8,171.6z"/>
		<path class="st2" d="M882.8,176.9v4.1c-0.7-0.9-1.3-1.4-1.9-1.8c-0.5-0.3-1.2-0.5-1.9-0.5c-1.2,0-2.1,0.4-2.9,1.2
			c-0.8,0.8-1.1,1.8-1.1,3c0,1.2,0.4,2.3,1.1,3.1c0.7,0.8,1.7,1.2,2.9,1.2c0.7,0,1.4-0.2,2-0.5c0.5-0.3,1.2-0.9,1.9-1.8v4.1
			c-1.2,0.6-2.5,1-3.7,1c-2.1,0-3.8-0.7-5.2-2c-1.4-1.3-2.1-3-2.1-5c0-2,0.7-3.7,2.1-5c1.4-1.4,3.1-2,5.2-2
			C880.4,175.9,881.6,176.2,882.8,176.9z"/>
		<path class="st2" d="M885.1,170.8c0-0.5,0.2-1,0.6-1.4c0.4-0.4,0.9-0.6,1.4-0.6c0.6,0,1,0.2,1.4,0.6c0.4,0.4,0.6,0.9,0.6,1.4
			c0,0.6-0.2,1-0.6,1.4c-0.4,0.4-0.9,0.6-1.4,0.6c-0.6,0-1-0.2-1.4-0.6C885.3,171.8,885.1,171.3,885.1,170.8z M888.7,176.3v13.3
			h-3.1v-13.3H888.7z"/>
		<path class="st2" d="M904.5,183.7H895c0.1,1.1,0.4,2,1.1,2.6c0.6,0.6,1.4,1,2.4,1c0.8,0,1.4-0.2,1.9-0.5c0.5-0.4,1.1-1,1.7-2
			l2.6,1.4c-0.4,0.7-0.8,1.3-1.3,1.8c-0.4,0.5-0.9,0.9-1.4,1.2c-0.5,0.3-1.1,0.5-1.7,0.7s-1.2,0.2-1.9,0.2c-2,0-3.6-0.6-4.8-1.9
			c-1.2-1.3-1.8-3-1.8-5.1c0-2.1,0.6-3.8,1.7-5.1c1.2-1.3,2.7-1.9,4.7-1.9c2,0,3.5,0.6,4.6,1.9c1.1,1.2,1.7,3,1.7,5.1L904.5,183.7z
			 M901.4,181.1c-0.4-1.6-1.5-2.5-3.1-2.5c-0.4,0-0.7,0.1-1.1,0.2c-0.3,0.1-0.6,0.3-0.9,0.5c-0.3,0.2-0.5,0.5-0.7,0.8
			c-0.2,0.3-0.3,0.6-0.4,1H901.4z"/>
		<path class="st2" d="M907.7,176.3h3.1v1.2c1.1-1.1,2.3-1.6,3.6-1.6c1.5,0,2.8,0.5,3.6,1.5c0.7,0.8,1.1,2.2,1.1,4.1v8.1h-3.1v-7.4
			c0-1.3-0.2-2.2-0.5-2.7c-0.4-0.5-1-0.8-1.9-0.8c-1,0-1.7,0.3-2.2,1c-0.4,0.7-0.6,1.8-0.6,3.5v6.4h-3.1V176.3z"/>
		<path class="st2" d="M933.3,176.9v4.1c-0.7-0.9-1.3-1.4-1.9-1.8c-0.5-0.3-1.2-0.5-1.9-0.5c-1.2,0-2.1,0.4-2.9,1.2
			c-0.8,0.8-1.1,1.8-1.1,3c0,1.2,0.4,2.3,1.1,3.1c0.7,0.8,1.7,1.2,2.9,1.2c0.7,0,1.4-0.2,2-0.5c0.5-0.3,1.2-0.9,1.9-1.8v4.1
			c-1.2,0.6-2.5,1-3.7,1c-2.1,0-3.8-0.7-5.2-2c-1.4-1.3-2.1-3-2.1-5c0-2,0.7-3.7,2.1-5c1.4-1.4,3.1-2,5.2-2
			C930.9,175.9,932.1,176.2,933.3,176.9z"/>
		<path class="st2" d="M948.2,183.7h-9.5c0.1,1.1,0.4,2,1.1,2.6c0.6,0.6,1.4,1,2.4,1c0.8,0,1.4-0.2,1.9-0.5c0.5-0.4,1.1-1,1.7-2
			l2.6,1.4c-0.4,0.7-0.8,1.3-1.3,1.8c-0.4,0.5-0.9,0.9-1.4,1.2c-0.5,0.3-1.1,0.5-1.7,0.7s-1.2,0.2-1.9,0.2c-2,0-3.6-0.6-4.8-1.9
			c-1.2-1.3-1.8-3-1.8-5.1c0-2.1,0.6-3.8,1.7-5.1c1.2-1.3,2.7-1.9,4.7-1.9c2,0,3.5,0.6,4.6,1.9c1.1,1.2,1.7,3,1.7,5.1L948.2,183.7z
			 M945.1,181.1c-0.4-1.6-1.5-2.5-3.1-2.5c-0.4,0-0.7,0.1-1.1,0.2c-0.3,0.1-0.6,0.3-0.9,0.5c-0.3,0.2-0.5,0.5-0.7,0.8
			c-0.2,0.3-0.3,0.6-0.4,1H945.1z"/>
		<path class="st2" d="M959.2,178.6l-2.5,1.4c-0.4-0.8-0.9-1.2-1.5-1.2c-0.3,0-0.5,0.1-0.7,0.3s-0.3,0.4-0.3,0.7
			c0,0.5,0.6,1,1.8,1.5c1.6,0.7,2.7,1.3,3.3,1.9c0.6,0.6,0.8,1.4,0.8,2.4c0,1.3-0.5,2.4-1.4,3.2c-0.9,0.8-2,1.2-3.3,1.2
			c-2.2,0-3.8-1.1-4.7-3.3l2.6-1.2c0.4,0.6,0.6,1,0.8,1.2c0.4,0.3,0.8,0.5,1.3,0.5c1,0,1.6-0.5,1.6-1.4c0-0.5-0.4-1.1-1.2-1.5
			c-0.3-0.2-0.6-0.3-0.9-0.5c-0.3-0.1-0.6-0.3-0.9-0.5c-0.9-0.4-1.5-0.9-1.9-1.3c-0.5-0.6-0.7-1.3-0.7-2.1c0-1.2,0.4-2.1,1.2-2.9
			c0.8-0.8,1.8-1.1,2.9-1.1C957.1,175.9,958.3,176.8,959.2,178.6z"/>
		<path class="st2" d="M964.5,185.6l2.7,1.1l-3.9,7.8l-2.1-0.9L964.5,185.6z"/>
		<path class="st2" d="M991.5,173.9c-0.6-0.5-1.2-0.8-1.8-1.1c-0.6-0.2-1.2-0.3-1.7-0.3c-0.7,0-1.3,0.2-1.7,0.5
			c-0.4,0.3-0.7,0.8-0.7,1.3c0,0.4,0.1,0.7,0.3,0.9s0.5,0.5,0.9,0.6c0.4,0.2,0.8,0.3,1.2,0.5c0.5,0.1,0.9,0.3,1.4,0.4
			c1.8,0.6,3.1,1.4,3.9,2.4c0.8,1,1.2,2.3,1.2,3.9c0,1.1-0.2,2.1-0.5,2.9s-0.9,1.6-1.6,2.2c-0.7,0.6-1.6,1.1-2.6,1.5
			c-1,0.3-2.2,0.5-3.5,0.5c-2.7,0-5.1-0.8-7.4-2.4l2.3-4.4c0.8,0.7,1.6,1.3,2.4,1.6c0.8,0.4,1.6,0.5,2.4,0.5c0.9,0,1.6-0.2,2-0.6
			c0.4-0.4,0.7-0.9,0.7-1.4c0-0.3-0.1-0.6-0.2-0.8c-0.1-0.2-0.3-0.4-0.6-0.6c-0.3-0.2-0.6-0.4-1-0.5c-0.4-0.2-0.9-0.4-1.5-0.6
			c-0.7-0.2-1.4-0.5-2.1-0.7s-1.3-0.6-1.8-1.1c-0.5-0.4-1-1-1.3-1.7c-0.3-0.7-0.5-1.5-0.5-2.6s0.2-2,0.5-2.8
			c0.3-0.8,0.8-1.6,1.5-2.2c0.6-0.6,1.4-1.1,2.3-1.4c0.9-0.3,1.9-0.5,3-0.5c1,0,2.1,0.1,3.3,0.4c1.1,0.3,2.2,0.7,3.3,1.3
			L991.5,173.9z"/>
		<path class="st2" d="M1007.9,176.9v4.1c-0.7-0.9-1.3-1.4-1.9-1.8c-0.5-0.3-1.2-0.5-1.9-0.5c-1.2,0-2.1,0.4-2.9,1.2
			c-0.8,0.8-1.1,1.8-1.1,3c0,1.2,0.4,2.3,1.1,3.1c0.7,0.8,1.7,1.2,2.9,1.2c0.7,0,1.4-0.2,2-0.5c0.5-0.3,1.2-0.9,1.9-1.8v4.1
			c-1.2,0.6-2.5,1-3.7,1c-2.1,0-3.8-0.7-5.2-2c-1.4-1.3-2.1-3-2.1-5c0-2,0.7-3.7,2.1-5c1.4-1.4,3.1-2,5.2-2
			C1005.5,175.9,1006.7,176.2,1007.9,176.9z"/>
		<path class="st2" d="M1011.4,166.5h3.1v10.9c1.1-1,2.3-1.5,3.6-1.5c1.5,0,2.7,0.5,3.6,1.5c0.8,0.8,1.1,2.2,1.1,4.1v8.1h-3.1v-7.9
			c0-1.1-0.2-1.8-0.6-2.3c-0.4-0.5-1-0.7-1.8-0.7c-1.1,0-1.8,0.3-2.3,1c-0.4,0.7-0.6,1.8-0.6,3.5v6.4h-3.1V166.5z"/>
		<path class="st2" d="M1026,182.8c0-1.9,0.7-3.6,2.1-4.9c1.4-1.3,3-2,5-2c2,0,3.7,0.7,5,2c1.4,1.4,2,3,2,5c0,2-0.7,3.7-2.1,5
			c-1.4,1.3-3.1,2-5.1,2c-2,0-3.7-0.7-5-2C1026.7,186.6,1026,184.9,1026,182.8z M1029.1,182.9c0,1.3,0.4,2.4,1.1,3.2
			c0.7,0.8,1.7,1.2,2.9,1.2c1.2,0,2.2-0.4,2.9-1.2s1.1-1.8,1.1-3.1s-0.4-2.3-1.1-3.1c-0.7-0.8-1.7-1.2-2.9-1.2
			c-1.2,0-2.1,0.4-2.9,1.2S1029.1,181.7,1029.1,182.9z"/>
		<path class="st2" d="M1042.7,182.8c0-1.9,0.7-3.6,2.1-4.9c1.4-1.3,3-2,5-2c2,0,3.7,0.7,5,2c1.4,1.4,2,3,2,5c0,2-0.7,3.7-2.1,5
			c-1.4,1.3-3.1,2-5.1,2c-2,0-3.7-0.7-5-2C1043.3,186.6,1042.7,184.9,1042.7,182.8z M1045.8,182.9c0,1.3,0.4,2.4,1.1,3.2
			c0.7,0.8,1.7,1.2,2.9,1.2c1.2,0,2.2-0.4,2.9-1.2s1.1-1.8,1.1-3.1s-0.4-2.3-1.1-3.1c-0.7-0.8-1.7-1.2-2.9-1.2
			c-1.2,0-2.1,0.4-2.9,1.2S1045.8,181.7,1045.8,182.9z"/>
		<path class="st2" d="M1063,166.5v23.1h-3.1v-23.1H1063z"/>
		<path class="st2" d="M1074.6,182.8c0-1.9,0.7-3.6,2.1-4.9c1.4-1.3,3-2,5-2c2,0,3.7,0.7,5,2c1.4,1.4,2,3,2,5c0,2-0.7,3.7-2.1,5
			c-1.4,1.3-3.1,2-5.1,2c-2,0-3.7-0.7-5-2C1075.3,186.6,1074.6,184.9,1074.6,182.8z M1077.8,182.9c0,1.3,0.4,2.4,1.1,3.2
			c0.7,0.8,1.7,1.2,2.9,1.2c1.2,0,2.2-0.4,2.9-1.2s1.1-1.8,1.1-3.1s-0.4-2.3-1.1-3.1c-0.7-0.8-1.7-1.2-2.9-1.2
			c-1.2,0-2.1,0.4-2.9,1.2S1077.8,181.7,1077.8,182.9z"/>
		<path class="st2" d="M1095.1,179.2v10.4h-3.1v-10.4h-1.1v-2.9h1.1v-5.1c0-1.7,0.3-2.9,0.9-3.5c0.8-1,2-1.4,3.5-1.4
			c0.5,0,1.2,0.2,2.1,0.5v3.1l-0.3-0.2c-0.7-0.3-1.2-0.5-1.6-0.5c-0.5,0-0.9,0.2-1.1,0.6c-0.2,0.4-0.3,1.1-0.3,2.2v4.4h3.3v2.9
			H1095.1z"/>
		<path class="st2" d="M1112.3,168.5v21.1h-3.2v-21.1H1112.3z"/>
		<path class="st2" d="M1116.7,176.3h3.1v1.2c1.1-1.1,2.3-1.6,3.6-1.6c1.5,0,2.8,0.5,3.6,1.5c0.7,0.8,1.1,2.2,1.1,4.1v8.1h-3.1v-7.4
			c0-1.3-0.2-2.2-0.5-2.7c-0.4-0.5-1-0.8-1.9-0.8c-1,0-1.7,0.3-2.2,1c-0.4,0.7-0.6,1.8-0.6,3.5v6.4h-3.1V176.3z"/>
		<path class="st2" d="M1135.1,179.2v10.4h-3.1v-10.4h-1.1v-2.9h1.1v-5.1c0-1.7,0.3-2.9,0.9-3.5c0.8-1,2-1.4,3.5-1.4
			c0.5,0,1.2,0.2,2.1,0.5v3.1l-0.3-0.2c-0.7-0.3-1.2-0.5-1.6-0.5c-0.5,0-0.9,0.2-1.1,0.6c-0.2,0.4-0.3,1.1-0.3,2.2v4.4h3.3v2.9
			H1135.1z"/>
		<path class="st2" d="M1139.8,182.8c0-1.9,0.7-3.6,2.1-4.9c1.4-1.3,3-2,5-2c2,0,3.7,0.7,5,2c1.4,1.4,2,3,2,5c0,2-0.7,3.7-2.1,5
			c-1.4,1.3-3.1,2-5.1,2c-2,0-3.7-0.7-5-2C1140.4,186.6,1139.8,184.9,1139.8,182.8z M1142.9,182.9c0,1.3,0.4,2.4,1.1,3.2
			c0.7,0.8,1.7,1.2,2.9,1.2c1.2,0,2.2-0.4,2.9-1.2s1.1-1.8,1.1-3.1s-0.4-2.3-1.1-3.1c-0.7-0.8-1.7-1.2-2.9-1.2
			c-1.2,0-2.1,0.4-2.9,1.2S1142.9,181.7,1142.9,182.9z"/>
		<path class="st2" d="M1157,176.3h3.1v1.2c0.6-0.6,1.1-1,1.5-1.2c0.4-0.2,1-0.3,1.6-0.3c0.8,0,1.7,0.3,2.5,0.8l-1.4,2.8
			c-0.6-0.4-1.2-0.6-1.7-0.6c-1.7,0-2.5,1.3-2.5,3.8v6.9h-3.1V176.3z"/>
		<path class="st2" d="M1167.8,176.3h3.1v1.2c0.6-0.6,1.1-1,1.5-1.3c0.4-0.2,1-0.3,1.7-0.3c1.5,0,2.7,0.7,3.6,2c1-1.3,2.3-2,3.9-2
			c3,0,4.5,1.8,4.5,5.4v8.2h-3.1v-7.4c0-1.3-0.2-2.2-0.5-2.7c-0.3-0.5-0.8-0.8-1.6-0.8c-0.8,0-1.5,0.3-1.8,1
			c-0.4,0.6-0.6,1.7-0.6,3.1v6.9h-3.1v-7.3c0-2.4-0.7-3.5-2-3.5c-0.9,0-1.5,0.3-1.9,1c-0.4,0.6-0.6,1.7-0.6,3.1v6.9h-3.1V176.3z"/>
		<path class="st2" d="M1199.6,176.3h3.1v13.3h-3.1v-1.4c-1.3,1.2-2.6,1.8-4.1,1.8c-1.8,0-3.4-0.7-4.6-2c-1.2-1.4-1.8-3-1.8-5.1
			c0-2,0.6-3.7,1.8-5c1.2-1.3,2.7-2,4.5-2c1.5,0,2.9,0.6,4.2,1.9V176.3z M1192.3,182.9c0,1.3,0.3,2.3,1,3.1c0.7,0.8,1.6,1.2,2.6,1.2
			c1.1,0,2.1-0.4,2.8-1.2c0.7-0.8,1.1-1.8,1.1-3.1s-0.4-2.3-1.1-3.1c-0.7-0.8-1.6-1.2-2.7-1.2c-1.1,0-1.9,0.4-2.6,1.2
			C1192.6,180.7,1192.3,181.7,1192.3,182.9z"/>
		<path class="st2" d="M1209.5,179.2v10.4h-3.1v-10.4h-1.3v-2.9h1.3v-4.9h3.1v4.9h2.4v2.9H1209.5z"/>
		<path class="st2" d="M1213.4,170.8c0-0.5,0.2-1,0.6-1.4c0.4-0.4,0.9-0.6,1.4-0.6c0.6,0,1,0.2,1.4,0.6c0.4,0.4,0.6,0.9,0.6,1.4
			c0,0.6-0.2,1-0.6,1.4c-0.4,0.4-0.9,0.6-1.4,0.6c-0.6,0-1-0.2-1.4-0.6C1213.6,171.8,1213.4,171.3,1213.4,170.8z M1217,176.3v13.3
			h-3.1v-13.3H1217z"/>
		<path class="st2" d="M1231.1,176.9v4.1c-0.7-0.9-1.3-1.4-1.9-1.8c-0.5-0.3-1.2-0.5-1.9-0.5c-1.2,0-2.1,0.4-2.9,1.2
			c-0.8,0.8-1.1,1.8-1.1,3c0,1.2,0.4,2.3,1.1,3.1c0.7,0.8,1.7,1.2,2.9,1.2c0.7,0,1.4-0.2,2-0.5c0.5-0.3,1.2-0.9,1.9-1.8v4.1
			c-1.2,0.6-2.5,1-3.7,1c-2.1,0-3.8-0.7-5.2-2c-1.4-1.3-2.1-3-2.1-5c0-2,0.7-3.7,2.1-5c1.4-1.4,3.1-2,5.2-2
			C1228.6,175.9,1229.9,176.2,1231.1,176.9z"/>
		<path class="st2" d="M1241.6,178.6l-2.5,1.4c-0.4-0.8-0.9-1.2-1.5-1.2c-0.3,0-0.5,0.1-0.7,0.3s-0.3,0.4-0.3,0.7
			c0,0.5,0.6,1,1.8,1.5c1.6,0.7,2.7,1.3,3.3,1.9c0.6,0.6,0.8,1.4,0.8,2.4c0,1.3-0.5,2.4-1.4,3.2c-0.9,0.8-2,1.2-3.3,1.2
			c-2.2,0-3.8-1.1-4.7-3.3l2.6-1.2c0.4,0.6,0.6,1,0.8,1.2c0.4,0.3,0.8,0.5,1.3,0.5c1,0,1.6-0.5,1.6-1.4c0-0.5-0.4-1.1-1.2-1.5
			c-0.3-0.2-0.6-0.3-0.9-0.5c-0.3-0.1-0.6-0.3-0.9-0.5c-0.9-0.4-1.5-0.9-1.9-1.3c-0.5-0.6-0.7-1.3-0.7-2.1c0-1.2,0.4-2.1,1.2-2.9
			c0.8-0.8,1.8-1.1,2.9-1.1C1239.5,175.9,1240.8,176.8,1241.6,178.6z"/>
	</g>
</g>
</svg>
