<?xml version="1.0" standalone="no"?>
<!DOCTYPE svg PUBLIC "-//W3C//DTD SVG 20010904//EN"
 "http://www.w3.org/TR/2001/REC-SVG-20010904/DTD/svg10.dtd">
<svg version="1.0" xmlns="http://www.w3.org/2000/svg"
 width="2237.000000pt" height="2237.000000pt" viewBox="0 0 2237.000000 2237.000000"
 preserveAspectRatio="xMidYMid meet">
<metadata>
Created by potrace 1.11, written by Peter Selinger 2001-2013
</metadata>
<g transform="translate(0.000000,2237.000000) scale(0.100000,-0.100000)"
fill="#000000" stroke="none">
<path d="M15949 20161 c0 -3 -1 -205 -1 -448 0 -402 -2 -443 -17 -444 -9 0
-161 -1 -338 -1 -178 0 -323 -3 -323 -7 -1 -9 -1 -828 -1 -878 l1 -43 1890 0
c1505 0 1890 -3 1891 -12 1 -7 2 -26 4 -43 2 -16 6 -95 10 -175 4 -80 8 -176
10 -215 2 -38 6 -122 9 -185 4 -63 8 -158 11 -210 3 -52 7 -135 10 -185 2 -49
7 -146 10 -215 3 -69 7 -147 10 -175 2 -27 6 -125 10 -216 l6 -166 -251 -1
-250 0 5 46 c3 26 8 58 10 72 3 14 7 43 11 65 3 22 8 54 11 70 2 17 6 39 8 50
3 26 25 172 30 205 3 14 7 43 10 65 4 22 8 51 10 65 3 14 18 117 35 230 17
113 32 216 35 230 13 87 18 117 20 130 2 8 6 35 9 60 3 25 11 72 16 105 5 33
10 67 10 76 0 15 -62 16 -707 15 l-707 -1 -2 -25 c-2 -43 -16 -182 -19 -199
-1 -9 -6 -47 -9 -86 -12 -119 -16 -159 -21 -195 -4 -33 -8 -70 -21 -200 -2
-30 -7 -71 -9 -90 -3 -19 -7 -57 -10 -85 -3 -27 -7 -68 -9 -90 -3 -22 -8 -67
-11 -100 -3 -33 -8 -71 -10 -85 -2 -14 -7 -59 -10 -100 -4 -41 -8 -86 -10
-100 -2 -14 -6 -48 -10 -77 l-7 -51 -104 0 c-57 0 -105 4 -105 9 -1 5 -2 12
-3 17 -1 4 -6 43 -10 87 -5 44 -9 87 -11 95 -3 16 -16 132 -20 185 -2 17 -5
48 -8 70 -3 22 -9 65 -12 95 -3 30 -8 71 -11 90 -13 107 -15 129 -19 175 -3
28 -7 66 -10 85 -2 19 -7 60 -10 90 -3 30 -8 66 -10 80 -2 14 -7 54 -10 90 -3
36 -8 76 -10 90 -2 14 -7 57 -11 95 -4 39 -8 73 -10 78 -1 4 -2 18 -3 31 l-1
23 -722 -1 c-716 -1 -723 -1 -722 -21 1 -21 5 -53 24 -170 16 -100 17 -111 30
-200 7 -44 14 -88 16 -99 2 -10 6 -44 10 -75 3 -31 8 -58 9 -61 2 -3 6 -29 10
-59 4 -30 9 -63 11 -75 2 -12 7 -41 10 -66 3 -25 8 -52 9 -62 2 -9 7 -38 11
-65 3 -26 8 -57 10 -68 2 -10 6 -37 9 -60 3 -22 8 -58 12 -80 3 -22 7 -47 8
-55 5 -35 16 -107 20 -130 3 -14 7 -44 10 -68 3 -24 6 -49 8 -55 1 -9 -60 -12
-246 -13 -136 -1 -251 -5 -254 -8 -9 -9 -7 -905 1 -914 4 -4 902 -7 1996 -7
1094 0 1991 -2 1994 -5 3 -3 8 -73 11 -155 4 -83 8 -188 10 -235 3 -47 7 -143
10 -215 3 -71 8 -170 10 -220 3 -49 7 -146 10 -215 3 -69 7 -168 10 -220 3
-52 7 -153 10 -225 3 -71 7 -168 10 -215 2 -47 7 -146 10 -220 3 -74 8 -173
10 -220 2 -47 7 -146 10 -220 3 -74 8 -175 10 -225 5 -79 9 -176 20 -415 1
-36 6 -146 10 -245 4 -99 9 -183 11 -186 5 -9 -24 -98 -161 -484 -70 -198
-135 -385 -145 -415 -11 -30 -33 -93 -50 -140 -17 -47 -47 -132 -66 -190 -20
-58 -40 -111 -44 -119 -4 -7 -8 944 -8 2115 0 1171 -1 2134 -1 2139 -1 7 -566
10 -1693 10 l-1693 0 -1 -3222 c-1 -2406 1 -3223 10 -3224 6 0 448 -1 981 -2
l970 0 5 334 5 334 430 -1 c237 -1 435 -2 441 -3 10 -1 2 -30 -29 -111 -19
-51 -77 -223 -77 -230 0 -4 280 -8 623 -8 342 0 629 -1 637 -1 10 -1 15 -12
16 -34 0 -17 4 -99 9 -182 4 -82 7 -158 7 -167 -1 -17 74 -18 1432 -18 l1433
0 -13 88 c-8 48 -16 107 -20 132 -3 25 -8 52 -9 61 -2 9 -6 40 -10 69 -4 29
-8 61 -10 71 -2 9 -6 39 -10 66 -4 26 -9 59 -11 73 -2 14 -13 90 -24 170 -11
80 -23 156 -25 170 -2 14 -7 48 -10 75 -4 28 -8 57 -10 65 -3 8 -7 35 -10 60
-3 25 -8 57 -10 71 -3 14 -7 43 -10 64 -8 69 -16 120 -20 145 -2 14 -7 45 -10
70 -6 46 -8 60 -20 140 -7 49 -13 85 -19 128 -3 15 -10 63 -16 107 -6 44 -13
91 -15 105 -5 27 -15 101 -20 140 -2 14 -13 90 -25 170 -12 80 -24 165 -27
190 -3 25 -9 47 -14 50 -4 3 -125 5 -269 5 -144 0 -263 2 -265 6 -2 3 -7 86
-10 185 -4 98 -8 220 -10 269 -2 50 -6 167 -9 260 -6 169 -10 266 -22 570 -3
88 -7 201 -9 250 -8 259 -17 477 -20 537 -4 66 2 84 156 540 88 260 185 547
216 638 30 91 106 315 169 498 l113 332 -32 1 c-18 0 -177 1 -354 1 -177 1
-326 4 -331 7 -8 5 -20 198 -26 421 l-1 55 425 1 c234 1 430 2 435 3 7 1 10
162 10 461 0 453 0 460 -20 461 -11 0 -215 0 -452 0 l-433 1 -1 26 c-5 92 -13
333 -24 662 -3 80 -7 208 -10 285 -10 287 -15 414 -20 560 -8 223 -14 401 -20
580 -4 88 -8 214 -10 280 -12 371 -16 470 -20 565 -6 155 -17 486 -18 558 l-1
62 -1082 0 -1081 0 2 -52 c2 -29 6 -125 9 -213 11 -282 17 -438 21 -512 l3
-73 -31 -1 c-37 -1 -444 -1 -469 0 -17 1 -18 29 -18 449 l0 449 -1270 0 c-698
0 -1270 -3 -1271 -6z m1511 -6698 l0 -703 -225 0 -225 0 0 698 c0 384 2 701 5
704 3 3 104 5 225 5 l220 0 0 -704z m-22 -1632 l22 -1 0 -794 0 -794 -225 1
-225 0 0 793 c0 735 1 793 17 796 14 2 337 2 411 -1z"/>
<path d="M1024 19979 c-4 -7 -49 -196 -57 -239 -3 -14 -10 -43 -15 -65 -6 -22
-13 -51 -16 -65 -2 -14 -29 -131 -59 -260 -50 -211 -122 -521 -132 -567 -2
-10 -19 -85 -39 -168 -19 -82 -42 -181 -51 -220 -8 -38 -23 -99 -31 -134 -9
-36 -17 -72 -19 -80 -5 -28 -106 -462 -135 -586 -16 -66 -31 -131 -34 -145 -3
-14 -32 -144 -66 -290 -34 -146 -63 -272 -65 -280 -2 -8 -15 -62 -29 -120 -13
-58 -27 -116 -29 -130 -7 -36 -36 -158 -49 -205 -6 -22 -12 -47 -13 -55 -1 -8
-4 -24 -8 -35 -3 -11 -8 -31 -11 -45 -2 -14 -34 -153 -71 -310 -36 -157 -68
-297 -71 -312 l-5 -28 850 0 c674 0 851 -3 852 -12 7 -110 2 -731 -6 -736 -5
-4 -346 -7 -757 -6 l-748 1 0 -463 0 -462 656 0 c361 -1 658 -2 660 -4 2 -2
-13 -60 -32 -128 -34 -119 -38 -137 -48 -177 -3 -10 -37 -133 -76 -273 -40
-140 -85 -302 -100 -360 -36 -133 -72 -261 -117 -420 -19 -69 -37 -132 -39
-140 -10 -40 -45 -167 -84 -305 -17 -60 -33 -117 -35 -125 -2 -8 -22 -82 -45
-165 -77 -276 -111 -400 -144 -525 -14 -51 -226 -809 -230 -821 -3 -8 -7 -25
-10 -39 -3 -14 -19 -74 -36 -135 -35 -121 -74 -263 -95 -340 -7 -27 -25 -93
-40 -145 -15 -52 -28 -102 -30 -110 -3 -8 -13 -46 -24 -85 -63 -226 -94 -336
-105 -380 -7 -27 -34 -124 -60 -215 -91 -326 -127 -455 -131 -473 -2 -10 -7
-27 -10 -38 -5 -16 -1 -19 27 -19 434 -4 3000 -1 3004 3 3 3 23 74 45 158 36
139 315 1243 324 1279 2 8 15 62 30 120 15 58 28 112 30 120 2 8 13 53 25 100
12 47 24 92 26 100 8 32 26 106 29 120 38 160 173 680 174 669 1 -4 10 -51 21
-105 10 -55 22 -115 25 -134 3 -19 8 -42 10 -50 2 -8 7 -28 9 -45 3 -16 10
-55 16 -85 6 -30 13 -66 16 -80 3 -14 14 -70 25 -125 12 -55 22 -111 24 -125
3 -22 8 -46 30 -150 3 -14 9 -50 15 -80 15 -82 19 -100 24 -118 3 -9 7 -34 10
-55 3 -20 17 -92 31 -160 13 -67 27 -137 30 -156 3 -19 7 -37 9 -40 2 -3 7
-28 10 -55 4 -27 9 -52 11 -55 1 -3 6 -22 9 -41 3 -19 12 -71 21 -115 9 -44
17 -85 19 -92 1 -7 6 -16 10 -20 10 -11 1926 -10 1926 0 0 5 -12 54 -26 110
-14 56 -28 111 -30 122 -2 11 -33 137 -68 280 -36 143 -70 283 -76 310 -7 28
-13 57 -15 65 -39 153 -98 391 -101 410 -3 14 -9 39 -14 55 -5 17 -20 77 -34
135 -14 58 -55 224 -91 370 -36 146 -67 274 -70 285 -7 33 -9 44 -125 510 -61
248 -120 488 -131 535 -11 47 -24 101 -29 120 -5 19 -12 45 -15 57 -3 12 -8
30 -10 40 -2 10 -15 65 -30 123 -29 114 -40 162 -49 200 -10 45 -47 194 -57
233 l-10 37 -400 0 -399 0 6 28 c3 15 17 68 30 117 13 50 29 108 35 130 6 22
14 54 19 70 5 17 23 86 40 155 18 69 36 129 40 133 4 5 310 9 679 9 501 0 671
3 672 11 4 91 0 897 -4 904 -4 6 -190 10 -509 11 -277 0 -510 1 -519 1 -15 1
-16 137 -16 1526 l0 1525 491 0 491 0 0 460 c0 253 -2 461 -5 461 -3 1 -522 2
-1155 3 -1007 1 -1150 3 -1149 16 3 23 10 58 33 145 11 44 22 91 25 105 2 14
14 63 26 110 12 47 23 92 25 100 2 8 13 56 25 105 12 50 23 97 25 105 2 8 26
109 54 223 28 114 51 209 51 210 0 6 -2652 1 -2656 -4z"/>
<path d="M21408 19862 l-27 -3 4 -87 c8 -135 15 -260 20 -342 2 -41 7 -124 10
-185 3 -60 7 -146 10 -190 3 -44 7 -120 10 -170 6 -124 14 -253 20 -360 3 -49
8 -133 10 -185 3 -52 8 -126 10 -165 2 -38 7 -122 10 -185 3 -63 8 -146 11
-185 2 -38 6 -117 9 -175 3 -58 7 -130 9 -160 3 -30 8 -120 12 -200 3 -80 8
-152 10 -160 1 -8 3 -25 3 -37 l1 -23 300 0 301 0 -6 103 c-4 56 -8 131 -10
167 -5 82 -15 242 -20 340 -4 75 -12 231 -20 370 -3 41 -7 118 -10 170 -3 52
-7 131 -10 175 -3 44 -7 121 -10 170 -3 50 -7 137 -10 195 -4 58 -8 141 -10
185 -2 44 -7 121 -10 170 -3 50 -7 131 -10 180 -3 50 -7 126 -10 170 -3 44 -7
130 -10 190 -7 138 -14 217 -19 223 -6 5 -527 9 -568 4z"/>
<path d="M11704 19761 c-2 -2 -4 -211 -4 -463 l0 -458 1645 0 1645 0 0 463 0
462 -1641 0 c-902 0 -1643 -2 -1645 -4z"/>
<path d="M6109 19695 c-1 -12 0 -11046 0 -11097 l1 -38 920 0 920 0 0 439 0
439 235 0 235 0 1 -27 c0 -14 1 -212 1 -438 l0 -413 1193 0 1193 0 -1 5572 -2
5573 -2347 0 c-1562 0 -2348 -3 -2349 -10z m2313 -5095 c0 -2296 -1 -4189 -1
-4205 l-1 -30 -232 0 -233 0 -3 4206 -2 4207 236 -2 237 -1 -1 -4175z"/>
<path d="M11407 18263 c-3 -7 -2 -898 2 -914 0 -4 844 -7 1874 -7 l1874 0 0
464 0 464 -1873 0 c-1030 0 -1875 -3 -1877 -7z"/>
<path d="M11704 16771 c-7 -8 -4 -921 4 -922 27 -3 3260 -4 3270 -1 9 3 12
105 12 466 l0 461 -1641 0 c-902 0 -1642 -2 -1645 -4z"/>
<path d="M11700 14803 l0 -463 1645 0 1645 0 0 463 0 462 -1645 0 -1645 0 0
-462z"/>
<path d="M11610 13686 c-4 -678 -1 -5216 3 -5223 4 -6 404 -9 1058 -9 l1052 1
1 205 1 205 670 0 670 0 1 2446 2 2447 -1729 -1 -1729 0 0 -71z m2311 -845
l36 -1 0 -1524 0 -1524 -201 0 -201 1 0 1521 c0 1196 2 1522 12 1526 10 4 82
4 354 1z"/>
<path d="M11610 4908 c0 -1402 3 -2547 8 -2545 4 2 45 22 92 45 47 22 157 75
245 118 88 43 162 78 165 79 5 1 42 19 360 173 74 36 137 66 140 67 3 0 64 29
135 64 72 35 189 92 260 126 72 34 198 95 280 135 83 40 191 92 240 115 50 23
155 74 235 113 158 76 353 170 525 252 196 94 367 176 530 255 88 43 214 103
280 135 66 32 181 87 255 122 74 36 182 88 240 116 58 27 177 85 265 127 88
43 205 99 260 125 102 48 299 144 525 253 69 33 127 61 130 62 3 1 57 26 120
57 339 164 445 215 545 263 107 51 220 105 515 247 176 85 361 174 495 238 55
26 168 80 250 120 427 206 523 252 800 385 61 29 178 85 260 125 224 108 594
286 780 375 61 29 173 83 250 121 77 37 142 68 145 69 3 0 59 27 125 59 181
88 419 203 520 251 81 38 253 121 523 251 50 25 92 47 92 48 0 2 -2383 4
-5295 3 l-5295 0 0 -2549z"/>
<path d="M1803 7443 c-5 -2 -8 -277 -7 -613 l1 -610 -813 0 -814 0 0 -213 0
-212 740 0 c407 0 740 -3 740 -8 0 -4 -4 -15 -10 -25 -5 -9 -30 -62 -56 -117
-45 -99 -56 -123 -129 -280 -21 -44 -136 -291 -257 -550 -121 -258 -233 -497
-248 -530 -15 -33 -76 -163 -135 -290 -59 -126 -124 -266 -145 -310 -88 -188
-113 -243 -140 -301 -32 -67 -94 -200 -146 -311 -19 -40 -50 -108 -70 -150
-20 -43 -49 -105 -64 -138 -15 -33 -47 -100 -70 -150 -107 -229 -170 -365
-170 -368 0 -5 1649 -2 1653 3 4 4 67 141 282 615 12 28 32 73 45 100 12 28
33 75 47 105 24 52 129 285 187 415 15 33 33 74 41 90 24 56 167 370 201 443
19 41 34 75 34 77 0 2 17 41 39 87 21 45 58 127 81 181 30 68 46 94 52 84 4
-8 59 -140 122 -293 205 -501 507 -1239 661 -1614 53 -129 101 -247 107 -262
5 -16 13 -29 16 -29 9 -2 1652 -4 1652 -3 0 5 -37 91 -67 154 -19 41 -93 203
-165 360 -72 157 -154 336 -184 399 -30 62 -54 115 -54 118 0 3 -16 40 -36 82
-20 42 -72 155 -116 251 -92 200 -280 611 -328 715 -17 39 -38 84 -45 100 -8
17 -58 127 -113 245 -54 118 -112 244 -128 279 -16 35 -65 143 -110 240 l-80
176 -362 3 c-199 1 -362 4 -362 6 0 5 28 71 67 156 17 36 47 103 68 150 21 47
41 87 46 90 4 3 410 5 903 5 l896 0 0 212 0 213 -845 0 -845 0 -1 23 c0 12 -1
286 -1 610 0 323 -3 588 -6 588 -14 3 -1552 4 -1559 2z"/>
<path d="M7665 7386 c3 -12 44 -176 91 -366 47 -190 87 -354 89 -365 3 -11 12
-49 21 -84 9 -36 18 -73 20 -83 2 -10 7 -28 10 -40 19 -74 26 -68 -75 -68
l-91 0 0 -1080 0 -1080 43 -1 c23 -1 58 -1 78 0 l36 1 -8 -53 c-5 -28 -11 -68
-14 -87 -3 -19 -7 -46 -10 -60 -2 -14 -7 -43 -10 -65 -7 -46 -4 -33 -44 -280
-17 -104 -33 -208 -36 -230 -2 -22 -6 -49 -9 -60 -5 -25 -14 -87 -22 -140 -3
-22 -9 -65 -14 -95 -5 -30 -12 -71 -15 -90 -3 -19 -7 -46 -10 -60 -3 -14 -7
-42 -10 -62 -8 -60 -14 -101 -20 -128 -3 -14 -8 -42 -10 -64 -3 -21 -16 -107
-30 -190 -23 -146 -30 -191 -41 -266 -3 -19 -7 -43 -10 -52 -3 -10 -2 -19 3
-19 4 -1 268 -2 586 -3 379 -1 577 2 578 9 0 5 2 19 4 30 4 24 33 242 40 300
5 41 11 89 21 173 3 26 7 58 9 72 2 14 7 48 10 75 3 28 8 61 10 75 3 14 7 52
11 85 3 33 8 67 9 75 2 8 6 44 10 80 4 36 8 72 10 80 3 18 17 121 20 159 2 14
8 64 14 111 7 47 14 101 16 120 2 19 11 87 19 150 9 63 18 139 21 169 4 30 8
61 10 70 1 9 6 43 9 76 11 98 8 95 87 94 l69 -1 0 -979 0 -979 769 0 770 0 -4
38 c-2 20 -7 84 -10 142 -3 58 -8 128 -10 155 -2 28 -7 93 -10 145 -3 52 -8
122 -10 155 -2 33 -7 101 -11 150 -3 50 -7 108 -9 130 -2 22 -3 64 -4 92 l-1
53 -172 2 -173 3 0 445 0 445 100 2 c55 1 105 2 112 2 8 1 11 266 11 1080 l0
1079 -89 0 c-49 -1 -91 1 -94 4 -4 3 75 340 114 488 31 115 45 174 86 340 25
101 45 187 45 191 0 7 -1246 6 -1253 -1 -3 -3 -7 -23 -10 -45 -4 -34 -27 -173
-42 -255 -4 -25 -32 -191 -40 -240 -2 -14 -11 -68 -20 -120 -9 -52 -18 -104
-19 -115 -19 -123 -40 -232 -47 -239 -8 -9 -106 -13 -115 -4 -2 3 -7 16 -9 29
-2 13 -8 56 -15 94 -6 39 -12 84 -15 100 -5 38 -13 94 -25 165 -5 30 -12 70
-15 88 -3 17 -7 45 -10 60 -3 16 -7 44 -9 63 -9 65 -17 114 -21 135 -3 12 -7
39 -10 60 -4 21 -11 68 -17 104 -9 60 -14 89 -17 116 -1 7 -177 11 -591 11
l-590 0 5 -21z m1600 -1426 c20 0 20 -6 20 -654 0 -360 -3 -657 -7 -661 -3 -4
-97 -7 -207 -8 l-201 -2 0 662 0 662 28 3 c21 2 224 2 367 -2z"/>
<path d="M5569 7266 c-1 0 -2 -92 -3 -204 -1 -173 1 -203 14 -206 8 -2 440 -3
960 -3 l945 2 2 206 2 206 -960 0 c-527 0 -960 0 -960 -1z"/>
<path d="M5425 6393 l0 -208 1088 0 c961 0 1087 2 1088 15 0 8 1 102 2 208 l2
192 -1090 0 -1091 0 1 -207z"/>
<path d="M5577 5930 c-9 -4 -12 -57 -12 -207 l0 -203 30 0 c50 -1 1837 -2
1878 -1 l37 1 0 205 c0 113 -3 205 -7 206 -35 4 -1917 3 -1926 -1z"/>
<path d="M5565 5053 l0 -208 973 0 972 0 0 207 0 208 -973 0 -973 0 1 -207z"/>
<path d="M5523 3403 l0 -1183 574 0 573 0 0 90 c0 65 4 90 13 91 6 1 199 3
427 4 228 1 420 3 426 4 9 1 12 284 11 1089 l0 1089 -1012 0 -1012 0 0 -1184z
m1334 96 l0 -680 -121 3 -121 3 -1 665 c0 366 1 670 3 676 3 7 45 11 122 12
l118 0 0 -679z"/>
</g>
</svg>
