<svg xmlns="http://www.w3.org/2000/svg" viewBox="0 0 534.36 55.15"><defs><style>.a,.b{fill:#1a1a1a;}.b{stroke:#1a1a1a;stroke-miterlimit:10;}.c{fill:#c6c;}</style></defs><path class="a" d="M0,1.22H7.11V26.79L17,1.22H24.2L13.83,26.79,25,54H17L7.11,26.82V54H0Z" transform="translate(0 0.01)"/><path class="a" d="M29.46,1.22h7.11V48H48.19v6H29.46Z" transform="translate(0 0.01)"/><path class="a" d="M52.64,1.22h7.11V54H52.64Z" transform="translate(0 0.01)"/><path class="a" d="M85.48,2.31V9.25a10.36,10.36,0,0,0-5.84-2.32,5.85,5.85,0,0,0-4.58,2,7,7,0,0,0-1.78,5,8.57,8.57,0,0,0,1.27,4.75,21.73,21.73,0,0,0,2.13,2.73c1,1.12,2.28,2.45,3.85,4A31.74,31.74,0,0,1,86.44,33,16.69,16.69,0,0,1,88,40.66a14.81,14.81,0,0,1-3.45,10.08,11.33,11.33,0,0,1-8.85,3.86A12.27,12.27,0,0,1,68,52.11v-7c2.53,1.84,4.83,2.77,6.9,2.77a5.65,5.65,0,0,0,4.55-1.94A7.85,7.85,0,0,0,81,40.7a10.44,10.44,0,0,0-1.27-5.16A20.33,20.33,0,0,0,78,33q-1.15-1.41-2.9-3.16c-1.8-1.77-3.29-3.35-4.48-4.71A23.14,23.14,0,0,1,68,21.56,15.64,15.64,0,0,1,66.31,14q0-6.18,3.21-9.81A11.09,11.09,0,0,1,78.24.55,15.46,15.46,0,0,1,85.48,2.31Z" transform="translate(0 0.01)"/><path class="b" d="M136.16,28.91q0,14-3.11,19.86t-10.42,5.87q-7.69,0-10.84-6.32t-3.11-22q0-14.07,3.08-19.92T122.29.52q6.63,0,9.84,4.54a21.76,21.76,0,0,1,3.08,8.65A89.91,89.91,0,0,1,136.16,28.91Zm-7.45.75q0-13.71-1.23-18.19c-.82-3-2.49-4.51-5-4.51s-4.22,1.38-5.06,4.14-1.23,8.36-1.23,16.75q0,11.58,1.3,16.06,1.33,4.25,5,4.24t4.92-4Q128.72,40.25,128.71,29.66Z" transform="translate(0 0.01)"/><path class="b" d="M143.21,1.22h9.36q6.77,0,9.84,3.42t3.08,10.94q0,10.51-6.19,13.6-3.11,1.39-9,1.4V54h-7.1Zm7.1,23.28c2.94,0,5-.6,6.09-1.78s1.71-3.35,1.71-6.43-.55-5.44-1.64-6.9a6,6,0,0,0-5.16-2.19h-1Z" transform="translate(0 0.01)"/><path class="b" d="M171,1.22h18.87v6H178.07V24h10.46v6H178.07V48h11.76v6h-18.9Z" transform="translate(0 0.01)"/><path class="b" d="M196.39,1.22H203l7.08,21.06a190.41,190.41,0,0,1,5.43,19c-.57-4.07-1-7.77-1.26-11.07s-.42-6.41-.42-9.33V1.22H221V54h-6.67l-8-23.75c-.73-2.21-1.42-4.47-2.07-6.8s-1.25-4.76-1.79-7.32c-.05-.32-.12-.7-.23-1.16l-.35-1.57c.06.59.12,1.1.17,1.52s.08.78.1,1.08l.38,5.36.37,6.53V31l.38,23h-7Z" transform="translate(0 0.01)"/><path class="b" d="M249.83,2.08V8.47a11,11,0,0,0-4.58-1.34,7.43,7.43,0,0,0-4.34,1.25,9.15,9.15,0,0,0-3,3.85,24.6,24.6,0,0,0-1.74,6.58,68.8,68.8,0,0,0-.56,9.41q0,19.56,10,19.55a10.64,10.64,0,0,0,4.21-1.09v6.53a11.55,11.55,0,0,1-5.75,1.43q-16,0-16-26.18,0-14.14,3.92-21A12.87,12.87,0,0,1,244,.55,12.2,12.2,0,0,1,249.83,2.08Z" transform="translate(0 0.01)"/><path class="b" d="M263.35,1.22h5.53L280.2,54h-7l-2-10.28H260.72l-2,10.28h-6.89Zm6.8,37-1.57-8.41Q267,21.25,266,11.49q-.48,4.76-1.23,9.63T263,31.46l-1.3,6.76Z" transform="translate(0 0.01)"/><path class="b" d="M286.83,1.22h6.09l4.64,21.53c.57,2.67,1.09,5.36,1.56,8.09s.89,5.53,1.28,8.49a6.74,6.74,0,0,1,.1-.9,4.51,4.51,0,0,1,.07-.47l1-6,.89-5.74.79-3.79,4.13-21.16h6.16L318.41,54h-6.8l-1.2-17.91c0-.91-.08-1.69-.12-2.35s0-1.21,0-1.64l-.36-7.1-.17-6.49v-.29a2.44,2.44,0,0,0-.06-.6l-.17,1.06C309.35,20,309.19,21,309,22s-.28,1.72-.4,2.36l-.88,4.82L307.41,31,303,54h-4.78L294,34.08c-.57-2.62-1.07-5.29-1.52-8s-.85-5.53-1.22-8.49L289.22,54h-6.7Z" transform="translate(0 0.01)"/><path class="b" d="M324.29,1.22h9.36q6.78,0,9.85,3.42t3.07,10.94q0,10.51-6.18,13.6c-2.08.93-5.07,1.4-9,1.4V54h-7.11ZM331.4,24.5c2.94,0,5-.6,6.08-1.78s1.71-3.35,1.71-6.43-.55-5.44-1.64-6.9a6,6,0,0,0-5.16-2.19h-1Z" transform="translate(0 0.01)"/><path class="b" d="M352,1.22h7V38.51q0,5.72,1,7.59c.67,1.25,2.06,1.87,4.17,1.88s3.44-.55,4.1-1.64,1-3.39,1-6.8V1.22h7V39.54q0,8.61-2.63,11.65-3.15,3.45-9.61,3.45-7.11,0-10-4.44-2-3-2-11.69Z" transform="translate(0 0.01)"/><path class="b" d="M402.05,2.31V9.25a10.39,10.39,0,0,0-5.85-2.32,5.88,5.88,0,0,0-4.58,2,7,7,0,0,0-1.77,5,8.65,8.65,0,0,0,1.26,4.75,20.92,20.92,0,0,0,2.14,2.73q1.49,1.68,3.84,4A31.29,31.29,0,0,1,403,33a16.7,16.7,0,0,1,1.58,7.62,14.77,14.77,0,0,1-3.46,10.08,11.32,11.32,0,0,1-8.85,3.86,12.27,12.27,0,0,1-7.76-2.49v-7c2.53,1.84,4.83,2.77,6.91,2.77A5.69,5.69,0,0,0,396,46a7.82,7.82,0,0,0,1.64-5.25,10.43,10.43,0,0,0-1.26-5.16A22.29,22.29,0,0,0,394.53,33c-.78-.94-1.74-2-2.91-3.16-1.8-1.77-3.29-3.35-4.47-4.71a22.56,22.56,0,0,1-2.64-3.59A15.79,15.79,0,0,1,382.83,14q0-6.18,3.22-9.81A11.07,11.07,0,0,1,394.83.5,15.52,15.52,0,0,1,402.05,2.31Z" transform="translate(0 0.01)"/><path class="c" d="M431.31,18.38h-7l-.07-2.09q0-8.64,2.6-12.16T435.66.57q11.65,0,11.66,12.92,0,8.71-8.72,25.12l-4.2,7.9a3.94,3.94,0,0,1-.21.41l-.48,1h13.12V54H423.62q.57-1.29,2.42-5.16t5-10.42q2.7-5.74,4.51-9.74t2.73-6.57a26.86,26.86,0,0,0,1.85-8.85q0-6.55-4.55-6.56-4.36,0-4.37,8.13v3Z" transform="translate(0 0.01)"/><path class="c" d="M476.39,28q0,14.22-2.74,20.51-2.7,6.07-9.19,6.08t-9.23-6.12q-2.7-5.94-2.7-20.88t2.7-20.89q2.7-6.15,9.2-6.15A9.42,9.42,0,0,1,473.31,6Q476.39,11.68,476.39,28Zm-7.25,0q0-12-1-16.55c-.67-3-1.91-4.55-3.73-4.54s-3.05,1.5-3.76,4.51-1,8.42-1,16.24.33,13.24,1,16.27,2,4.51,3.76,4.51,3-1.49,3.69-4.48S469.14,35.81,469.14,28Z" transform="translate(0 0.01)"/><path class="c" d="M489.27,18.38h-7l-.07-2.09q0-8.64,2.6-12.16T493.62.57q11.65,0,11.65,12.92,0,8.71-8.71,25.12l-4.21,7.9-.2.41-.48,1h13.06V54H481.58q.59-1.29,2.43-5.16t5-10.42q2.69-5.74,4.51-9.74c1.2-2.67,2.12-4.86,2.73-6.57a26.86,26.86,0,0,0,1.85-8.85q0-6.55-4.55-6.56-4.38,0-4.37,8.13v3Z" transform="translate(0 0.01)"/><path class="c" d="M534.36,28q0,14.22-2.74,20.51-2.7,6.07-9.19,6.08t-9.23-6.12q-2.7-5.94-2.7-20.88t2.7-20.89Q515.9.57,522.39.57A9.43,9.43,0,0,1,531.28,6Q534.36,11.68,534.36,28Zm-7.25,0q0-12-1-16.55c-.67-3-1.91-4.55-3.73-4.54s-3,1.5-3.76,4.51-1,8.42-1,16.24.33,13.24,1,16.27,2,4.51,3.76,4.51,3-1.49,3.69-4.48S527.11,35.81,527.11,28Z" transform="translate(0 0.01)"/></svg>