<svg xmlns="http://www.w3.org/2000/svg" xmlns:xlink="http://www.w3.org/1999/xlink" viewBox="0 0 573.06 492.89"><defs><style>.a,.b{stroke:#f2f2f2;stroke-miterlimit:10;stroke-width:20px;}.a{fill:url(#a);}.b{fill:url(#b);}.c{fill:#fff;}</style><linearGradient id="a" x1="159.43" y1="413.64" x2="493.81" y2="79.25" gradientUnits="userSpaceOnUse"><stop offset="0.01" stop-color="#ff5fff"/><stop offset="1" stop-color="#29abe2"/></linearGradient><linearGradient id="b" x1="25.53" y1="464.95" x2="100.54" y2="389.94" gradientUnits="userSpaceOnUse"><stop offset="0" stop-color="#e1ab85"/><stop offset="1" stop-color="#ff5fff"/></linearGradient></defs><circle class="a" cx="326.62" cy="246.45" r="236.45"/><circle class="b" cx="63.04" cy="427.44" r="53.04"/><path class="c" d="M199,183.08c0-.36.14-4,.22-5.19A43.83,43.83,0,0,1,191.85,188a99.54,99.54,0,0,1-14.18,12.53A104.72,104.72,0,0,1,167,207.13c-1.73-3.39-2.81-4.68-6-7.49A76.55,76.55,0,0,0,183.71,184a67.72,67.72,0,0,0,9.65-11.88H173.63a74,74,0,0,0-8.85.36v-8.78c2.73.5,4,.5,9.07.5h24.91l-.07-5.76a51,51,0,0,0-.36-6.62h9.51a45.46,45.46,0,0,0-.29,6.12v.43l.14,5.83H215a41.11,41.11,0,0,0,8.49-.5v8.71a72.85,72.85,0,0,0-8.28-.29h-7.42l.36,33.41c.08,3.53.22,6.27.44,8.28h-9.8a45.38,45.38,0,0,0,.44-6.91v-1.29L199,184.09Z" transform="translate(-3.76 -1.94)"/><path class="c" d="M234.62,201.37A68.6,68.6,0,0,0,255.93,196a48.13,48.13,0,0,0,21.39-17.64,60.48,60.48,0,0,0,7.34-14.4,31.13,31.13,0,0,0,7.63,7.05c-6.12,13.18-13,21.68-22.82,28.23-7.35,4.9-16.28,8.42-27.44,10.8a26.45,26.45,0,0,0-4.75,1.22Zm6.12-44.72c8.57,5.33,13,8.64,18.57,13.9l-6.19,7.85a75.44,75.44,0,0,0-18.36-14.62Z" transform="translate(-3.76 -1.94)"/><path class="c" d="M358.68,175.23a32.44,32.44,0,0,0-2,4.54c-3.74,10.58-9.22,18.57-16.71,24.33-5.11,4-9.79,6.41-18.86,9.8-1.58-3.6-2.45-4.83-5.62-8.36,8.79-2.23,14.48-4.89,20-9.5,5.33-4.47,8.43-8.86,11.59-16.85H312a72.85,72.85,0,0,0-9.22.36v-8.79a50.29,50.29,0,0,0,9.36.51h34.28a31.61,31.61,0,0,0,8.13-.65Zm-49.76-21.82a41.07,41.07,0,0,0,8.43.51h25.13a41,41,0,0,0,8.42-.51v8.86a55.07,55.07,0,0,0-8.28-.36H317.2a55.07,55.07,0,0,0-8.28.36Z" transform="translate(-3.76 -1.94)"/><path class="c" d="M426.07,157.3a30.45,30.45,0,0,0-2.66,2.52,127.4,127.4,0,0,1-17,14.83V205.4a54.12,54.12,0,0,0,.36,8H396.69a40.53,40.53,0,0,0,.43-7.77V180.27c-8.42,5-12.45,6.91-25.7,11.66a27.07,27.07,0,0,0-4.83-8.2A105.17,105.17,0,0,0,404.4,165c6.4-5,11.3-9.93,13.39-13.46Z" transform="translate(-3.76 -1.94)"/><path class="c" d="M439.82,201.37A68.6,68.6,0,0,0,461.13,196a48.13,48.13,0,0,0,21.39-17.64,60.48,60.48,0,0,0,7.34-14.4,31.13,31.13,0,0,0,7.63,7.05c-6.12,13.18-13,21.68-22.82,28.23-7.35,4.9-16.28,8.42-27.44,10.8a26.45,26.45,0,0,0-4.75,1.22Zm6.12-44.72c8.57,5.33,13,8.64,18.57,13.9l-6.19,7.85A75.44,75.44,0,0,0,440,163.78Z" transform="translate(-3.76 -1.94)"/><path class="c" d="M204.59,268.11a69.78,69.78,0,0,0-8.78.43v-8a61.18,61.18,0,0,0,8.71.5h19.59v-.5a34.47,34.47,0,0,0-.22-4H227a38.47,38.47,0,0,0,8.49-5.83h-19.8c-3,0-4.89.07-7.2.28v-7.2a52.22,52.22,0,0,0,7.27.36h23.84a33.45,33.45,0,0,0,5.47-.28l4,4.39-2.59,2.16A100.7,100.7,0,0,1,232,261v.07h18.79a59.42,59.42,0,0,0,8.86-.5v8a70.91,70.91,0,0,0-8.93-.43H232v12.6c0,2.52-.22,3.53-.94,4.54-1.22,1.8-3.67,2.37-10.15,2.37-.94,0-3.31-.07-7.06-.28a27.51,27.51,0,0,0-2.37-7.64,64.44,64.44,0,0,0,8.92.72c3.17,0,3.68-.21,3.68-1.65V268.11Zm3.67-35.57a41.36,41.36,0,0,0-5.4-8.14l7.28-2.16a53.38,53.38,0,0,1,6.55,10.3h7.63a41.85,41.85,0,0,0-4.39-9.07l7.49-2.09a57.32,57.32,0,0,1,5,11.16h6.12a47.62,47.62,0,0,0,5.9-10.8l7.78,2.16a76.31,76.31,0,0,1-5.4,8.64H250a85.48,85.48,0,0,0,8.86-.29,44.48,44.48,0,0,0-.29,6v6.69a43,43,0,0,0,.36,5.48h-7.85V239.24h-47V250.4h-7.85a31.49,31.49,0,0,0,.36-5.55v-6.62a46.6,46.6,0,0,0-.29-6,68.87,68.87,0,0,0,8.5.29Z" transform="translate(-3.76 -1.94)"/><path class="c" d="M278.25,242.84A63.63,63.63,0,0,1,268.46,258a21.78,21.78,0,0,0-5.91-6.12,52.34,52.34,0,0,0,12.17-21,37.76,37.76,0,0,0,1.58-6.7l8.21,2a10.74,10.74,0,0,1-.64,1.87,16.48,16.48,0,0,0-.72,2.38q-.54,1.62-1.95,5.4h11.74v-5.47a58.52,58.52,0,0,0-.51-8.64h9.22a66.75,66.75,0,0,0-.43,8.57v5.54h15c3.67,0,6.76-.14,9.72-.43v7.92c-3.1-.29-6.05-.43-9.51-.43H301.22v13.24h12.46a74.18,74.18,0,0,0,8.85-.43v7.92a82,82,0,0,0-8.85-.43H301.22v15.27H318.5a78.87,78.87,0,0,0,10-.51v8.21a84.07,84.07,0,0,0-9.79-.5H274.65a92.73,92.73,0,0,0-10.23.5V277.9a84.48,84.48,0,0,0,10,.51h18.51V263.14H281.85a77.2,77.2,0,0,0-8.71.43v-7.92a65.74,65.74,0,0,0,8.64.43h11.16V242.84Z" transform="translate(-3.76 -1.94)"/><path class="c" d="M350.61,241.61a37.9,37.9,0,0,0,9.65,13.9c-.36.57-.65,1.08-.87,1.37a22.21,22.21,0,0,0-2.88,6.12,47.33,47.33,0,0,1-6.84-12.1c.22,4.18.29,5.91.29,9.87v18.5a74,74,0,0,0,.43,8.86H341.9a75,75,0,0,0,.43-8.86V264.44c0-3.17.21-8.28.5-10.8a59.48,59.48,0,0,1-4.32,10.94,41.86,41.86,0,0,1-4.25,7.35,27.3,27.3,0,0,0-4-7.85c4.68-5.62,8.64-13.61,11-22.47h-3.53a34.63,34.63,0,0,0-5.25.29v-7.7a26,26,0,0,0,5.32.36h4.47v-5.84a47.63,47.63,0,0,0-.43-7.49h8.49a49.87,49.87,0,0,0-.43,7.42v5.91h4.11a21.76,21.76,0,0,0,4.6-.36v7.63c-1.65-.15-2.88-.22-4.53-.22Zm9.86,46.23c.22-2.66.36-5.69.36-9.22V231.46c0-2.45-.07-4.18-.28-7.63,1.94.14,3.31.21,6.4.21h21.61a42.07,42.07,0,0,0,6.19-.29c-.15,2.09-.22,4-.22,7.35v47.45c0,3.82.15,6.91.36,9.15h-8.21v-4.11H368.61v4.25Zm8.14-46.23h18.07V231.39H368.61Zm0,17h18.07V248.45H368.61Zm0,17.78h18.07V265.45H368.61Z" transform="translate(-3.76 -1.94)"/><path class="c" d="M399.86,233.4a31.44,31.44,0,0,0,5.76.36h14.11a40.25,40.25,0,0,0,5.76-.28v7.41a33.7,33.7,0,0,0-5.47-.29h-14.4a43.94,43.94,0,0,0-5.76.29ZM449,250.9a23.22,23.22,0,0,0-.29,4c0,7.13,1.58,12.32,5,16.42a31.81,31.81,0,0,0,13.68,9.43,28.29,28.29,0,0,0-4.11,7.64c-8.57-4.25-14.33-10-17.93-17.86-3,8.64-8.28,13.9-18.21,18a32.45,32.45,0,0,0-3.46-6.55c.07,2.59.14,3.38.29,5h-7.2v-3h-7.13v3.75h-7.42c.22-2.23.36-4.75.36-7.06v-11a45.53,45.53,0,0,0-.29-5.61,30,30,0,0,0,4.83.29h12.38a21.55,21.55,0,0,0,4.32-.22,44.23,44.23,0,0,0-.21,5.18v12.1c5.69-1.94,9.14-4.1,12.24-7.7,3.74-4.32,5.33-9.94,5.33-18.36a36.34,36.34,0,0,0-.22-4.47Zm-46.38-27.58a30.64,30.64,0,0,0,5.84.36h9.21a31.09,31.09,0,0,0,5.84-.36v6.92c-1.95-.15-3.24-.22-5.84-.22H408.5c-2.6,0-4.11.07-5.84.22Zm0,20.88a35.3,35.3,0,0,0,4.54.22H419a31.72,31.72,0,0,0,4.46-.22v6.7a36.46,36.46,0,0,0-4.46-.22H407.2a37.24,37.24,0,0,0-4.54.22Zm0,10a35.3,35.3,0,0,0,4.54.22H419a31.72,31.72,0,0,0,4.46-.22v6.7a36.13,36.13,0,0,0-4.53-.22H407.2a37.24,37.24,0,0,0-4.54.22Zm6.77,23.62h7.49V270.2h-7.49ZM449.11,222a26.29,26.29,0,0,0-.29,4.1c0,3.82.72,8.07,1.8,10.37a20.46,20.46,0,0,0,6.77,8.14c2.52,1.87,4.61,2.88,9.14,4.46a29.69,29.69,0,0,0-4,7.13,36.11,36.11,0,0,1-12.24-8.79c-2.3-2.59-2.88-3.45-5-7.7a27,27,0,0,1-5,8.35c-3,3.39-6.12,5.48-11.95,8.14a23.26,23.26,0,0,0-4.18-6.48c7-2.31,11-5.11,14-9.87,2.24-3.6,3.17-7.77,3.17-13.82a37.72,37.72,0,0,0-.21-4Zm-12.17,36.72c-1.87,6.55-2.81,8.86-5.11,12.67l-6.7-3A27.73,27.73,0,0,0,430,256.59Zm.5-31.68a41.23,41.23,0,0,1-4.75,12.45l-6.77-2.73a26.42,26.42,0,0,0,4.39-11.45Zm27.87.14a57.64,57.64,0,0,1-8,12.39,21.55,21.55,0,0,0-6.12-3.68,36.3,36.3,0,0,0,7.13-11.45Zm-.15,31.47a52.94,52.94,0,0,1-7.41,12.17,23.06,23.06,0,0,0-6.05-3.75,36.71,36.71,0,0,0,6.55-11.23Z" transform="translate(-3.76 -1.94)"/><path class="c" d="M239.55,349.24h-14.1a38,38,0,0,0-5.64.3v-3.72a35,35,0,0,0,5.76.3h14v-3.9H227a37.83,37.83,0,0,0-4.92.24,28.4,28.4,0,0,0,.24-4V335.8a29.84,29.84,0,0,0-.24-4.08,40,40,0,0,0,5,.24h12.48v-4h-17.4a51.35,51.35,0,0,0-6.72.36v-4a44.52,44.52,0,0,0,6.84.36h17.28a24.16,24.16,0,0,0-.36-5.4h4.38a19.56,19.56,0,0,0-.42,5.4h18.36a45.45,45.45,0,0,0,6.9-.36v4a53.67,53.67,0,0,0-6.78-.36H243.15v4H257a38.42,38.42,0,0,0,4.92-.24,29.27,29.27,0,0,0-.24,4.08v2.64a28.4,28.4,0,0,0,.24,4,37.42,37.42,0,0,0-4.86-.24H243.15v3.9h13.08a58.64,58.64,0,0,0,6.72-.24,47.49,47.49,0,0,0-.18,5v2.52a30.49,30.49,0,0,0,6.36-.36v3.78a40.81,40.81,0,0,0-6.36-.3v3.9a35.37,35.37,0,0,0,.36,6h-3.9v-2.46H243.15v5c0,4.14-1.2,5-7,5-1.26,0-2.34-.06-5.7-.24a9.89,9.89,0,0,0-1-3.78,51.9,51.9,0,0,0,7.44.6c2.16,0,2.7-.3,2.7-1.62v-4.92H225.09a40,40,0,0,0-5.88.3v-3.72a35.89,35.89,0,0,0,5.76.3h14.58V356.5h-18a43.53,43.53,0,0,0-6.54.3V353a39,39,0,0,0,6.54.36h18ZM225.93,334.9v4.44h13.62V334.9Zm17.22,4.44H258V334.9H243.15Zm16.08,14v-4.14H243.15v4.14Zm-16.08,7.44h16.08V356.5H243.15Z" transform="translate(-3.76 -1.94)"/><path class="c" d="M291.75,328.72a45.85,45.85,0,0,0-6.42-8.34l3.6-1.44c4.2,5,4.8,5.88,7,9.78h8.58a40.75,40.75,0,0,0,6.78-9.72l3.84,1.44a65.64,65.64,0,0,1-6.48,8.28h12.3a38.94,38.94,0,0,0,6-.36v4.08a41.16,41.16,0,0,0-6-.36H280a42.92,42.92,0,0,0-6,.36v-4.08a30.39,30.39,0,0,0,6,.36Zm-9.9,38.88a39,39,0,0,0,.36,6.36h-4.38a45.63,45.63,0,0,0,.3-6.48v-25.2a52.58,52.58,0,0,0-.18-5.34,57.24,57.24,0,0,0,5.82.24h9.42a34.15,34.15,0,0,0,5.46-.24c-.12,1.38-.18,2.94-.18,6.36v25.44c0,3.6-1.14,4.62-5,4.62-1.26,0-2.7-.06-5-.24a16.86,16.86,0,0,0-1-3.72,28.25,28.25,0,0,0,5.22.6c1.74,0,2.1-.3,2.1-1.56v-8h-13Zm13-20.4v-6.6h-13v6.6Zm0,9.84v-6.48h-13V357Zm15.6-19.38a30,30,0,0,0-.3,5.64v12.18c0,4.56,0,5.34.24,6.78h-4.2a49.7,49.7,0,0,0,.24-6.72V343.3a32.92,32.92,0,0,0-.3-5.64Zm12.9-1.8a34.13,34.13,0,0,0-.36,6.48v26c0,4.2-1.26,5.28-6.18,5.28-2,0-4-.12-7-.36a15.07,15.07,0,0,0-1.14-4,47.76,47.76,0,0,0,7.74.78c2.34,0,2.76-.24,2.76-1.8v-26a31.58,31.58,0,0,0-.36-6.36Z" transform="translate(-3.76 -1.94)"/><path class="c" d="M379.29,325.54c-6.84,5.88-9.72,7.92-16.26,11.46,1.68,1.2,2.4,1.68,4.68,3.42L366.15,342H377a35.79,35.79,0,0,0,6.36-.3l2.34,2.58a22.29,22.29,0,0,0-1.62,2,48.38,48.38,0,0,1-10.5,10.5,14.8,14.8,0,0,0-3.12-2.46,40.75,40.75,0,0,0,9.6-8.7H361.83v23.28c0,3.84-1.44,4.86-7,4.86-1.86,0-5-.12-7.08-.3a15,15,0,0,0-1-4.14,50.59,50.59,0,0,0,8.4.72c2,0,2.64-.42,2.64-1.74V345.58h-18.6a45.11,45.11,0,0,0-6.18.36v-4.32a45,45,0,0,0,6.66.36h24a89.49,89.49,0,0,0-16.56-10.2l2.46-2.64c5.28,2.76,7.32,3.9,10.2,5.7a58.5,58.5,0,0,0,12.78-8.52H344.79a40.05,40.05,0,0,0-6.18.3v-4.08a35.83,35.83,0,0,0,6.3.36h27.48a40.41,40.41,0,0,0,4.44-.18Z" transform="translate(-3.76 -1.94)"/><path class="c" d="M390.27,346.06a13.68,13.68,0,0,0,2.16.18c.3,0,2.1-.06,3.06-.12,2.22-2.64,2.82-3.42,4.56-5.76a59.5,59.5,0,0,0-9.12-9.18l2.22-2.82c1.32,1.26,1.62,1.5,2.58,2.46,3.3-5,5.34-8.76,5.94-11.1l3.72,1.68a21.77,21.77,0,0,0-1.38,2.28,92,92,0,0,1-5.94,9.42c1.8,1.8,2.76,2.88,4,4.38,4.08-5.88,6.12-9.18,6.9-11.34l3.54,2.1c-.54.72-.9,1.26-1.74,2.46-4.8,7.26-8,11.7-11.1,15.18,4.5-.3,5.58-.36,9.72-.9a50.44,50.44,0,0,0-2.4-4.74l2.76-1.08a65,65,0,0,1,5.28,11.4L412,351.94c-.6-1.92-.78-2.46-1.38-4a9.65,9.65,0,0,1-1.5.18c-.48.06-1.86.24-4.14.48v19.74a43.57,43.57,0,0,0,.36,6.12H401a44.5,44.5,0,0,0,.36-6.18V348.94c-4.44.42-4.44.42-6.72.6a21.73,21.73,0,0,0-3.66.42Zm7.38,7.44c-1.08,8.82-1.74,11.58-4,17l-3.3-1.56c2.22-4.74,3.24-8.82,4-16.08Zm13.62-1a95.5,95.5,0,0,1,3.54,14.28l-3.48,1.14a79.14,79.14,0,0,0-3.06-14.46Zm10.14-19a46.67,46.67,0,0,1-6.12,9.36,10.92,10.92,0,0,0-3.12-2.34,39,39,0,0,0,6.72-10.26,37.56,37.56,0,0,0,3.36-9.9l4.08,1c-.48,1.14-.48,1.14-1.56,4.14-.48,1.32-1,2.52-1.74,4.44h15a32.47,32.47,0,0,0,4.86-.24c-.18,1.74-.18,1.74-.3,9.24-.06,9.42-1.2,21.24-2.58,27.18-1.38,5.76-2.88,7-8.64,7-1.74,0-4-.12-6.36-.36a14.43,14.43,0,0,0-1-4.14,47.34,47.34,0,0,0,8,.78c2.82,0,3.48-.72,4.32-4.56,1.56-6.84,2.46-18.48,2.58-31.38Zm6.36,24.06a58.11,58.11,0,0,0-8.22-14.88l3.12-1.8a71.92,71.92,0,0,1,8.52,14.64Z" transform="translate(-3.76 -1.94)"/><path class="c" d="M348.27,448a29.93,29.93,0,0,1-5.07-2.22,11.24,11.24,0,0,1-5.08-9.89c0-5.21,0-10.43,0-15.64,0-1,.25-1.42,1.29-1.34s2,0,3.11,0v7.79a12.68,12.68,0,0,1,6.94-2.52,11.91,11.91,0,0,1,3.34,23.46c-.36.09-.71.24-1.06.35Zm9.2-11.81a7.49,7.49,0,1,0-7.56,7.43A7.59,7.59,0,0,0,357.47,436.18Z" transform="translate(-3.76 -1.94)"/><path class="c" d="M274.89,418.12c2.53.8,5.13,1.46,7.2,3.29l1.26,1.11L280.22,426a10.28,10.28,0,0,0-9.05-3,10,10,0,0,0-6.27,3.73,10.3,10.3,0,0,0,.41,13.08c3.7,4.16,8.82,4.4,14.81.59l2.84,3.49a14.63,14.63,0,0,1-7.15,3.73c-.41.08-.8.22-1.21.33h-3.44a5.37,5.37,0,0,0-.8-.27c-5.89-1.1-9.66-4.64-11.64-10.21-.32-.88-.5-1.82-.74-2.73v-3.45c.1-.31.22-.61.29-.93,1.37-6.23,5.21-10.09,11.28-11.82l1.61-.46Z" transform="translate(-3.76 -1.94)"/><path class="c" d="M295,448a32.38,32.38,0,0,1-5.32-2.6,11.7,11.7,0,0,1-3.51-14.4,11.88,11.88,0,1,1,13.62,16.64c-.36.1-.71.24-1.06.36Zm-5.53-11.91a7.49,7.49,0,0,0,7.58,7.53,7.67,7.67,0,0,0,7.41-7.61,7.59,7.59,0,0,0-7.57-7.43A7.44,7.44,0,0,0,289.42,436.08Z" transform="translate(-3.76 -1.94)"/><path class="c" d="M321,448a31.38,31.38,0,0,1-4.4-2.25,9.22,9.22,0,0,1-3.95-7.46c-.11-4.11,0-8.23-.08-12.34,0-.75.31-1,1-1,3.48-.22,3.48-.24,3.48,3.27,0,3.07-.06,6.13,0,9.19.09,3.63,2.51,6.06,5.89,6a5.76,5.76,0,0,0,5.79-5.7c.06-3.68,0-7.37,0-11.05V425h4.52v5.49c0,2.39,0,4.79,0,7.18a10.34,10.34,0,0,1-6.72,9.6l-1.87.68Z" transform="translate(-3.76 -1.94)"/><path class="c" d="M385.53,448a15.57,15.57,0,0,1-6.44-3.2,11.89,11.89,0,0,1,15.22-18.23c.37.29.69.64,1.07,1l-2.94,3c-3.8-2.85-8.21-2.84-11.35,1.07a7.5,7.5,0,0,0,.48,9.51,7.58,7.58,0,0,0,10.75.38l2.82,3.24a10.9,10.9,0,0,1-5.4,2.92c-.36.09-.71.23-1.06.34Z" transform="translate(-3.76 -1.94)"/><path class="c" d="M366.42,428.34h4.32v18.74h-4.32Z" transform="translate(-3.76 -1.94)"/><path class="c" d="M368.48,418.94a2.82,2.82,0,0,1,3,2.79,2.92,2.92,0,0,1-2.91,3,2.87,2.87,0,0,1-2.89-2.9A2.79,2.79,0,0,1,368.48,418.94Z" transform="translate(-3.76 -1.94)"/></svg>